<?xml version="1.0" encoding="utf-8"?>
<!-- Generator: Adobe Illustrator 19.2.1, SVG Export Plug-In . SVG Version: 6.00 Build 0)  -->
<svg version="1.1" id="Capa_1" xmlns="http://www.w3.org/2000/svg" xmlns:xlink="http://www.w3.org/1999/xlink" x="0px" y="0px"
	 viewBox="0 0 768 949.9" style="enable-background:new 0 0 768 949.9;" xml:space="preserve">
<style type="text/css">
	.st0{opacity:0.18;}
	.st1{fill:#FFFFFF;}
</style>
<g class="st0">
	<path class="st1" d="M568.2,61c-12.6,3.7-28.3,4.9-43.1,2.9c5.7,10.1-3.7,21.2-24.5,26.6c-21.4,5.6-47.8,3.6-64.1-4.2
		c-6.2,10.1-26.4,17.5-50.4,17.5c-24.7,0-45.3-7.8-50.9-18.3c-16.4,7.3-42,9.1-62.8,3.6C251,83.5,241.7,72,248.3,61.7
		c-13.7,1.6-28.1,0.6-39.9-2.7c29.6-16.6,61.8-29.2,95.7-37.2c19.6,11.4,50.7,18.8,85.8,18.8c34.1,0,64.4-7,84-17.8
		c-28-7-57.2-10.8-87.3-11.1c-1,0-1.9,0-2.9,0c-204,0-369.4,165.4-369.4,369.4c0,0,0,200.3,0,267.7c0,58.4,70.1,107.2,163.7,119.1
		v53c0,65.2,52.8,118,118,118h175.5c65.2,0,118-52.8,118-118v-53c93.6-11.9,163.7-60.7,163.7-119.1V381.2
		C753.3,244.3,678.8,124.8,568.2,61z M705.5,444.8c4.5,3,8.3,8.3,9.1,14.8c2.3,13.2-7.2,23.8-17.8,23.5c-5.4-0.1-15.4-5-23.9-8.4
		c-4.2-1.8-8.3-3.3-11.3-4.4c-3-1-4.8-1.7-4.8-1.7s1.6-1.2,4.1-3c2.6-1.9,5.9-4.6,9.4-7.6c7.1-5.9,15.1-13.7,20.1-15.3
		C695.7,441,701.1,441.7,705.5,444.8z M473.2,426.7c2.5,3.9,4.7,7.5,6.4,10.1c1.8,2.6,3,4.2,3,4.2s-7.8,0-17.2,0.7
		c-9.1,0.7-20,2.3-25.2,0.7c-10.3-3-15.9-16.1-9.6-27.9c6.1-11.9,19.6-15.2,28.3-8.5C463.3,409.1,468.1,418.7,473.2,426.7z
		 M461.9,380.8c0.4-5.3,3.3-11.1,8.3-15.2c10.5-8.4,24.2-5.8,29.4,3.8c2.7,4.8,3.3,15.6,4.6,24.7c1.3,9.4,2.8,16.9,2.8,16.9
		s-7-3.1-15.9-6.2c-8.9-3.4-19.1-5.9-23.3-9.6C463.7,391.4,461.6,386.3,461.9,380.8z M436.6,455.8c5.2,1.2,14,8,21.6,13.2
		c3.7,2.6,7.3,4.9,10.1,6.6c2.7,1.6,4.4,2.6,4.4,2.6s-1.8,0.8-4.6,2.1c-2.9,1.3-6.8,3.3-10.8,5.5c-8.1,4.3-17.5,10.2-22.9,10.8
		c-10.5,1.4-21-8.2-20.1-21.6c0.1-6.5,3.3-12.2,7.5-15.7C425.9,455.9,431.2,454.6,436.6,455.8z M495,565.2
		c-2.4,9.1-3.9,19.6-7.2,24.1c-6.2,9-20.1,10-29.6,0.7c-9.3-9.6-8.3-23.5,0.7-29.6c4.5-3.2,15.1-4.8,24.1-7.1
		c9.2-2.3,16.5-4.5,16.5-4.5S497.3,556,495,565.2z M518.7,580.6c7.4-5.5,13.2-10.9,13.2-10.9s0.8,7.8,2.5,17c1.6,9,4.4,19.7,3.3,25
		c-1.9,10.4-14.3,17.5-26.8,12.5c-12.5-4.8-17.2-17.9-11.4-27.3C502.3,592.4,511.3,586.5,518.7,580.6z M467.7,529.5
		c-5.9,7.4-11.8,16.5-16.4,19.2c-9.3,5.8-22.4,1-27.2-11.5c-5-12.4,2.1-24.9,12.5-26.7c5.3-1.1,16,1.7,25,3.3c9.1,1.7,17,2.5,17,2.5
		S473.2,522.2,467.7,529.5z M449.4,635.6c5.8,36.1-19.3,80.9-65.5,32.4c-50.8,46.4-71.3,3.8-65.5-32.4c4.4-27.5,46.7-76.1,62.9-93.4
		c1-1,1.8-1.9,2.6-2.7c0.8,0.8,1.6,1.7,2.6,2.7C402.7,559.5,444.9,608.1,449.4,635.6z M318.1,759.2c6.4-17.5,18.2-29.4,31.9-29.4
		c14.3,0,26.6,12.9,32.7,31.6c6.1-18.7,18.4-31.6,32.7-31.6c14.6,0,27.1,13.4,33.1,32.8c3.8-19,14.2-32.8,26.5-32.8
		c11.2,0,20.7,11.2,25.3,27.4c3.4-15.9,12.3-27.4,23-27.4c11.9,0,21.9,14.4,24,33.3c-15.2,3.2-30,5.8-44.5,8
		c-1.3,0.2-2.6,0.4-3.9,0.6c-16.2,2.4-32,4.1-47.2,5.4c-1.6,0.1-3.2,0.3-4.7,0.4c-21.3,1.7-41.5,2.3-60.5,2.3c-2.5,0-5,0-7.4,0
		c-21.3-0.2-41-1.3-58.7-2.9c-2.2-0.2-4.3-0.4-6.5-0.6c-16.9-1.7-31.9-3.7-44.9-5.9c-1.5-0.2-3-0.5-4.4-0.7
		c-20.9-3.6-35.8-7.3-43.5-9.5c2.8-17.5,12.2-30.4,23.5-30.4c10.4,0,19.2,10.9,22.8,26.2c4.7-15.5,14-26.2,24.9-26.2
		C303.8,729.9,313.8,742,318.1,759.2z M476.7,485c0-47.2,38.3-85.5,85.5-85.5s85.5,38.3,85.5,85.5s-38.3,85.5-85.5,85.5
		C514.9,570.5,476.7,532.2,476.7,485z M526.3,337.1c6.3-1.8,12.6-0.7,17.2,2.3c4.6,2.9,7.5,7.5,8,12.9s-3.3,15.8-5.9,24.6
		c-2.7,8.8-4.3,16.6-4.3,16.6s-5.3-6.1-12-12.3c-6.7-6.5-15.1-13.5-17.4-18.3C507.2,353,513.3,340.5,526.3,337.1z M565.5,351.6
		c-0.3-10.6,10.3-20,23.5-17.7c6.5,0.8,11.8,4.6,14.8,9.1c3.1,4.4,3.8,9.9,2.1,15.1c-1.7,5-9.4,13-15.4,20.1
		c-6,6.8-10.7,13.4-10.7,13.4s-0.6-1.9-1.6-4.8c-1-3-2.5-7.1-4.4-11.3C570.4,367,565.5,357,565.5,351.6z M654.3,544.4
		c9.2,1.3,19.9,1.9,24.7,4.6c9.5,5.2,12.1,18.9,3.7,29.4c-8.5,10.3-22.4,10.7-29.5,2.4c-3.7-4.2-6.2-14.4-9.6-23.3
		c-3.2-8.9-6.2-15.9-6.2-15.9S644.9,543.1,654.3,544.4z M685.4,536.6c-4.8-2.2-11.8-10.7-18.3-17.4c-6.2-6.7-12.2-12-12.2-12
		s7.8-1.6,16.6-4.3c8.8-2.6,19.2-6.4,24.6-5.9c5.4,0.6,10,3.4,12.9,8.1c3,4.6,4.1,10.9,2.3,17.2
		C707.8,535.3,695.3,541.4,685.4,536.6z M692.1,400.8c7.3,11.2,3.2,24.7-6.7,28.8c-5,2.2-16,1.7-25.1,1.9
		c-9.6,0.3-17.2,1.1-17.2,1.1s1-1.7,2.5-4.5c1.4-2.8,3.3-6.6,5.4-10.7c4.3-8.5,8-18.4,12-22.1C671.1,387.7,684.8,389.7,692.1,400.8z
		 M653.2,385.5c-3.7,4.1-13.7,7.7-22.2,12c-4.1,2.1-7.9,4-10.7,5.4c-2.7,1.5-4.5,2.5-4.5,2.5s0.8-7.6,1.1-17.2
		c0.3-9.1-0.2-20.1,2-25.1c4.1-10,17.6-14,28.8-6.7c5.5,3.5,8.8,9.1,9.8,14.3C658.4,376.1,656.9,381.4,653.2,385.5z M652.9,292.5
		c-5.5,13.7-16.4,22.2-24.7,19.9c-4-1.2-30.6-14.6-61.2-17.3c-15-1.7-30.4-1.2-41.9,0.4S506,299,506,299s6-4.9,16.3-11.3
		s25.1-13.7,41.7-18.9c32.9-11.4,72-9.6,77.7-7.7C653.5,264.3,658.4,279,652.9,292.5z M483.5,249.2c21.8-20.8,47.3-39.1,69.1-51.5
		c21.6-12.7,39.2-19.6,44-21.3c19.8-6,38.5,2.5,41.2,16.7c2.7,14.5-8.9,28.9-25.5,33.9c-4.2,1.5-20.1,4.4-41.3,11.4
		c-21.1,6.7-47.4,17.6-71.6,32c-24.3,14.1-46.7,31.2-62.1,45.4c-7.6,7.2-14,13.3-18.1,17.8c-4.2,4.5-6.6,7-6.6,7s1.7-3,4.8-8.4
		c3-5.4,7.8-12.8,13.6-21.9C443.1,292.6,461.5,269.9,483.5,249.2z M392.5,183.7c40.2-41.7,77.8,7.1,58.7,41.5
		c-15,27-54.6,55.8-58.7,58.8c0,0-43.7-31.8-58.7-58.8C314.7,190.8,352.3,142,392.5,183.7z M130,193.2c2.7-14.3,21.4-22.7,41.2-16.7
		c4.8,1.7,22.4,8.6,44,21.3c21.7,12.4,47.2,30.7,69.1,51.5c22,20.6,40.5,43.4,52.4,61.2c5.9,9,10.7,16.4,13.6,21.9
		c3.1,5.3,4.8,8.4,4.8,8.4s-2.4-2.5-6.6-7c-4.1-4.5-10.5-10.6-18.1-17.8c-15.4-14.3-37.8-31.4-62.1-45.4
		c-24.2-14.3-50.5-25.2-71.6-32c-21.1-6.9-37.1-9.9-41.3-11.4C138.9,222.1,127.3,207.7,130,193.2z M126.1,261.1
		c5.7-1.9,44.8-3.7,77.7,7.7c16.5,5.2,31.4,12.5,41.7,18.9s16.3,11.3,16.3,11.3s-7.6-1.9-19.1-3.5s-26.9-2-41.9-0.4
		c-30.6,2.7-57.1,16.1-61.2,17.3c-8.3,2.2-19.2-6.2-24.7-19.9C109.4,279,114.3,264.3,126.1,261.1z M150,721.6
		c-13-3.7-30.4-10.3-47.3-19.6c-34.4-17.7-63.8-48.9-67-54.6c-7.1-11.3-1.4-26.4,11.7-32.8c13.2-6.5,27.6-4.4,33,4.3
		c2.6,4.3,15.6,36.2,38.8,62.4c11.2,13.2,24.1,25,34.5,33s17.9,12.6,17.9,12.6S163.1,725.3,150,721.6z M203.2,591.5
		c-5.4,13.4-14.9,27.1-24,36.1c-4.5,4.8-8.8,8.3-11.9,10.7c-3.2,2.4-5.1,3.8-5.1,3.8s-4.4-8.3-7.6-21c-3.4-12.3-4.9-28.8-2.7-43.3
		c-11.6,9.2-26.4,15.9-39,19.4c-12.3,3.2-22,4-22,4s0.7-9.8,4-22c3.5-12.6,10.1-27.4,19.4-39c-14.5,2.2-31,0.7-43.3-2.7
		c-12.7-3.2-21-7.6-21-7.6s1.4-1.9,3.8-5.1c2.4-3.1,5.9-7.4,10.7-11.9c9-9.1,22.7-18.6,36.1-24c-13.4-5.4-27.1-14.9-36.1-24
		c-4.8-4.5-8.3-8.8-10.7-11.9c-2.4-3.2-3.8-5.1-3.8-5.1s8.3-4.4,21-7.6c12.3-3.4,28.8-4.9,43.3-2.7c-9.2-11.6-15.9-26.4-19.4-39
		c-3.2-12.3-4-22-4-22s9.8,0.7,22,4c12.6,3.5,27.4,10.1,39,19.4c-2.2-14.5-0.7-31,2.7-43.3c3.2-12.7,7.6-21,7.6-21s1.9,1.4,5.1,3.8
		c3.1,2.4,7.4,5.9,11.9,10.7c9.1,9,18.6,22.7,24,36.1c5.4-13.4,14.9-27.1,24-36.1c4.5-4.8,8.8-8.3,12-10.7c3.2-2.4,5.1-3.8,5.1-3.8
		s4.4,8.3,7.6,21c3.4,12.3,4.9,28.8,2.7,43.3c11.6-9.2,26.4-15.9,39-19.4c12.3-3.2,22-4,22-4s-0.7,9.8-4,22
		c-3.5,12.6-10.1,27.4-19.4,39c14.5-2.2,31-0.7,43.3,2.7c12.7,3.2,21,7.6,21,7.6s-1.4,1.9-3.8,5.1c-2.4,3.1-5.9,7.4-10.7,11.9
		c-9,9.1-22.7,18.6-36.1,24c13.4,5.4,27.1,14.9,36.1,24c4.8,4.5,8.3,8.8,10.7,11.9c2.4,3.2,3.8,5.1,3.8,5.1s-8.3,4.4-21,7.6
		c-12.3,3.4-28.8,4.9-43.3,2.7c9.2,11.6,15.9,26.4,19.4,39c3.2,12.3,4,22,4,22s-9.8-0.7-22-4c-12.6-3.5-27.4-10.1-39-19.4
		c2.2,14.5,0.7,31-2.7,43.3c-3.2,12.7-7.6,21-7.6,21s-1.9-1.4-5.1-3.8c-3.1-2.4-7.4-5.9-12-10.7
		C218.1,618.6,208.7,604.9,203.2,591.5z M523.3,814.6c-9.1,0-17-8.4-21.2-20.8c-3.3,20.5-14.1,35.7-27.1,35.7
		c-10.3,0-19.2-9.6-24.1-23.7c-4.2,24.7-18.5,43-35.5,43c-14.3,0-26.6-12.9-32.7-31.6c-6.1,18.7-18.4,31.6-32.7,31.6
		c-16.3,0-30-16.7-34.9-39.8c-5.1,12.3-13.5,20.5-22.9,20.5c-12.7,0-23.4-14.6-26.9-34.5c-4.3,11.8-12,19.7-20.8,19.7
		c-12.9,0-23.3-16.7-24.3-37.8c8.9,2.3,23.9,5.9,44,9.3c1.1,0.2,2.2,0.4,3.3,0.6c13.2,2.2,28.5,4.3,45.6,6c2,0.2,4.1,0.4,6.2,0.5
		c18,1.6,37.9,2.7,59.5,2.9c2.6,0,5.1,0.1,7.7,0.1c0.1,0,0.3,0,0.4,0c19.2,0,39.6-0.7,61-2.4c1.4-0.1,2.8-0.2,4.2-0.3
		c15.6-1.3,31.7-3.1,48.3-5.5c0.8-0.1,1.6-0.3,2.4-0.4c14.5-2.1,29.3-4.7,44.5-7.8C545.6,799.5,535.5,814.6,523.3,814.6z
		 M588.7,626.6c-3.5,4.2-9.1,7.3-15.7,7.5c-13.3,0.8-23-9.5-21.5-20.1c0.6-5.4,6.5-14.8,10.9-22.9c2.2-4,4.2-7.8,5.5-10.7
		c1.3-2.8,2.2-4.6,2.2-4.6s1,1.7,2.6,4.4c1.6,2.8,4,6.4,6.6,10.1c5.1,7.6,12,16.4,13.2,21.6C593.6,617.3,592.2,622.5,588.7,626.6z
		 M606.6,583c0.7-9.4,0.7-17.2,0.7-17.2s1.6,1.2,4.2,3c2.6,1.7,6.2,4,10.1,6.4c8,5.1,17.5,9.9,20.8,14.3c6.7,8.7,3.4,22.2-8.5,28.3
		c-11.9,6.2-24.9,0.6-27.9-9.7C604.3,603,605.9,592.1,606.6,583z M741.4,647.3c-3.2,5.7-32.6,36.9-67,54.6
		c-16.9,9.3-34.2,15.9-47.3,19.6c-13.1,3.7-21.7,5.2-21.7,5.2s7.5-4.6,17.9-12.6s23.3-19.8,34.5-33c23.2-26.2,36.2-58.1,38.8-62.4
		c5.4-8.6,19.8-10.8,33-4.3C742.7,621,748.5,636,741.4,647.3z"/>
	<path class="st1" d="M229.9,587.9c3.3-0.7,6.4-1.9,9.4-3c3-1,5.7-2.2,7.9-3.4c4.6-2,7.5-3.9,7.5-3.9s12-6.5,21.4-16.3
		c9.8-9.4,16.3-21.4,16.3-21.4s1.8-2.8,3.9-7.5c1.2-2.2,2.4-4.9,3.4-7.9c1.1-2.9,2.3-6.1,3-9.4c1.9-6.4,2.7-13.2,3.2-18.2
		c0.3-5.1,0.4-8.4,0.4-8.4s-0.2-3.4-0.4-8.4c-0.5-5-1.3-11.8-3.2-18.2c-0.7-3.3-1.9-6.4-3-9.4c-1-3-2.2-5.7-3.4-7.9
		c-2-4.6-3.9-7.5-3.9-7.5s-6.5-12-16.3-21.4c-9.4-9.8-21.4-16.3-21.4-16.3s-2.8-1.8-7.5-3.9c-2.2-1.2-4.9-2.4-7.9-3.4
		c-2.9-1.1-6.1-2.3-9.4-3c-6.4-1.9-13.2-2.7-18.2-3.2c-5.1-0.3-8.4-0.4-8.4-0.4s-3.4,0.2-8.4,0.4c-5,0.5-11.8,1.3-18.2,3.2
		c-3.3,0.7-6.4,1.9-9.4,3c-3,1-5.7,2.2-7.9,3.4c-4.6,2-7.5,3.9-7.5,3.9s-12,6.5-21.4,16.3c-9.8,9.4-16.3,21.4-16.3,21.4
		s-1.8,2.8-3.9,7.5c-1.2,2.2-2.4,4.9-3.4,7.9c-1.1,2.9-2.3,6.1-3,9.4c-1.9,6.4-2.7,13.2-3.2,18.2c-0.3,5.1-0.4,8.4-0.4,8.4
		s0.2,3.4,0.4,8.4c0.5,5,1.3,11.8,3.2,18.2c0.7,3.3,1.9,6.4,3,9.4c1,3,2.2,5.7,3.4,7.9c2,4.6,3.9,7.5,3.9,7.5s6.5,12,16.3,21.4
		c9.4,9.8,21.4,16.3,21.4,16.3s2.8,1.8,7.5,3.9c2.2,1.2,4.9,2.4,7.9,3.4c2.9,1.1,6.1,2.3,9.4,3c6.4,1.9,13.2,2.7,18.2,3.2
		c5.1,0.3,8.4,0.4,8.4,0.4s3.4-0.2,8.4-0.4C216.7,590.6,223.4,589.8,229.9,587.9z M117.7,487.1c0-47.3,38.4-85.7,85.7-85.7
		s85.7,38.4,85.7,85.7s-38.4,85.7-85.7,85.7C156.1,572.9,117.7,534.5,117.7,487.1z"/>
</g>
</svg>
