<?xml version="1.0" encoding="utf-8"?>
<!-- Generator: Adobe Illustrator 19.2.1, SVG Export Plug-In . SVG Version: 6.00 Build 0)  -->
<svg version="1.1" id="Isolation_Mode" xmlns="http://www.w3.org/2000/svg" xmlns:xlink="http://www.w3.org/1999/xlink" x="0px"
	 y="0px" viewBox="0 0 2505.9 920.7" style="enable-background:new 0 0 2505.9 920.7;" xml:space="preserve">
<style type="text/css">
	.st0{fill:#8A1E72;}
	.st1{fill:#F0E9C7;}
	.st2{enable-background:new    ;}
	.st3{fill:#727272;}
	.st4{fill:#5BCCCE;}
	.st5{fill:none;}
	.st6{fill:#FFB948;}
	.st7{fill:#F56B20;}
	.st8{fill:#096975;}
</style>
<g>
	<circle class="st0" cx="267.6" cy="668.2" r="73.4"/>
	<circle class="st0" cx="412.7" cy="668.2" r="85.6"/>
	<circle class="st0" cx="581.2" cy="668.2" r="96.7"/>
	<circle class="st0" cx="773.8" cy="668.2" r="109.7"/>
	<circle class="st0" cx="986.9" cy="710.8" r="125.1"/>
	<circle class="st0" cx="2236.4" cy="668.2" r="73.4"/>
	<circle class="st0" cx="2345.5" cy="644.8" r="50.3"/>
	<circle class="st0" cx="157.2" cy="644.8" r="50.3"/>
	<circle class="st0" cx="2091.2" cy="668.2" r="85.6"/>
	<circle class="st0" cx="1922.7" cy="668.2" r="96.7"/>
	<circle class="st0" cx="1730.2" cy="668.2" r="109.7"/>
	<circle class="st0" cx="1517.1" cy="710.8" r="125.1"/>
	<circle class="st0" cx="1252" cy="733" r="175.6"/>
</g>
<circle class="st0" cx="2235.1" cy="259.8" r="73.4"/>
<circle class="st0" cx="2090" cy="254.8" r="85.6"/>
<circle class="st0" cx="1921.5" cy="254.8" r="96.7"/>
<circle class="st0" cx="1728.9" cy="254.8" r="109.7"/>
<circle class="st1" cx="1723.3" cy="306.6" r="95.7"/>
<circle class="st0" cx="1515.8" cy="212.3" r="125.1"/>
<circle class="st0" cx="266.3" cy="259.8" r="73.4"/>
<circle class="st0" cx="157.2" cy="278.2" r="50.3"/>
<circle class="st0" cx="2345.5" cy="278.2" r="50.3"/>
<circle class="st0" cx="411.5" cy="254.8" r="85.6"/>
<circle class="st0" cx="580" cy="254.8" r="96.7"/>
<circle class="st0" cx="772.5" cy="254.8" r="109.7"/>
<circle class="st0" cx="985.6" cy="212.3" r="125.1"/>
<circle class="st0" cx="1250.7" cy="190.1" r="175.6"/>
<path class="st1" d="M2355.6,654.9H144.5c-71.6,0-129.7-58.1-129.7-129.7V400.1c0-71.6,58.1-129.7,129.7-129.7h2211.1
	c71.6,0,129.7,58.1,129.7,129.7v125.1C2485.4,596.9,2427.3,654.9,2355.6,654.9z"/>
<g class="st2">
	<path class="st3" d="M206.9,585.4c-23.5,0-45.3-9-61.6-25.3c-22.5-22.5-22.8-44.6-22.8-100c0-55.7,0.3-77.5,22.8-100
		c16.3-16.3,38.1-25.3,61.6-25.3c44.3,0,75.4,27.7,83.7,72h-19c-7.3-34.2-31.5-55.4-64.7-55.4c-17.6,0-34.2,6.6-46.7,19
		c-17.6,17.6-19,37-19,89.6s1.4,72,19,89.6c12.5,12.5,29.1,19,46.7,19c33.2,0,58.1-21.1,65.4-55.4h18.3
		C282.3,557.7,250.5,585.4,206.9,585.4z"/>
	<path class="st3" d="M448.4,566.7c-14.2,14.2-27.3,18.7-50.9,18.7c-24.9,0-38.4-4.2-49.1-15.2c-8-8-12.1-20.1-12.1-32.5
		c0-30.4,21.8-48.1,58.1-48.1h54v-18.7c0-26.6-12.8-40.8-47-40.8c-23.5,0-35.3,5.9-46,21.1l-12.8-11.1
		c14.2-19.7,31.5-25.6,58.8-25.6c44.3,0,64.7,19.7,64.7,54.7v114.2h-17.6V566.7z M396.5,503.7c-28.4,0-42.6,11.1-42.6,33.6
		c0,22.1,13.1,32.5,43.6,32.5c15.2,0,29.4-1.4,41.5-12.8c6.2-5.9,9.3-16.6,9.3-31.8v-21.4H396.5z"/>
	<path class="st3" d="M531,540V337h17.6v202.7c0,19,5.9,28,25.6,28h12.1v15.6h-15.2C543.8,583.3,531,566.3,531,540z"/>
	<path class="st3" d="M728.9,566.7c-14.2,14.2-27.3,18.7-50.9,18.7c-24.9,0-38.4-4.2-49.1-15.2c-8-8-12.1-20.1-12.1-32.5
		c0-30.4,21.8-48.1,58.1-48.1h54v-18.7c0-26.6-12.8-40.8-47-40.8c-23.5,0-35.3,5.9-46,21.1l-12.8-11.1
		c14.2-19.7,31.5-25.6,58.8-25.6c44.3,0,64.7,19.7,64.7,54.7v114.2h-17.6V566.7z M677,503.7c-28.4,0-42.6,11.1-42.6,33.6
		c0,22.1,13.1,32.5,43.6,32.5c15.2,0,29.4-1.4,41.5-12.8c6.2-5.9,9.3-16.6,9.3-31.8v-21.4H677z"/>
	<path class="st3" d="M844.5,583.3l-60.9-166.7h19.4l50.2,146l50.2-146h19.4l-60.9,166.7H844.5z"/>
	<path class="st3" d="M1019.9,569.4c19.7,0,31.8-5.9,46-20.1l13.1,10.4c-17,17-32.5,25.6-60.2,25.6c-46,0-70.9-29.8-70.9-85.4
		c0-54,24.9-85.4,66.8-85.4c41.9,0,66.8,30.1,66.8,81.3v8H965.5C965.5,546.3,984.2,569.4,1019.9,569.4z M1057.9,458.1
		c-7.3-17.6-23.9-28-43.2-28s-36,10.4-43.2,28c-3.8,10.7-4.8,15.2-5.9,31.5h98.2C1062.8,473.6,1062.4,468.1,1057.9,458.1z"/>
	<path class="st3" d="M1200.8,430c-28.7,0-44.6,23.9-44.6,50.5v102.7h-17.6V416.5h17.6v22.1c9.7-15.6,29.1-24.2,48.8-24.2
		c16.3,0,28,3.8,40.1,15.9l-12.8,12.8C1222.2,433.1,1214.6,430,1200.8,430z"/>
</g>
<g class="st2">
	<path class="st3" d="M1274.5,372.3v-36.7h46v36.7H1274.5z M1275.2,583.3V403h45v180.2H1275.2z"/>
	<path class="st3" d="M1357.8,583.3V549l79.9-105.5h-75.4V403h132.8v34.2l-81,105.5h81v40.5H1357.8z"/>
	<path class="st3" d="M1523.2,583.3V549l79.9-105.5h-75.4V403h132.8v34.2l-81,105.5h81v40.5H1523.2z"/>
	<path class="st3" d="M1700.3,372.3v-36.7h46v36.7H1700.3z M1701,583.3V403h45v180.2H1701z"/>
</g>
<g class="st2">
	<path class="st3" d="M2025.9,479.8c0-32.2-15.9-49.8-46-49.8c-29.1,0-47,18-47,46.7v106.6h-17.6V479.8c0-32.2-15.9-49.8-46-49.8
		s-47,18-47,49.8v103.4h-17.6V416.5h17.6v19.7c12.5-14.5,29.1-21.8,49.5-21.8c24.9,0,43.6,10.7,53.6,30.4
		c12.5-19.7,31.8-30.4,56.7-30.4c18.3,0,33.2,5.9,43.9,15.9c11.4,11.1,17.3,26.6,17.3,46.4v106.6h-17.3V479.8z"/>
	<path class="st3" d="M2206.1,566.7c-14.2,14.2-27.3,18.7-50.9,18.7c-24.9,0-38.4-4.2-49.1-15.2c-8-8-12.1-20.1-12.1-32.5
		c0-30.4,21.8-48.1,58.1-48.1h54v-18.7c0-26.6-12.8-40.8-47-40.8c-23.5,0-35.3,5.9-46,21.1l-12.8-11.1
		c14.2-19.7,31.5-25.6,58.8-25.6c44.3,0,64.7,19.7,64.7,54.7v114.2h-17.6V566.7z M2154.2,503.7c-28.4,0-42.6,11.1-42.6,33.6
		c0,22.1,13.1,32.5,43.6,32.5c15.2,0,29.4-1.4,41.5-12.8c6.2-5.9,9.3-16.6,9.3-31.8v-21.4H2154.2z"/>
	<path class="st3" d="M2340.7,585.4c-29.1,0-50.5-7.6-67.5-23.9l12.1-12.1c12.8,13.5,31.1,20.4,54.7,20.4
		c32.9,0,50.2-11.4,50.2-33.9c0-17.6-9.7-25.6-31.8-28l-27.7-2.4c-33.6-2.8-50.2-17.3-50.2-43.6c0-29.1,23.5-47.4,59.8-47.4
		c23.2,0,43.6,6.6,58.5,17.6l-11.8,11.8c-12.8-9.3-28.4-14.2-46.7-14.2c-27.7,0-42.6,11.4-42.6,32.2c0,17.6,10.4,25.6,33.9,28
		l27,2.4c27.7,2.8,48.8,11.1,48.8,43.6C2407.4,566.3,2381.8,585.4,2340.7,585.4z"/>
</g>
<g>
	<path class="st1" d="M1249.5,195.9c0.7,0.4,1.4,1.1,2,1.9C1250.9,197,1250.2,196.4,1249.5,195.9z"/>
	<path class="st1" d="M1342.3,137.8c0-50.9-41.2-92.1-92.1-92.1s-92.1,41.2-92.1,92.1c0,28.7,13.1,54.4,33.7,71.3
		c-2.7,3.9-4.3,8.5-4.3,13.6c0,13.2,10.7,23.8,23.8,23.8c8,0,15.1-3.9,19.4-10c4.3,6.1,11.4,10,19.4,10s15.1-3.9,19.4-10
		c4.3,6.1,11.4,10,19.4,10c13.2,0,23.8-10.7,23.8-23.8c0-5.1-1.6-9.7-4.3-13.6C1329.1,192.2,1342.3,166.5,1342.3,137.8z
		 M1211.4,190.1c-13.2,0-23.8-10.7-23.8-23.8c0-13.2,10.7-23.8,23.8-23.8c13.2,0,23.8,10.7,23.8,23.8S1224.5,190.1,1211.4,190.1z
		 M1259.4,198.7c-0.6,3.6-3.1,6.3-6.2,6.7c-0.2,0-0.5,0-0.7,0s-0.5,0-0.7,0c-3.1-0.4-5.5-3.1-6.2-6.7l0,0c-0.1-0.6-0.1-1.1-0.1-1.7
		c0-1,0.1-1.9,0.4-2.8h0.1h-0.1c1.7-4.3,6.6-10.4,6.6-10.4s4.9,6,6.6,10.4h-0.1h0.1c0.3,0.9,0.4,1.8,0.4,2.8
		C1259.5,197.5,1259.4,198.1,1259.4,198.7C1259.3,198.7,1259.3,198.7,1259.4,198.7z M1293.8,190.1c-13.2,0-23.8-10.7-23.8-23.8
		c0-13.2,10.7-23.8,23.8-23.8s23.8,10.7,23.8,23.8C1317.6,179.4,1306.9,190.1,1293.8,190.1z"/>
</g>
<circle class="st1" cx="1728.9" cy="173" r="6.6"/>
<circle class="st1" cx="1921.5" cy="181" r="6.6"/>
<circle class="st1" cx="2090" cy="189" r="6.6"/>
<circle class="st1" cx="2235.1" cy="206" r="6.6"/>
<circle class="st1" cx="2352.5" cy="245.6" r="6.6"/>
<circle class="st1" cx="767.1" cy="173" r="6.6"/>
<circle class="st1" cx="574.6" cy="181" r="6.6"/>
<circle class="st1" cx="406.1" cy="189" r="6.6"/>
<circle class="st1" cx="260.9" cy="206" r="6.6"/>
<circle class="st1" cx="143.6" cy="245.6" r="6.6"/>
<circle class="st1" cx="767.1" cy="746.9" r="6.6"/>
<circle class="st1" cx="574.6" cy="738.9" r="6.6"/>
<circle class="st1" cx="406.1" cy="730.9" r="6.6"/>
<circle class="st1" cx="260.9" cy="713.9" r="6.6"/>
<circle class="st1" cx="143.6" cy="674.3" r="6.6"/>
<circle class="st1" cx="1729.9" cy="746.9" r="6.6"/>
<circle class="st1" cx="1922.5" cy="738.9" r="6.6"/>
<circle class="st1" cx="2091" cy="730.9" r="6.6"/>
<circle class="st1" cx="2236.1" cy="713.9" r="6.6"/>
<circle class="st1" cx="2353.5" cy="674.3" r="6.6"/>
<g>
	<circle class="st1" cx="1253.7" cy="778.7" r="24.9"/>
	<path class="st1" d="M1290.5,778.7c0,0,0.3-0.2,0.7-0.5c0.5-0.3,1.2-0.8,2.1-1.4c1.8-1.1,4.3-2.4,7.4-3.6c3-1.2,6.6-2.3,10.4-3
		s7.9-1.1,11.9-1.1c4.1,0,8.1,0.3,11.9,1.1c1.9,0.4,3.7,0.8,5.5,1.3c1.7,0.5,3.4,1.1,4.9,1.7c3,1.2,5.6,2.5,7.4,3.6
		c0.9,0.5,1.6,1.1,2.1,1.4c0.5,0.3,0.7,0.6,0.7,0.6s-0.3,0.2-0.7,0.6c-0.5,0.3-1.2,0.8-2.1,1.4c-1.8,1.1-4.3,2.4-7.4,3.6
		c-1.5,0.6-3.2,1.2-4.9,1.7c-1.7,0.5-3.6,0.9-5.5,1.3c-3.8,0.7-7.9,1.1-11.9,1.1c-4.1,0-8.1-0.4-11.9-1.1c-3.8-0.7-7.4-1.8-10.4-3
		s-5.6-2.5-7.4-3.6c-0.9-0.5-1.6-1.1-2.1-1.4C1290.8,778.9,1290.5,778.7,1290.5,778.7z"/>
	<path class="st1" d="M1154.4,778.7c0,0,0.3-0.2,0.7-0.5c0.5-0.3,1.2-0.8,2.1-1.4c1.8-1.1,4.3-2.4,7.4-3.6c3-1.2,6.6-2.3,10.4-3
		s7.9-1.1,11.9-1.1c4.1,0,8.1,0.3,11.9,1.1c1.9,0.4,3.7,0.8,5.5,1.3c1.7,0.5,3.4,1.1,4.9,1.7c3,1.2,5.6,2.5,7.4,3.6
		c0.9,0.5,1.6,1.1,2.1,1.4c0.5,0.3,0.7,0.6,0.7,0.6s-0.3,0.2-0.7,0.6c-0.5,0.3-1.2,0.8-2.1,1.4c-1.8,1.1-4.3,2.4-7.4,3.6
		c-1.5,0.6-3.2,1.2-4.9,1.7c-1.7,0.5-3.6,0.9-5.5,1.3c-3.8,0.7-7.9,1.1-11.9,1.1c-4.1,0-8.1-0.4-11.9-1.1c-3.8-0.7-7.4-1.8-10.4-3
		s-5.6-2.5-7.4-3.6c-0.9-0.5-1.6-1.1-2.1-1.4C1154.6,778.9,1154.4,778.7,1154.4,778.7z"/>
	<path class="st1" d="M1280.1,803.9c0,0,0.3,0,0.9,0.1s1.4,0.2,2.4,0.5c2,0.5,4.8,1.3,7.8,2.7c3,1.3,6.3,3.1,9.5,5.3
		s6.3,4.8,9.2,7.7c2.9,2.9,5.5,6,7.7,9.2c1.1,1.6,2.1,3.2,3,4.8s1.6,3.2,2.3,4.7c1.3,3,2.2,5.7,2.6,7.8c0.3,1,0.4,1.9,0.5,2.4
		c0.1,0.6,0.1,0.9,0.1,0.9s-0.3,0-0.9-0.1s-1.4-0.2-2.4-0.5c-2-0.5-4.8-1.3-7.8-2.6c-1.5-0.7-3.1-1.4-4.7-2.3
		c-1.6-0.9-3.2-1.9-4.8-3c-3.2-2.2-6.3-4.8-9.2-7.7c-2.9-2.9-5.5-6-7.7-9.2s-4-6.5-5.3-9.5s-2.2-5.7-2.7-7.8c-0.3-1-0.4-1.9-0.5-2.4
		C1280.2,804.2,1280.1,803.9,1280.1,803.9z"/>
	<path class="st1" d="M1183.8,707.6c0,0,0.3,0,0.9,0.1s1.4,0.2,2.4,0.5c2,0.5,4.8,1.3,7.8,2.7c3,1.3,6.3,3.1,9.5,5.3
		s6.3,4.8,9.2,7.7c2.9,2.9,5.5,6,7.7,9.2c1.1,1.6,2.1,3.2,3,4.8s1.6,3.2,2.3,4.7c1.3,3,2.2,5.7,2.6,7.8c0.3,1,0.4,1.9,0.5,2.4
		c0.1,0.6,0.1,0.9,0.1,0.9s-0.3,0-0.9-0.1s-1.4-0.2-2.4-0.5c-2-0.5-4.8-1.3-7.8-2.6c-1.5-0.7-3.1-1.4-4.7-2.3
		c-1.6-0.9-3.2-1.9-4.8-3c-3.2-2.2-6.3-4.8-9.2-7.7c-2.9-2.9-5.5-6-7.7-9.2s-4-6.5-5.3-9.5s-2.2-5.7-2.7-7.8c-0.3-1-0.4-1.9-0.5-2.4
		C1183.9,707.9,1183.8,707.6,1183.8,707.6z"/>
	<path class="st1" d="M1255,814.3c0,0,0.2,0.3,0.5,0.7c0.3,0.5,0.8,1.2,1.4,2.1c1.1,1.8,2.4,4.3,3.6,7.4c1.2,3,2.3,6.6,3,10.4
		c0.7,3.8,1.1,7.9,1.1,11.9c0,4.1-0.3,8.1-1.1,11.9c-0.4,1.9-0.8,3.7-1.3,5.5c-0.5,1.7-1.1,3.4-1.7,4.9c-1.2,3-2.5,5.6-3.6,7.4
		c-0.5,0.9-1.1,1.6-1.4,2.1s-0.6,0.7-0.6,0.7s-0.2-0.3-0.6-0.7c-0.3-0.5-0.8-1.2-1.4-2.1c-1.1-1.8-2.4-4.3-3.6-7.4
		c-0.6-1.5-1.2-3.2-1.7-4.9s-0.9-3.6-1.3-5.5c-0.7-3.8-1.1-7.9-1.1-11.9c0-4.1,0.4-8.1,1.1-11.9c0.7-3.8,1.8-7.4,3-10.4
		s2.5-5.6,3.6-7.4c0.5-0.9,1.1-1.6,1.4-2.1C1254.8,814.6,1255,814.3,1255,814.3z"/>
	<path class="st1" d="M1255,678.1c0,0,0.2,0.3,0.5,0.7c0.3,0.5,0.8,1.2,1.4,2.1c1.1,1.8,2.4,4.3,3.6,7.4c1.2,3,2.3,6.6,3,10.4
		c0.7,3.8,1.1,7.9,1.1,11.9c0,4.1-0.3,8.1-1.1,11.9c-0.4,1.9-0.8,3.7-1.3,5.5c-0.5,1.7-1.1,3.4-1.7,4.9c-1.2,3-2.5,5.6-3.6,7.4
		c-0.5,0.9-1.1,1.6-1.4,2.1s-0.6,0.7-0.6,0.7s-0.2-0.3-0.6-0.7c-0.3-0.5-0.8-1.2-1.4-2.1c-1.1-1.8-2.4-4.3-3.6-7.4
		c-0.6-1.5-1.2-3.2-1.7-4.9s-0.9-3.6-1.3-5.5c-0.7-3.8-1.1-7.9-1.1-11.9c0-4.1,0.4-8.1,1.1-11.9c0.7-3.8,1.8-7.4,3-10.4
		s2.5-5.6,3.6-7.4c0.5-0.9,1.1-1.6,1.4-2.1C1254.8,678.4,1255,678.1,1255,678.1z"/>
	<path class="st1" d="M1229.8,803.9c0,0,0,0.3-0.1,0.9c-0.1,0.6-0.2,1.4-0.5,2.4c-0.5,2-1.3,4.8-2.7,7.8c-1.3,3-3.1,6.3-5.3,9.5
		c-2.2,3.2-4.8,6.3-7.7,9.2c-2.9,2.9-6,5.5-9.2,7.7c-1.6,1.1-3.2,2.1-4.8,3c-1.6,0.9-3.2,1.6-4.7,2.3c-3,1.3-5.7,2.2-7.8,2.6
		c-1,0.3-1.9,0.4-2.4,0.5c-0.6,0.1-0.9,0.1-0.9,0.1s0-0.3,0.1-0.9c0.1-0.6,0.2-1.4,0.5-2.4c0.5-2,1.3-4.8,2.6-7.8
		c0.7-1.5,1.4-3.1,2.3-4.7c0.9-1.6,1.9-3.2,3-4.8c2.2-3.2,4.8-6.3,7.7-9.2c2.9-2.9,6-5.5,9.2-7.7s6.5-4,9.5-5.3s5.7-2.2,7.8-2.7
		c1-0.3,1.9-0.4,2.4-0.5C1229.5,803.9,1229.8,803.9,1229.8,803.9z"/>
	<path class="st1" d="M1326.1,707.6c0,0,0,0.3-0.1,0.9c-0.1,0.6-0.2,1.4-0.5,2.4c-0.5,2-1.3,4.8-2.7,7.8c-1.3,3-3.1,6.3-5.3,9.5
		c-2.2,3.2-4.8,6.3-7.7,9.2c-2.9,2.9-6,5.5-9.2,7.7c-1.6,1.1-3.2,2.1-4.8,3c-1.6,0.9-3.2,1.6-4.7,2.3c-3,1.3-5.7,2.2-7.8,2.6
		c-1,0.3-1.9,0.4-2.4,0.5c-0.6,0.1-0.9,0.1-0.9,0.1s0-0.3,0.1-0.9c0.1-0.6,0.2-1.4,0.5-2.4c0.5-2,1.3-4.8,2.6-7.8
		c0.7-1.5,1.4-3.1,2.3-4.7c0.9-1.6,1.9-3.2,3-4.8c2.2-3.2,4.8-6.3,7.7-9.2c2.9-2.9,6-5.5,9.2-7.7s6.5-4,9.5-5.3s5.7-2.2,7.8-2.7
		c1-0.3,1.9-0.4,2.4-0.5C1325.8,707.6,1326.1,707.6,1326.1,707.6z"/>
</g>
<g>
	<circle class="st1" cx="979.4" cy="182.3" r="14.2"/>
	<path class="st1" d="M1000.5,182.3c0,0,0.1-0.1,0.4-0.3c0.3-0.2,0.7-0.5,1.2-0.8c1-0.6,2.5-1.4,4.2-2.1s3.8-1.3,6-1.7
		s4.5-0.6,6.8-0.6s4.6,0.2,6.8,0.6c1.1,0.2,2.1,0.5,3.1,0.7c1,0.3,1.9,0.6,2.8,1c1.7,0.7,3.2,1.4,4.2,2.1c0.5,0.3,0.9,0.6,1.2,0.8
		c0.3,0.2,0.4,0.3,0.4,0.3s-0.1,0.1-0.4,0.3s-0.7,0.5-1.2,0.8c-1,0.6-2.5,1.4-4.2,2.1c-0.9,0.3-1.8,0.7-2.8,1s-2.1,0.5-3.1,0.7
		c-2.2,0.4-4.5,0.6-6.8,0.6s-4.6-0.2-6.8-0.6c-2.2-0.4-4.2-1-6-1.7c-1.7-0.7-3.2-1.4-4.2-2.1c-0.5-0.3-0.9-0.6-1.2-0.8
		C1000.6,182.5,1000.5,182.3,1000.5,182.3z"/>
	<path class="st1" d="M922.6,182.3c0,0,0.1-0.1,0.4-0.3c0.3-0.2,0.7-0.5,1.2-0.8c1-0.6,2.5-1.4,4.2-2.1s3.8-1.3,6-1.7
		s4.5-0.6,6.8-0.6s4.6,0.2,6.8,0.6c1.1,0.2,2.1,0.5,3.1,0.7c1,0.3,1.9,0.6,2.8,1c1.7,0.7,3.2,1.4,4.2,2.1c0.5,0.3,0.9,0.6,1.2,0.8
		s0.4,0.3,0.4,0.3s-0.1,0.1-0.4,0.3c-0.3,0.2-0.7,0.5-1.2,0.8c-1,0.6-2.5,1.4-4.2,2.1c-0.9,0.3-1.8,0.7-2.8,1s-2,0.5-3.1,0.7
		c-2.2,0.4-4.5,0.6-6.8,0.6s-4.6-0.2-6.8-0.6s-4.2-1-6-1.7c-1.7-0.7-3.2-1.4-4.2-2.1c-0.5-0.3-0.9-0.6-1.2-0.8
		C922.8,182.5,922.6,182.3,922.6,182.3z"/>
	<path class="st1" d="M994.5,196.7c0,0,0.2,0,0.5,0.1s0.8,0.1,1.4,0.3c1.2,0.3,2.7,0.8,4.4,1.5s3.6,1.8,5.4,3s3.6,2.7,5.3,4.4
		c1.6,1.6,3.1,3.4,4.4,5.3c0.6,0.9,1.2,1.8,1.7,2.7s0.9,1.8,1.3,2.7c0.7,1.7,1.2,3.3,1.5,4.4c0.1,0.6,0.2,1.1,0.3,1.4
		c0.1,0.3,0.1,0.5,0.1,0.5s-0.2,0-0.5-0.1s-0.8-0.1-1.4-0.3c-1.2-0.3-2.7-0.8-4.4-1.5c-0.8-0.4-1.8-0.8-2.7-1.3s-1.8-1.1-2.7-1.7
		c-1.8-1.2-3.6-2.8-5.3-4.4c-1.6-1.6-3.1-3.4-4.4-5.3c-1.3-1.8-2.3-3.7-3-5.4c-0.8-1.7-1.2-3.3-1.5-4.4c-0.1-0.6-0.2-1.1-0.3-1.4
		C994.5,196.9,994.5,196.7,994.5,196.7z"/>
	<path class="st1" d="M939.5,141.7c0,0,0.2,0,0.5,0.1s0.8,0.1,1.4,0.3c1.2,0.3,2.7,0.8,4.4,1.5s3.6,1.8,5.4,3
		c1.8,1.2,3.6,2.7,5.3,4.4c1.6,1.6,3.1,3.4,4.4,5.3c0.6,0.9,1.2,1.8,1.7,2.7s0.9,1.8,1.3,2.7c0.7,1.7,1.2,3.3,1.5,4.4
		c0.1,0.6,0.2,1.1,0.3,1.4c0.1,0.3,0.1,0.5,0.1,0.5s-0.2,0-0.5-0.1s-0.8-0.1-1.4-0.3c-1.2-0.3-2.7-0.8-4.4-1.5
		c-0.8-0.4-1.8-0.8-2.7-1.3s-1.8-1.1-2.7-1.7c-1.8-1.2-3.6-2.8-5.3-4.4c-1.6-1.6-3.1-3.4-4.4-5.3c-1.3-1.8-2.3-3.7-3-5.4
		c-0.8-1.7-1.2-3.3-1.5-4.4c-0.1-0.6-0.2-1.1-0.3-1.4C939.5,141.9,939.5,141.7,939.5,141.7z"/>
	<path class="st1" d="M980.1,202.7c0,0,0.1,0.1,0.3,0.4c0.2,0.3,0.5,0.7,0.8,1.2c0.6,1,1.4,2.5,2.1,4.2s1.3,3.8,1.7,6
		s0.6,4.5,0.6,6.8s-0.2,4.6-0.6,6.8c-0.2,1.1-0.5,2.1-0.7,3.1c-0.3,1-0.6,1.9-1,2.8c-0.7,1.7-1.4,3.2-2.1,4.2
		c-0.3,0.5-0.6,0.9-0.8,1.2s-0.3,0.4-0.3,0.4s-0.1-0.1-0.3-0.4c-0.2-0.3-0.5-0.7-0.8-1.2c-0.6-1-1.4-2.5-2.1-4.2
		c-0.3-0.9-0.7-1.8-1-2.8s-0.5-2.1-0.7-3.1c-0.4-2.2-0.6-4.5-0.6-6.8s0.2-4.6,0.6-6.8c0.4-2.2,1-4.2,1.7-6c0.7-1.7,1.4-3.2,2.1-4.2
		c0.3-0.5,0.6-0.9,0.8-1.2C980,202.8,980.1,202.7,980.1,202.7z"/>
	<path class="st1" d="M980.1,124.9c0,0,0.1,0.1,0.3,0.4s0.5,0.7,0.8,1.2c0.6,1,1.4,2.5,2.1,4.2s1.3,3.8,1.7,6s0.6,4.5,0.6,6.8
		s-0.2,4.6-0.6,6.8c-0.2,1.1-0.5,2.1-0.7,3.1c-0.3,1-0.6,1.9-1,2.8c-0.7,1.7-1.4,3.2-2.1,4.2c-0.3,0.5-0.6,0.9-0.8,1.2
		s-0.3,0.4-0.3,0.4s-0.1-0.1-0.3-0.4c-0.2-0.3-0.5-0.7-0.8-1.2c-0.6-1-1.4-2.5-2.1-4.2c-0.3-0.9-0.7-1.8-1-2.8s-0.5-2.1-0.7-3.1
		c-0.4-2.2-0.6-4.5-0.6-6.8s0.2-4.6,0.6-6.8s1-4.2,1.7-6c0.7-1.7,1.4-3.2,2.1-4.2c0.3-0.5,0.6-0.9,0.8-1.2S980.1,124.9,980.1,124.9z
		"/>
	<path class="st1" d="M965.8,196.7c0,0,0,0.2-0.1,0.5s-0.1,0.8-0.3,1.4c-0.3,1.2-0.8,2.7-1.5,4.4s-1.8,3.6-3,5.4
		c-1.2,1.8-2.7,3.6-4.4,5.3c-1.6,1.6-3.4,3.1-5.3,4.4c-0.9,0.6-1.8,1.2-2.7,1.7s-1.8,0.9-2.7,1.3c-1.7,0.7-3.3,1.2-4.4,1.5
		c-0.6,0.1-1.1,0.2-1.4,0.3c-0.3,0.1-0.5,0.1-0.5,0.1s0-0.2,0.1-0.5s0.1-0.8,0.3-1.4c0.3-1.2,0.8-2.7,1.5-4.4
		c0.4-0.8,0.8-1.8,1.3-2.7s1.1-1.8,1.7-2.7c1.2-1.8,2.8-3.6,4.4-5.3c1.6-1.6,3.4-3.1,5.3-4.4c1.8-1.3,3.7-2.3,5.4-3
		c1.7-0.8,3.3-1.2,4.4-1.5c0.6-0.1,1.1-0.2,1.4-0.3S965.8,196.7,965.8,196.7z"/>
	<path class="st1" d="M1020.8,141.7c0,0,0,0.2-0.1,0.5s-0.1,0.8-0.3,1.4c-0.3,1.2-0.8,2.7-1.5,4.4s-1.8,3.6-3,5.4s-2.7,3.6-4.4,5.3
		c-1.6,1.6-3.4,3.1-5.3,4.4c-0.9,0.6-1.8,1.2-2.7,1.7s-1.8,0.9-2.7,1.3c-1.7,0.7-3.3,1.2-4.4,1.5c-0.6,0.1-1.1,0.2-1.4,0.3
		c-0.3,0.1-0.5,0.1-0.5,0.1s0-0.2,0.1-0.5s0.1-0.8,0.3-1.4c0.3-1.2,0.8-2.7,1.5-4.4c0.4-0.8,0.8-1.8,1.3-2.7s1.1-1.8,1.7-2.7
		c1.2-1.8,2.8-3.6,4.4-5.3c1.6-1.6,3.4-3.1,5.3-4.4c1.8-1.3,3.7-2.3,5.4-3c1.7-0.8,3.3-1.2,4.4-1.5c0.6-0.1,1.1-0.2,1.4-0.3
		C1020.6,141.7,1020.8,141.7,1020.8,141.7z"/>
</g>
<g>
	<circle class="st1" cx="1515.8" cy="182.3" r="14.2"/>
	<path class="st1" d="M1536.9,182.3c0,0,0.1-0.1,0.4-0.3s0.7-0.5,1.2-0.8c1-0.6,2.5-1.4,4.2-2.1s3.8-1.3,6-1.7s4.5-0.6,6.8-0.6
		s4.6,0.2,6.8,0.6c1.1,0.2,2.1,0.5,3.1,0.7c1,0.3,1.9,0.6,2.8,1c1.7,0.7,3.2,1.4,4.2,2.1c0.5,0.3,0.9,0.6,1.2,0.8
		c0.3,0.2,0.4,0.3,0.4,0.3s-0.1,0.1-0.4,0.3s-0.7,0.5-1.2,0.8c-1,0.6-2.5,1.4-4.2,2.1c-0.9,0.3-1.8,0.7-2.8,1s-2.1,0.5-3.1,0.7
		c-2.2,0.4-4.5,0.6-6.8,0.6s-4.6-0.2-6.8-0.6c-2.2-0.4-4.2-1-6-1.7c-1.7-0.7-3.2-1.4-4.2-2.1c-0.5-0.3-0.9-0.6-1.2-0.8
		C1537,182.5,1536.9,182.3,1536.9,182.3z"/>
	<path class="st1" d="M1459.1,182.3c0,0,0.1-0.1,0.4-0.3s0.7-0.5,1.2-0.8c1-0.6,2.5-1.4,4.2-2.1s3.8-1.3,6-1.7s4.5-0.6,6.8-0.6
		s4.6,0.2,6.8,0.6c1.1,0.2,2.1,0.5,3.1,0.7c1,0.3,1.9,0.6,2.8,1c1.7,0.7,3.2,1.4,4.2,2.1c0.5,0.3,0.9,0.6,1.2,0.8
		c0.3,0.2,0.4,0.3,0.4,0.3s-0.1,0.1-0.4,0.3s-0.7,0.5-1.2,0.8c-1,0.6-2.5,1.4-4.2,2.1c-0.9,0.3-1.8,0.7-2.8,1s-2,0.5-3.1,0.7
		c-2.2,0.4-4.5,0.6-6.8,0.6s-4.6-0.2-6.8-0.6c-2.2-0.4-4.2-1-6-1.7c-1.7-0.7-3.2-1.4-4.2-2.1c-0.5-0.3-0.9-0.6-1.2-0.8
		C1459.2,182.5,1459.1,182.3,1459.1,182.3z"/>
	<path class="st1" d="M1530.9,196.7c0,0,0.2,0,0.5,0.1s0.8,0.1,1.4,0.3c1.2,0.3,2.7,0.8,4.4,1.5c1.7,0.7,3.6,1.8,5.4,3
		s3.6,2.7,5.3,4.4c1.6,1.6,3.1,3.4,4.4,5.3c0.6,0.9,1.2,1.8,1.7,2.7s0.9,1.8,1.3,2.7c0.7,1.7,1.2,3.3,1.5,4.4
		c0.1,0.6,0.2,1.1,0.3,1.4c0.1,0.3,0.1,0.5,0.1,0.5s-0.2,0-0.5-0.1s-0.8-0.1-1.4-0.3c-1.2-0.3-2.7-0.8-4.4-1.5
		c-0.8-0.4-1.8-0.8-2.7-1.3c-0.9-0.5-1.8-1.1-2.7-1.7c-1.8-1.2-3.6-2.8-5.3-4.4c-1.6-1.6-3.1-3.4-4.4-5.3c-1.3-1.8-2.3-3.7-3-5.4
		c-0.8-1.7-1.2-3.3-1.5-4.4c-0.1-0.6-0.2-1.1-0.3-1.4C1530.9,196.9,1530.9,196.7,1530.9,196.7z"/>
	<path class="st1" d="M1475.9,141.7c0,0,0.2,0,0.5,0.1s0.8,0.1,1.4,0.3c1.2,0.3,2.7,0.8,4.4,1.5c1.7,0.7,3.6,1.8,5.4,3
		s3.6,2.7,5.3,4.4c1.6,1.6,3.1,3.4,4.4,5.3c0.6,0.9,1.2,1.8,1.7,2.7s0.9,1.8,1.3,2.7c0.7,1.7,1.2,3.3,1.5,4.4
		c0.1,0.6,0.2,1.1,0.3,1.4c0.1,0.3,0.1,0.5,0.1,0.5s-0.2,0-0.5-0.1s-0.8-0.1-1.4-0.3c-1.2-0.3-2.7-0.8-4.4-1.5
		c-0.8-0.4-1.8-0.8-2.7-1.3c-0.9-0.5-1.8-1.1-2.7-1.7c-1.8-1.2-3.6-2.8-5.3-4.4c-1.6-1.6-3.1-3.4-4.4-5.3c-1.3-1.8-2.3-3.7-3-5.4
		c-0.8-1.7-1.2-3.3-1.5-4.4c-0.1-0.6-0.2-1.1-0.3-1.4C1475.9,141.9,1475.9,141.7,1475.9,141.7z"/>
	<path class="st1" d="M1516.6,202.7c0,0,0.1,0.1,0.3,0.4c0.2,0.3,0.5,0.7,0.8,1.2c0.6,1,1.4,2.5,2.1,4.2s1.3,3.8,1.7,6
		c0.4,2.2,0.6,4.5,0.6,6.8s-0.2,4.6-0.6,6.8c-0.2,1.1-0.5,2.1-0.7,3.1c-0.3,1-0.6,1.9-1,2.8c-0.7,1.7-1.4,3.2-2.1,4.2
		c-0.3,0.5-0.6,0.9-0.8,1.2c-0.2,0.3-0.3,0.4-0.3,0.4s-0.1-0.1-0.3-0.4c-0.2-0.3-0.5-0.7-0.8-1.2c-0.6-1-1.4-2.5-2.1-4.2
		c-0.3-0.9-0.7-1.8-1-2.8s-0.5-2.1-0.7-3.1c-0.4-2.2-0.6-4.5-0.6-6.8s0.2-4.6,0.6-6.8s1-4.2,1.7-6c0.7-1.7,1.4-3.2,2.1-4.2
		c0.3-0.5,0.6-0.9,0.8-1.2C1516.4,202.8,1516.6,202.7,1516.6,202.7z"/>
	<path class="st1" d="M1516.6,124.9c0,0,0.1,0.1,0.3,0.4c0.2,0.3,0.5,0.7,0.8,1.2c0.6,1,1.4,2.5,2.1,4.2s1.3,3.8,1.7,6
		c0.4,2.2,0.6,4.5,0.6,6.8s-0.2,4.6-0.6,6.8c-0.2,1.1-0.5,2.1-0.7,3.1c-0.3,1-0.6,1.9-1,2.8c-0.7,1.7-1.4,3.2-2.1,4.2
		c-0.3,0.5-0.6,0.9-0.8,1.2c-0.2,0.3-0.3,0.4-0.3,0.4s-0.1-0.1-0.3-0.4c-0.2-0.3-0.5-0.7-0.8-1.2c-0.6-1-1.4-2.5-2.1-4.2
		c-0.3-0.9-0.7-1.8-1-2.8s-0.5-2.1-0.7-3.1c-0.4-2.2-0.6-4.5-0.6-6.8s0.2-4.6,0.6-6.8s1-4.2,1.7-6c0.7-1.7,1.4-3.2,2.1-4.2
		c0.3-0.5,0.6-0.9,0.8-1.2C1516.4,125,1516.6,124.9,1516.6,124.9z"/>
	<path class="st1" d="M1502.2,196.7c0,0,0,0.2-0.1,0.5s-0.1,0.8-0.3,1.4c-0.3,1.2-0.8,2.7-1.5,4.4s-1.8,3.6-3,5.4s-2.7,3.6-4.4,5.3
		c-1.6,1.6-3.4,3.1-5.3,4.4c-0.9,0.6-1.8,1.2-2.7,1.7c-0.9,0.5-1.8,0.9-2.7,1.3c-1.7,0.7-3.3,1.2-4.4,1.5c-0.6,0.1-1.1,0.2-1.4,0.3
		s-0.5,0.1-0.5,0.1s0-0.2,0.1-0.5s0.1-0.8,0.3-1.4c0.3-1.2,0.8-2.7,1.5-4.4c0.4-0.8,0.8-1.8,1.3-2.7s1.1-1.8,1.7-2.7
		c1.2-1.8,2.8-3.6,4.4-5.3c1.6-1.6,3.4-3.1,5.3-4.4c1.8-1.3,3.7-2.3,5.4-3c1.7-0.8,3.3-1.2,4.4-1.5c0.6-0.1,1.1-0.2,1.4-0.3
		C1502,196.7,1502.2,196.7,1502.2,196.7z"/>
	<path class="st1" d="M1557.2,141.7c0,0,0,0.2-0.1,0.5s-0.1,0.8-0.3,1.4c-0.3,1.2-0.8,2.7-1.5,4.4s-1.8,3.6-3,5.4s-2.7,3.6-4.4,5.3
		c-1.6,1.6-3.4,3.1-5.3,4.4c-0.9,0.6-1.8,1.2-2.7,1.7c-0.9,0.5-1.8,0.9-2.7,1.3c-1.7,0.7-3.3,1.2-4.4,1.5c-0.6,0.1-1.1,0.2-1.4,0.3
		s-0.5,0.1-0.5,0.1s0-0.2,0.1-0.5s0.1-0.8,0.3-1.4c0.3-1.2,0.8-2.7,1.5-4.4c0.4-0.8,0.8-1.8,1.3-2.7s1.1-1.8,1.7-2.7
		c1.2-1.8,2.8-3.6,4.4-5.3c1.6-1.6,3.4-3.1,5.3-4.4c1.8-1.3,3.7-2.3,5.4-3c1.7-0.8,3.3-1.2,4.4-1.5c0.6-0.1,1.1-0.2,1.4-0.3
		C1557,141.7,1557.2,141.7,1557.2,141.7z"/>
</g>
<g>
	<path class="st1" d="M1354,742.3c0,0,0.8-0.7,2.3-1.8c1.6-1.1,3.9-2.7,7.1-4.4s7.2-3.6,12-5.2c4.8-1.6,10.5-2.9,16.8-3.6
		c6.3-0.6,13.3-0.4,20.6,0.9c7.2,1.4,14.8,3.8,21.9,7.5c1.8,0.9,3.6,1.8,5.3,2.9c0.8,0.5,1.7,1,2.6,1.5c0.8,0.5,1.7,1,2.5,1.5
		c1.7,1.1,3.3,2,4.9,2.9c1.6,1,3.3,1.8,5,2.8c6.8,3.6,13.9,6.8,21.2,9.5c7.3,2.7,14.8,4.9,22.2,6.5c1.9,0.3,3.7,0.8,5.6,1
		c1.9,0.3,3.7,0.6,5.6,0.8c0.9,0.1,1.8,0.2,2.8,0.3c0.9,0.1,1.8,0.1,2.8,0.2c1.8,0.2,3.6,0.2,5.5,0.3c7.2,0.2,14.2-0.3,20.7-1.5
		s12.6-3,18-5.2s10.2-4.7,14.4-7.2c1-0.6,2-1.3,2.9-1.9c0.9-0.6,1.9-1.2,2.7-1.8c1.7-1.3,3.3-2.3,4.7-3.5c1.4-1.1,2.6-2.1,3.7-3
		c1-0.9,1.9-1.7,2.6-2.3c1.4-1.3,2.2-1.9,2.2-1.9s-0.6,0.8-1.7,2.4c-0.6,0.8-1.2,1.7-2.1,2.9c-0.9,1.1-1.9,2.3-3.1,3.7
		s-2.6,2.8-4.1,4.4c-0.7,0.8-1.6,1.5-2.5,2.4c-0.9,0.8-1.7,1.7-2.7,2.5c-3.9,3.3-8.6,6.6-14.1,9.7c-5.5,3.1-11.9,5.8-19,7.7
		c-7,1.9-14.7,3.1-22.7,3.4c-2,0-4,0.1-6,0c-1,0-2-0.1-3-0.1c-1-0.1-2-0.1-3-0.2c-4.1-0.3-8.2-0.8-12.3-1.5
		c-8.2-1.4-16.3-3.8-24.2-6.7c-7.9-3-15.5-6.5-22.6-10.6c-1.8-1.1-3.6-2-5.3-3.1c-1.7-1.1-3.5-2.2-5.1-3.3c-0.8-0.5-1.6-1.1-2.4-1.6
		s-1.6-1-2.3-1.6c-1.5-1-3-2-4.6-2.9c-6.1-3.6-12.6-6.3-18.9-8.1c-0.8-0.3-1.6-0.4-2.4-0.6c-0.8-0.2-1.6-0.4-2.3-0.6
		c-1.6-0.3-3.1-0.6-4.6-0.8c-3.1-0.5-6.1-0.7-9-0.8c-5.8-0.1-11.2,0.3-15.9,1.1c-4.7,0.8-8.9,1.8-12.2,2.9c-3.3,1.1-5.9,2-7.7,2.8
		C1354.9,741.8,1354,742.3,1354,742.3z"/>
</g>
<g>
	<path class="st1" d="M1156.9,742.3c0,0-0.9-0.5-2.7-1.2c-1.7-0.8-4.3-1.7-7.7-2.8c-3.3-1.1-7.5-2.1-12.2-2.9
		c-4.7-0.8-10.1-1.3-15.9-1.1c-2.9,0.1-5.9,0.3-9,0.8c-1.5,0.2-3.1,0.5-4.6,0.8c-0.8,0.2-1.6,0.4-2.3,0.6c-0.8,0.2-1.6,0.4-2.4,0.6
		c-6.3,1.8-12.7,4.4-18.9,8.1c-1.5,0.9-3.1,1.8-4.6,2.9c-0.8,0.5-1.6,1-2.3,1.6c-0.8,0.5-1.6,1.1-2.4,1.6c-1.6,1.1-3.4,2.2-5.1,3.3
		c-1.8,1.1-3.5,2.1-5.3,3.1c-7.1,4.1-14.8,7.6-22.6,10.6c-7.9,2.9-16,5.3-24.2,6.7c-4.1,0.7-8.2,1.3-12.3,1.5c-1,0.1-2,0.1-3,0.2
		c-1,0-2,0.1-3,0.1c-2,0.1-4,0-6,0c-8-0.3-15.6-1.4-22.7-3.4c-7-1.9-13.4-4.6-19-7.7c-5.5-3.1-10.2-6.4-14.1-9.7
		c-1-0.8-1.9-1.7-2.7-2.5c-0.9-0.8-1.7-1.5-2.5-2.4c-1.5-1.6-2.9-3-4.1-4.4c-1.2-1.4-2.2-2.6-3.1-3.7c-0.8-1.1-1.5-2.1-2.1-2.9
		c-1.1-1.6-1.7-2.4-1.7-2.4s0.8,0.7,2.2,1.9c0.7,0.6,1.6,1.4,2.6,2.3c1.1,0.9,2.3,1.8,3.7,3c1.4,1.1,3,2.2,4.7,3.5
		c0.8,0.6,1.8,1.2,2.7,1.8c1,0.6,1.9,1.3,2.9,1.9c4.1,2.5,8.9,5,14.4,7.2c5.4,2.2,11.5,4,18,5.2s13.5,1.7,20.7,1.5
		c1.8-0.1,3.6-0.1,5.5-0.3c0.9-0.1,1.8-0.1,2.8-0.2c0.9-0.1,1.8-0.2,2.8-0.3c1.9-0.2,3.7-0.5,5.6-0.8c1.9-0.2,3.7-0.7,5.6-1
		c7.5-1.5,14.9-3.7,22.2-6.5c7.3-2.7,14.4-5.9,21.2-9.5c1.7-0.9,3.4-1.8,5-2.8c1.6-0.9,3.2-1.8,4.9-2.9c0.8-0.5,1.7-1,2.5-1.5
		c0.9-0.5,1.7-1,2.6-1.5c1.7-1.1,3.5-2,5.3-2.9c7.1-3.7,14.7-6.1,21.9-7.5c7.3-1.4,14.3-1.5,20.6-0.9c6.3,0.6,12,1.9,16.8,3.6
		c4.8,1.6,8.8,3.5,12,5.2s5.5,3.3,7.1,4.4C1156.1,741.6,1156.9,742.3,1156.9,742.3z"/>
</g>
<g>
	<path class="st1" d="M1142.7,723.6c0,0-0.6-0.4-1.8-1.1c-1.2-0.7-2.9-1.6-5.2-2.6c-2.2-1-5-2.1-8.2-3.1s-6.9-1.8-10.9-2.2
		c-2-0.2-4.1-0.3-6.2-0.3c-1.1,0-2.2,0.1-3.2,0.1c-1.1,0.1-2.2,0.2-3.3,0.4c-4.5,0.6-9.1,1.8-13.6,3.6c-1.1,0.5-2.3,0.9-3.4,1.5
		c-1.2,0.6-2.4,1.1-3.6,1.7c-1.2,0.6-2.6,1.2-4,1.8s-2.7,1.1-4.1,1.6c-5.5,2.1-11.3,3.7-17.2,4.9c-5.9,1.1-11.9,1.9-17.9,1.9
		c-3,0-6-0.1-8.9-0.4c-0.7-0.1-1.5-0.1-2.2-0.2c-0.7-0.1-1.4-0.2-2.2-0.3c-1.4-0.2-2.9-0.5-4.3-0.8c-5.6-1.2-10.9-2.9-15.6-5.2
		s-8.9-5-12.4-7.9s-6.3-5.9-8.6-8.7c-0.6-0.7-1.1-1.4-1.6-2.1c-0.5-0.7-1-1.3-1.4-2c-0.8-1.3-1.6-2.5-2.2-3.6s-1.1-2.1-1.6-3
		c-0.4-0.9-0.8-1.7-1-2.3c-0.5-1.2-0.8-1.9-0.8-1.9s0.5,0.5,1.4,1.5c0.5,0.5,1,1.1,1.6,1.8c0.7,0.7,1.5,1.5,2.3,2.4
		c0.9,0.9,1.9,1.8,3,2.8s2.3,2,3.6,3.1c2.6,2.1,5.7,4.3,9.3,6.2c3.5,2,7.5,3.8,11.9,5.2c4.3,1.4,9.1,2.5,14,3.1
		c1.2,0.1,2.5,0.3,3.7,0.4c0.6,0,1.3,0.1,1.9,0.1s1.3,0,1.9,0.1c1.3,0.1,2.6,0.1,3.9,0c1.3,0,2.6-0.1,3.9-0.1
		c5.3-0.3,10.6-0.9,15.9-2c5.3-1,10.5-2.4,15.6-4.1c1.2-0.4,2.5-0.9,3.7-1.3c1.2-0.5,2.4-0.9,3.7-1.4c1.3-0.5,2.6-1,3.9-1.5
		c1.4-0.6,2.8-1,4.1-1.4c5.5-1.8,11.2-2.5,16.5-2.6c5.3,0,10.3,0.8,14.7,2c4.4,1.3,8.2,2.9,11.4,4.7c3.2,1.8,5.7,3.6,7.7,5.3
		c2,1.6,3.4,3.1,4.3,4.1C1142.2,723,1142.7,723.6,1142.7,723.6z"/>
</g>
<g>
	<path class="st1" d="M1364.6,723.6c0,0,0.4-0.6,1.4-1.6c0.9-1,2.3-2.5,4.3-4.1s4.5-3.5,7.7-5.3s7-3.5,11.4-4.7s9.4-2,14.7-2
		c5.3,0.1,11,0.8,16.5,2.6c1.4,0.4,2.8,0.9,4.1,1.4c1.3,0.5,2.6,1,3.9,1.5s2.5,1,3.7,1.4c1.2,0.5,2.5,0.9,3.7,1.3
		c5.1,1.7,10.3,3.1,15.6,4.1c5.3,1.1,10.6,1.8,15.9,2c1.3,0,2.6,0.1,3.9,0.1s2.6,0,3.9,0c0.6,0,1.3,0,1.9-0.1c0.6,0,1.3-0.1,1.9-0.1
		c1.3-0.1,2.5-0.2,3.8-0.4c4.9-0.6,9.7-1.6,14-3.1c4.4-1.4,8.3-3.2,11.9-5.2c3.5-2,6.6-4.2,9.3-6.2c1.3-1.1,2.5-2.1,3.6-3.1
		s2.1-1.9,3-2.8c0.9-0.9,1.6-1.7,2.3-2.4c0.7-0.7,1.2-1.3,1.6-1.8c0.9-1,1.4-1.5,1.4-1.5s-0.3,0.7-0.8,1.9c-0.3,0.6-0.6,1.4-1,2.3
		c-0.4,0.9-1,1.9-1.6,3s-1.4,2.3-2.2,3.6c-0.4,0.7-0.9,1.3-1.4,2s-1,1.4-1.6,2.1c-2.3,2.8-5.1,5.8-8.6,8.7s-7.7,5.6-12.4,7.9
		c-4.7,2.3-10,4.1-15.6,5.2c-1.4,0.3-2.8,0.6-4.3,0.8c-0.7,0.1-1.4,0.2-2.2,0.3c-0.7,0.1-1.5,0.1-2.2,0.2c-2.9,0.3-5.9,0.4-8.9,0.4
		c-6,0-12-0.8-17.9-1.9c-5.9-1.2-11.7-2.8-17.2-4.9c-1.4-0.6-2.7-1-4.1-1.6s-2.8-1.2-4-1.8s-2.4-1.1-3.6-1.7c-1.1-0.6-2.3-1-3.4-1.5
		c-4.5-1.9-9.1-3-13.6-3.6c-1.1-0.2-2.2-0.3-3.3-0.4c-1.1,0-2.2-0.1-3.2-0.1c-2.1-0.1-4.2,0.1-6.2,0.3c-4,0.4-7.7,1.2-10.9,2.2
		c-3.2,1-6,2.1-8.2,3.1s-4,1.9-5.2,2.6C1365.2,723.2,1364.6,723.6,1364.6,723.6z"/>
</g>
<g>
	<path class="st1" d="M1478.9,788.3c0,0,0.3,0.1,1,0.4c0.6,0.2,1.6,0.6,2.7,1c1.2,0.4,2.6,0.9,4.2,1.4s3.5,1,5.5,1.6
		c2,0.5,4.2,1,6.5,1.5s4.7,0.9,7.2,1.3c1.3,0.2,2.5,0.3,3.8,0.5s2.6,0.2,3.9,0.4c2.6,0.1,5.3,0.3,8,0.2h2l2-0.1c1.3,0,2.7-0.2,4-0.3
		c0.7,0,1.3-0.1,2-0.2c0.7-0.1,1.3-0.1,2-0.2c1.3-0.1,2.6-0.4,3.8-0.5c2.5-0.4,4.9-0.8,7.2-1.3c0.6-0.1,1.1-0.2,1.7-0.3
		s1.1-0.3,1.6-0.4c1.1-0.3,2.1-0.5,3.1-0.8c2-0.6,3.9-1,5.5-1.6c1.6-0.5,3.1-0.9,4.3-1.3c1.2-0.4,2.1-0.7,2.8-0.9
		c0.7-0.2,1-0.3,1-0.3s-0.3,0.2-0.8,0.7c-0.5,0.4-1.3,1.1-2.3,1.9c-1,0.8-2.2,1.7-3.7,2.7s-3.2,2-5.1,3.1c-1,0.5-2,1-3.1,1.5
		c-0.5,0.3-1.1,0.5-1.6,0.8c-0.6,0.2-1.1,0.5-1.7,0.7c-2.3,1-4.9,1.8-7.5,2.5c-2.7,0.7-5.5,1.3-8.4,1.7c-1.4,0.2-2.9,0.4-4.4,0.5
		l-2.2,0.1c-0.7,0-1.5,0-2.2,0c-3,0-5.9-0.2-8.8-0.5c-2.9-0.4-5.7-0.9-8.4-1.6c-2.7-0.7-5.2-1.5-7.6-2.4s-4.5-1.9-6.5-3
		c-1.9-1.1-3.7-2.1-5.1-3.1c-1.5-1-2.7-2-3.7-2.8s-1.7-1.5-2.2-2C1479.1,788.6,1478.9,788.3,1478.9,788.3z"/>
</g>
<g>
	<path class="st1" d="M951.6,788.3c0,0,0.3,0.1,1,0.4c0.6,0.2,1.6,0.6,2.7,1c1.2,0.4,2.6,0.9,4.2,1.4s3.5,1,5.5,1.6
		c2,0.5,4.2,1,6.5,1.5s4.7,0.9,7.2,1.3c1.3,0.2,2.5,0.3,3.8,0.5s2.6,0.2,3.9,0.4c2.6,0.1,5.3,0.3,8,0.2h2l2-0.1c1.3,0,2.7-0.2,4-0.3
		c0.7,0,1.3-0.1,2-0.2c0.7-0.1,1.3-0.1,2-0.2c1.3-0.1,2.6-0.4,3.8-0.5c2.5-0.4,4.9-0.8,7.2-1.3c0.6-0.1,1.1-0.2,1.7-0.3
		s1.1-0.3,1.6-0.4c1.1-0.3,2.1-0.5,3.1-0.8c2-0.6,3.9-1,5.5-1.6c1.6-0.5,3.1-0.9,4.3-1.3c1.2-0.4,2.1-0.7,2.8-0.9
		c0.7-0.2,1-0.3,1-0.3s-0.3,0.2-0.8,0.7c-0.5,0.4-1.3,1.1-2.3,1.9c-1,0.8-2.2,1.7-3.7,2.7s-3.2,2-5.1,3.1c-1,0.5-2,1-3.1,1.5
		c-0.5,0.3-1.1,0.5-1.6,0.8c-0.6,0.2-1.1,0.5-1.7,0.7c-2.3,1-4.9,1.8-7.5,2.5c-2.7,0.7-5.5,1.3-8.4,1.7c-1.4,0.2-2.9,0.4-4.4,0.5
		l-2.2,0.1c-0.7,0-1.5,0-2.2,0c-3,0-5.9-0.2-8.8-0.5c-2.9-0.4-5.7-0.9-8.4-1.6c-2.7-0.7-5.2-1.5-7.6-2.4s-4.5-1.9-6.5-3
		c-1.9-1.1-3.7-2.1-5.1-3.1c-1.5-1-2.7-2-3.7-2.8s-1.7-1.5-2.2-2C951.9,788.6,951.6,788.3,951.6,788.3z"/>
</g>
<g>
	<path class="st4" d="M1775.3,299.5c-1.8-0.2-3.6-0.3-5.5-0.3c-0.5,0-1.1,0-1.6,0l0,0c-6.8,0.2-13.3,2-19.3,4.9
		c1.4,2.2,2.7,4.5,3.9,6.8c2.4-0.9,4.9-1.6,7.4-2.1c-2.5,0.4-5,1.1-7.4,2.1c-1.3-2.3-2.6-4.5-3.9-6.8c-11,5.4-20.3,15-26.5,27.1
		c-6.2-12.1-15.5-21.7-26.5-27.1c-6-3-12.5-4.7-19.3-4.9c-0.5,0-1.1,0-1.6,0c-1.8,0-3.7,0.1-5.5,0.3c-2,7-3.1,14.6-3.1,22.5
		c0,5.1,0.5,10.1,1.4,14.8c0.7,0,1.4-0.1,2.1-0.1c22.2,0,41.6,12.8,52.6,32.1c11-19.3,30.4-32.1,52.6-32.1c0.7,0,1.4,0.1,2.1,0.1
		c0.9-4.8,1.4-9.7,1.4-14.8C1778.4,314.1,1777.3,306.5,1775.3,299.5z M1673.4,308.6c0.3-1.3,0.7-2.7,1.1-4.1
		C1674.1,305.9,1673.7,307.3,1673.4,308.6z M1691.8,310.8c10.3,4.1,19.3,12.8,26,24.4C1711.1,323.6,1702.1,314.9,1691.8,310.8z
		 M1769.9,308.5c0.4,0,0.9,0.1,1.3,0.1l0,0C1770.8,308.5,1770.3,308.5,1769.9,308.5z"/>
	<g>
		<path class="st5" d="M1777,336.8c-5.2,28.5-24.9,50.4-49.2,53.2c-1.8,0.2-3.6,0.3-5.5,0.3c-1.8,0-3.7-0.1-5.5-0.3
			c-24.3-2.9-44.1-24.7-49.2-53.2c-0.9-4.8-1.4-9.7-1.4-14.8c0-7.9,1.1-15.4,3.1-22.5c1.8-0.2,3.6-0.3,5.5-0.3c0.5,0,1.1,0,1.6,0
			c11.9-30.3,45.9-72.3,45.9-72.3s34,41.9,45.9,72.3c0.5,0,1.1,0,1.6,0c1.8,0,3.7,0.1,5.5,0.3c2,7,3.1,14.6,3.1,22.5
			C1778.4,327,1777.9,332,1777,336.8z"/>
		<path class="st6" d="M1722.3,266.4c0,0,14.7,18.1,26.5,37.6c6-3,12.5-4.7,19.3-4.9c-11.9-30.3-45.9-72.3-45.9-72.3
			s-34,41.9-45.9,72.3c6.8,0.2,13.3,2,19.3,4.9C1707.6,284.6,1722.3,266.4,1722.3,266.4z"/>
		<path class="st7" d="M1722.3,331.2c6.2-12.1,15.5-21.7,26.5-27.1c-11.8-19.5-26.5-37.6-26.5-37.6s-14.7,18.1-26.5,37.6
			C1706.8,309.5,1716.1,319.1,1722.3,331.2z"/>
		<path class="st8" d="M1722.3,366.2c-10.5-18.4-29.1-30.7-50.4-30.7c-0.7,0-1.3,0.1-2,0.1c5,27.3,23.9,48.2,47.1,51
			c1.7,0.2,3.5,0.3,5.2,0.3c1.8,0,3.5-0.1,5.2-0.3c23.3-2.7,42.2-23.7,47.1-51c-0.7,0-1.3-0.1-2-0.1
			C1751.4,335.5,1732.8,347.7,1722.3,366.2z"/>
	</g>
</g>
</svg>
