<?xml version="1.0" encoding="utf-8"?>
<!-- Generator: Adobe Illustrator 19.2.1, SVG Export Plug-In . SVG Version: 6.00 Build 0)  -->
<svg version="1.1" id="Capa_1" xmlns="http://www.w3.org/2000/svg" xmlns:xlink="http://www.w3.org/1999/xlink" x="0px" y="0px"
	 viewBox="0 0 50 50" style="enable-background:new 0 0 50 50;" xml:space="preserve">
<style type="text/css">
	.st0{opacity:0.6;fill:#F0E9C7;}
</style>
<path class="st0" d="M25,2.5C12.6,2.5,2.5,12.6,2.5,25c0,12.4,10.1,22.5,22.5,22.5S47.5,37.4,47.5,25C47.5,12.6,37.4,2.5,25,2.5z
	 M32.6,43.3H17.7c-1.2,0-2.2-1-2.2-2.2c0-1.2,1-2.2,2.2-2.2h14.9c1.2,0,2.2,1,2.2,2.2C34.8,42.3,33.8,43.3,32.6,43.3z M35.3,23.1
	c-0.8,1-4.9,7.1-8.5,12.6c-0.4,0.6-1.1,0.9-1.8,0.9c-0.4,0-0.8-0.1-1.1-0.3c-0.4-0.3-0.7-0.7-0.8-1.1C19.5,29.8,15.5,24,14.7,23
	c-0.4-0.4-0.7-1-0.7-1.6c0-1.2,0.9-2.1,2.1-2.1c1.2,0,1.4,0,6.8,8.1V8.8c0-1.2,0.9-2.1,2.1-2.1s2.1,0.9,2.1,2.1v18.8
	c5.4-8.1,5.6-8.1,6.8-8.1c1.2,0,2.1,0.9,2.1,2.1C36,22.1,35.7,22.7,35.3,23.1z"/>
</svg>
