<?xml version="1.0" encoding="utf-8"?>
<!-- Generator: Adobe Illustrator 19.2.1, SVG Export Plug-In . SVG Version: 6.00 Build 0)  -->
<svg version="1.1" id="Layer_1" xmlns="http://www.w3.org/2000/svg" xmlns:xlink="http://www.w3.org/1999/xlink" x="0px" y="0px"
	 viewBox="0 0 278.2 282.8" style="enable-background:new 0 0 278.2 282.8;" xml:space="preserve">
<style type="text/css">
	.st0{fill:#1F1F1F;}
	.st1{fill:#252525;}
	.st2{fill:#1B1B1B;}
</style>
<g>
	<path class="st0" d="M197,209.7c1.2,1,2.4,2.2,3.5,3.5c-0.8-1.6-1.6-3.3-2.3-5C197.9,208.8,197.5,209.3,197,209.7z"/>
	<g>
		<path class="st1" d="M136.8,51.6c-5.5,3.3-8.7,9.8-8.1,16.2c0,0.3,0,0.6-0.2,0.8c1,2.4,1.8,4.9,2.4,7.1c2.5,8.4,4.5,17.4,4.9,26.2
			c0.6,0.5,1.2,1,1.7,1.6c0.1,0.1,0.1,0.2,0.2,0.3c0.2-0.1,0.4-0.3,0.6-0.4c0.1,0,0.1,0,0.2-0.1c0-0.1,0-0.2,0-0.4
			c1-3.9,4.1-5.7,7.4-5.8c0.8-10,2-19.9,5.6-29.4c0.4-1.1,1-2.4,1.7-3.8C151.6,56.5,146.4,45.8,136.8,51.6z"/>
		<path class="st1" d="M178.1,113c1.1,1.4,1.7,3.2,1.7,5.2c0.3,0.1,0.6,0.3,0.8,0.4c3.4-4,8-7.2,12-10.6c4.2-3.5,8.7-7.2,13.6-9.5
			c1.4-0.7,2.8-1.2,4.3-1.7c0,0,0-0.1,0.1-0.1c2.5-3.2,6-9.1,3.7-13.3c-3.6-6.7-12.8-4.6-17.4-0.2c-0.9,4.4-3.8,9.1-5.6,12
			C187.5,101.6,183,107.5,178.1,113z"/>
		<path class="st1" d="M213.2,99.4c-6.9,1.7-13,6.5-18.3,11c-3.9,3.3-8.4,6.4-11.8,10.3c1.1,1.3,1.7,2.9,1.6,4.7
			c0.2,0.2,0.5,0.3,0.7,0.5c0.2,0.1,0.5,0.2,0.7,0.4c0.7,0.6,1.2,1.2,1.6,1.8c8.2-2,18-3.5,26.7-1.7l0,0
			c5.5-3.2,16.4-12.6,13.4-20.3C225.7,100.6,218.7,98,213.2,99.4z"/>
		<path class="st1" d="M102.1,168.8c0,0,0.1,0,0.1-0.1s-0.1-0.2-0.1-0.3c-3.3,0.4-6.4-1-7.8-4.3c-0.2-0.5-0.3-1-0.4-1.5
			c-6.9,0.7-19.8,3.8-31.1,3.9c-0.1,0.2-0.2,0.4-0.4,0.6c-4.5,3.9-9.7,13.1-5.7,19c4.1,6,14.2,3.3,19.9,0.6
			C84.2,179.7,94.2,174.6,102.1,168.8z"/>
		<path class="st1" d="M213.9,184c-8-7.2-21-13.9-31.5-15.9c0,0,0,0-0.1,0l-0.1,0.1c-0.6,0.6-1.4,1.1-2.2,1.5
			c-0.3,1.4-0.8,2.8-1.5,4.1c5.3,4.6,10.2,10.1,14.3,15.8c1.6,2.3,4,5.5,5.4,8.8c4.2,2.5,10.3,3.6,15,2
			C221.7,197.3,219.2,188.8,213.9,184z"/>
		<path class="st1" d="M70.3,206.8c4.7,6.8,14,2.4,19.6-0.8c3.5-9.6,11.6-18.3,18.5-25.1c-1-1.9-1.3-4.3-0.8-7
			c-0.6-0.1-1.2-0.3-1.8-0.5c-0.9-0.4-1.7-1-2.3-1.8c-7.7,5.6-16.7,10.1-23.8,16.6c-0.1,0.3-0.3,0.7-0.7,0.9
			c-0.1,0.1-0.3,0.1-0.5,0.2c-1,1-2,2-2.9,3C73.1,195.4,67.2,202.3,70.3,206.8z"/>
		<path class="st1" d="M124.7,242.3c9.6-0.8,17.4-10.7,18.7-19.7c0-0.2,0.1-0.3,0.2-0.5c-2.7-10.3-2.4-22.7-3-31.2
			c-2.9,0.2-5.8-1.1-7.2-4.2c-0.2,0.1-0.5,0.2-0.8,0.3c-1.2,0.4-2.6,0.3-3.8-0.1c-2.4,8.5-6.5,16.6-11.1,24
			c-1.3,2.2-2.8,4.7-4.5,7.1c0,0.3,0,0.5-0.2,0.8C108.8,226.4,114.2,243.2,124.7,242.3z"/>
		<path class="st1" d="M156.5,64.9c-5.2,10.1-6.5,21.5-7.4,32.7c2.8,0.9,5.3,2.9,6,6c1.8-2.1,4.2-2.8,6.5-2.3
			c2.4-6.8,5.5-15.1,10.5-21.1c2-6.2,5.1-13.7,1.8-19.7C168.8,51.2,160,58,156.5,64.9z"/>
		<path class="st1" d="M102.2,130.3c-2.7-0.8-4.3-3.8-3.5-6.8c0.4-1.4,1.1-2.9,2-4.2c-7.2-5.1-13.5-11.7-21.3-16
			c-0.1,0-0.1-0.1-0.2-0.1c-2-1.1-4.1-2-6.4-2.7c-9.3-2.8-15.3,2.9-15.6,12.1c-0.2,8.2,4,13.8,10.3,18.5c10.7-1.2,22.4,0.4,29.9,2.5
			C98.7,132.2,100.4,131,102.2,130.3z"/>
		<path class="st1" d="M101.7,73.7c-4.1-4.9-11.4-7.1-17.1-5.2c-0.2,0.1-0.4,0.2-0.6,0.2c-3.2,1.2-5.8,3.8-6.9,7.9
			c-2.5,9,2.2,16,4.4,24.3c7.8,4.5,14,10.8,21.4,16c0.9-0.7,2-1.3,3.1-1.6c0.5-0.1,1,0,1.3,0.3c0.3,0,0.6,0,0.9,0.2
			c0.4,0.2,0.7,0.5,1,0.7c-2.2-3.7-0.8-8.4,2.3-11.3c0.1-0.2,0.3-0.4,0.5-0.6c0.5-0.3,0.9-0.6,1.4-0.9
			C107.8,94.8,102.3,84.5,101.7,73.7L101.7,73.7z"/>
		<path class="st1" d="M222.7,157.5c-10.7,4.9-27.5,2.2-37.7,3.4c0.1,1.5-0.1,3-0.7,4.3c8.5,1.8,18,6.5,25.2,11.3
			c2.6,1.8,5.8,4,8.3,6.7l0,0c14.6,2.9,18.7-21.8,5.1-25.5C222.8,157.6,222.8,157.5,222.7,157.5z"/>
		<path class="st1" d="M195.5,200.5c-3.5-9.2-11.3-17.7-18.8-24.2c-1.8,2-4.3,3.2-7.3,2.8h-0.1c-0.1,0-0.1,0-0.2,0
			c-0.8,0-1.7,0.1-2.5-0.2c-0.7,0.4-1.5,0.7-2.4,0.8c0,0.2-0.1,0.4-0.2,0.6c-0.5,0.9-1.2,1.7-2,2.6c0.1,0.2,0.3,0.4,0.3,0.7
			c1.1,5.3,6.1,19.7,19.7,24.9C188.3,210.7,198.9,209.4,195.5,200.5z"/>
	</g>
	<g>
		<path class="st0" d="M159.4,239.8c-7.2-1.5-11.5-6.2-14.1-12.4c-2.2,6.1-6.7,12.6-12.4,15.9c0,5.6,0.3,11.5,2.2,16.8
			c0.2,0.5,0.4,1,0.6,1.5c0.2,0.2,0.4,0.5,0.4,0.8c2.9,5.8,9.1,13.3,15.3,7.3C159.1,262.3,160.2,250,159.4,239.8z"/>
		<g>
			<path class="st0" d="M63.4,131.7c-5.3-5-9.3-12.2-9.5-19.3c-13.2-6.9-45.4-12.8-49.3,8c-3.2,17.1,29.4,21.2,40.5,21.7
				C48.8,136.4,55.6,133.2,63.4,131.7z"/>
			<path class="st0" d="M56.1,190.3c-0.6-0.5-1.1-1.1-1.6-1.8c-4.6-6.8-1.3-16.3,4-22c-7.1-0.5-12.9-2.5-15.3-7.8
				c-13.1,2.4-29,8.9-32.6,23.1c-3.7,14.3,6.8,27.7,21.5,27.8C38,200.9,46.7,194.7,56.1,190.3z"/>
			<path class="st0" d="M26,74.8c2.1,4.1,5.2,7.7,8.7,10.7c7.2,6.1,16.5,8.6,24,14.3c0.6-0.6,1.2-1.2,2-1.8c4.8-3.8,11.9-1.2,16.8,1
				c-1.9-6.1-4.8-13.3-4.5-19.7c-0.1-0.1-0.2-0.3-0.2-0.4c-2.4-7.4-11.7-12.2-18.2-15.5c-5.6-2.9-13.3-7.1-19.9-6.3
				C26.5,57.9,22.1,67.4,26,74.8z"/>
			<path class="st0" d="M210.1,253.8c4.2-8.2-0.7-19.2-4.9-26.5c-3.2-5.5-6-12-11.2-15.9c-4.6,1.8-11,0.9-14.7-0.7
				c-1.9-0.8-3.6-1.9-5.2-3.1c2.4,7.4,2.8,15.6,0.2,22.8c-0.2,0.6-0.5,1.2-0.8,1.8c1.7,6.6,6.1,12,11.3,16.4
				c1.3,1.1,3.2,2.7,5.3,4.2h0.1c0.4,0.1,0.8,0.4,1,0.7C197.6,258.3,205.9,262,210.1,253.8z"/>
			<path class="st0" d="M88.3,212.3c0.1-0.7,0.2-1.4,0.4-2c-4.6,2.3-10.6,4.5-15.3,2.9c-3.9,4.3-6.4,10.1-7.8,15.6
				c-1,4-3.4,15.5,3.2,16.7c9.6,1.8,18.9-11.8,23-18.9C88.8,222.9,87.8,216.3,88.3,212.3z"/>
			<path class="st0" d="M84.5,65.3c5.9-1.7,12.5-0.2,17.3,3.9c0.6-5,4.7-11.7,10.1-13.6c-1.3-9.3-2.8-19.7-7.3-27.9
				c-3.1-5.7-8.8-14.3-16.4-13.8c-10.6,0.7-16.7,13.9-15.7,23.3C73.7,47.5,78.2,57.2,84.5,65.3z"/>
			<path class="st0" d="M185.3,41.6c-3.7,5.7-6.1,12-8,18.5c0,0.1-0.1,0.2-0.1,0.2c1.7,5.4,1,10.4-0.5,15.6c0.6-0.4,1.3-0.9,1.9-1.2
				c4.5-2.4,11.9-3.8,16-0.1c7.6-6.2,13.6-19.5,15.2-30.3c-0.1-0.4-0.1-0.8,0.2-1.1c0.2-1.4,0.3-2.7,0.3-3.9
				C210.6,21.6,190.1,34.3,185.3,41.6z"/>
			<path class="st0" d="M268.5,157.1c-2.7-3.9-6.3-6.8-10.4-8.9c-7.8-4-17.3-5.2-25.9-4.8c0.1,1.7-0.2,3.5-0.9,5.2
				c-1.1,2.9-2.9,5.1-5.2,6.8c7.3,3.4,9.4,12,7.4,19.3c5.5,0.2,11.2,0.9,16.7,0.6c1.8-0.1,3.5-0.3,5.3-0.7
				C262.5,173.1,274.8,166,268.5,157.1z"/>
			<path class="st0" d="M256.4,214.6c-0.3-5.8-4.9-9.7-9.6-12.4c-1.1-0.7-2.4-1.4-3.6-2.1c-6.4-3.6-14.2-7.6-21.1-8
				c0.2,3.8-1.1,6.6-3.2,8.5c5.9,5.1,13.8,12,18.4,19.9c0.9,1.5,1.6,3.1,2.2,4.7C245.6,228.3,256.8,221.5,256.4,214.6z"/>
		</g>
	</g>
	<g>
		<path class="st0" d="M180.9,91.7c-3.6,6-6.7,12.3-10.6,18.1c0.3,0.4,0.7,0.7,0.9,1.2l0,0c0.6-0.2,1.2-0.2,1.8-0.3
			c3-5.8,6.2-11.5,9.6-17c3.3-5.4,7.8-9.9,10.7-15.6c-0.5-0.9-1.3-1.6-2.3-2C188.2,81.7,184.1,86.4,180.9,91.7z"/>
		<path class="st0" d="M175.9,92.1c-2.8,4.9-5,10.2-7.9,15c0.1,0.3,0.2,0.6,0.2,0.9c0,0.2,0,0.3,0,0.5c0.3,0.1,0.5,0.2,0.7,0.3
			c3.9-5.8,6.8-12.1,10.5-18c3.2-5.1,7.2-9.7,9.9-15.1c-0.9-0.1-1.9-0.1-3,0C183.1,81.3,179.2,86.5,175.9,92.1z"/>
		<path class="st0" d="M193.8,80.4c-3.1,5.4-7.5,9.9-10.5,15.2c-2.9,5.1-5.9,10.1-8.6,15.3c0.3,0.1,0.6,0.2,0.8,0.3
			c6.9-7.6,16.3-18.3,18.1-28.7C193.8,81.7,193.9,81,193.8,80.4z"/>
		<path class="st0" d="M210.6,129.3c-7.3-0.7-14.8,0.1-22,1.9c0,0.6-0.1,1.3-0.2,1.9C195.8,132.4,203.4,131.5,210.6,129.3z"/>
		<path class="st0" d="M214.3,129.8h-0.1c-8.4,3.1-17.5,4.1-26.4,4.9c-0.1,0.1-0.2,0.3-0.3,0.4c-0.2,0.3-0.3,0.5-0.5,0.8
			c-0.2,0.2-0.4,0.5-0.5,0.7c0,0.1,0,0.3,0,0.4c0,0.3-0.1,0.5-0.1,0.8c12.1-2.5,24.4-3.9,36.8-3.7
			C220.5,131.9,217.3,130.4,214.3,129.8z"/>
		<path class="st0" d="M184,157.2c0.1,0.2,0.2,0.4,0.3,0.6c3.5-0.5,7.1-0.5,10.6-0.5c-3.1-0.7-6.3-1.2-9.5-1.2
			C185,156.5,184.5,156.8,184,157.2z"/>
		<path class="st0" d="M230.2,103.9c5.4-3.2,14.6-9.4,20.5-16.4c-7.3,4.8-14.9,9-21.3,14.9C229.7,102.9,230,103.4,230.2,103.9z"/>
		<path class="st0" d="M204.8,152.3c5.6,0.7,11.2,1.3,16.9,2c0,0,0,0,0.1,0c1.4-0.7,2.6-1.5,3.7-2.5c0.6-0.6,1.1-1.1,1.5-1.7
			c-5.6,0.3-11.1-0.9-16.7-1.1c-7.1-0.3-14.5-0.1-21.6,0.2c-0.1,0.7-0.2,1.3-0.4,2C193.6,152.3,199.4,151.7,204.8,152.3z"/>
		<path class="st0" d="M200.7,157.2c0.3,0,0.6,0,0.9,0c4.9-0.2,11.4-0.1,16.9-1.7c-5-0.6-10.1-1.1-15.1-1.8
			c-5.2-0.6-10.6,0-15.7-1.1c-0.3,0.6-0.6,1.3-1,1.8C191.4,154.7,196.2,155.8,200.7,157.2z"/>
		<path class="st0" d="M188.7,147.6c7.1-0.3,14.5-0.7,21.6-0.2c5.9,0.4,11.8,1.7,17.7,1.1c0.3-0.6,0.6-1.3,0.7-1.9
			c-13.2-2.2-26.8-1.7-40,0C188.7,146.8,188.7,147.2,188.7,147.6z"/>
		<path class="st0" d="M185.9,139.4v0.1c0.7,0.7,1.2,1.6,1.7,2.5c13.3-3.6,27.2,0.2,40.7-1.6c-0.7-1.7-1.8-3.4-3.3-4.8
			c-13.1-0.3-26.1,1.1-38.9,3.8C186,139.5,186,139.4,185.9,139.4z"/>
		<path class="st0" d="M188.5,144.9c13.4-1.7,27.1-2.2,40.5,0c0.1-1,0-2-0.3-2.9c-13.5,1.9-27.3-1.9-40.5,1.6
			C188.3,144,188.4,144.4,188.5,144.9z"/>
		<path class="st0" d="M215.6,202.7c2.4,4.5,6.2,8.2,9.4,12.1c3.2,3.8,6.6,7.3,10.5,10.3c-4-9.5-11.7-15.9-19.3-22.6
			C215.9,202.6,215.7,202.6,215.6,202.7z"/>
		<path class="st0" d="M167,103.7c-0.1,0.3-0.4,0.4-0.6,0.4c0.4,0.4,0.7,0.8,0.9,1.3c2.9-5,5-10.4,8.1-15.3c2.9-4.7,6.1-9.1,9-13.8
			c-0.9,0.2-1.7,0.5-2.6,0.9C175.7,85.2,171.1,94.4,167,103.7z"/>
		<path class="st0" d="M59.5,192.2c-7.2,3.1-14.3,7.2-19.7,12.9c6.9-5,14.8-8.7,22.6-12.3C61.4,192.7,60.4,192.5,59.5,192.2z"/>
		<path class="st0" d="M129.3,78.8c0.6,7.1,0.9,14.2,2.3,21.2c0.3,0.1,0.6,0.1,1,0.2C132.2,93.8,131.3,86,129.3,78.8z"/>
		<path class="st0" d="M91.8,211c5.9-9.4,12.2-18.4,19.4-26.8c-0.3-0.2-0.6-0.4-0.9-0.7C102.8,190.9,94.1,200.3,91.8,211
			C91.8,210.9,91.8,211,91.8,211z"/>
		<path class="st0" d="M69.2,35.8c0-0.8,0-1.7,0.1-2.5c-0.1-0.1-0.2-0.2-0.3-0.3c-1.2-1.8-2.8-3-4.7-3.8c0.4,0.6,0.8,1.2,1.2,1.7
			C66.6,32.5,67.8,34.3,69.2,35.8z"/>
		<path class="st0" d="M16,104.8L16,104.8c1-0.3,2.1-0.6,3.1-0.9c-2.9-1-5.7-2.5-8.2-4.3C11.9,101.7,13.5,103.5,16,104.8z"/>
		<path class="st0" d="M34.6,103.3c7,0.8,13.9,3,19.4,5.7c0-0.3,0.1-0.6,0.2-0.8c-0.1,0-0.3,0-0.4-0.1c-7.1-3.3-14.9-4.8-22-8
			c-7-3.2-14-6.6-21.5-8.6l0,0c-0.1,0.7-0.3,1.4-0.3,2C17.7,97.7,26.5,99.7,34.6,103.3z"/>
		<path class="st0" d="M10.6,89.9C10.6,89.9,10.7,89.9,10.6,89.9c7.7,2.1,14.8,5.6,22,8.8c7.2,3.2,14.9,4.7,22,8
			c0.2-0.7,0.5-1.5,0.8-2.2c-8-4.7-16.5-8.6-25.4-11.3c-3.7-1.1-7.5-2.4-11.2-3.5c-2.4-0.7-4.9-1.5-6.8-3.2
			C11.5,87.6,11,88.7,10.6,89.9z"/>
		<path class="st0" d="M13,85.2L13,85.2c2.7,2.6,7.2,3.3,10.6,4.4c4.1,1.3,8.2,2.4,12.3,3.9c7,2.6,13.8,5.9,20.3,9.7
			c0.2-0.3,0.4-0.6,0.6-0.9C50,97.2,41.9,94.2,35,89.5c-6.7-2.2-13.7-3.6-20.2-6.2C14.1,83.8,13.5,84.4,13,85.2z"/>
		<path class="st0" d="M67,206.7c-0.2-0.4-0.3-0.9-0.4-1.3c-6.5,3.6-12.8,7.5-18.8,11.9c-3.5,2.5-6.9,5.2-10.1,8
			c-1.4,1.3-2.9,2.5-4.2,3.9c-0.2,0.2-0.6,0.6-0.9,1c0.2,0.3,0.5,0.5,0.7,0.8l0,0c6.3-3,11-8.1,16.5-12.3
			C55.3,214.4,61.2,210.6,67,206.7z"/>
		<path class="st0" d="M38.8,222.3c2.7-2.2,5.4-4.4,8.3-6.4c6.2-4.5,12.7-8.5,19.4-12.3c0-0.8,0.2-1.6,0.4-2.5
			c-12.7,7.3-27.1,13.7-35.8,26c0.2,0.6,0.4,1.2,0.8,1.8c1-0.9,1.9-2.2,2.7-2.9C35.9,224.8,37.3,223.5,38.8,222.3z"/>
		<path class="st0" d="M71.3,192.6c0.2-0.3,0.4-0.5,0.6-0.8c-1.9,0.5-3.9,0.9-5.9,1c-10.9,5.1-22,9.8-30.9,18.1
			c-1.4,2.1-2.6,4.5-3.5,6.9c4.5-4.9,10.2-8.3,15.7-12C55,200.8,64,198.2,71.3,192.6z"/>
		<path class="st0" d="M67.2,199.1c0.1-0.1,0.3-0.1,0.4-0.1c0.4-1,1-2,1.5-3c-5.7,3.5-12.1,5.8-17.9,9.3
			c-7.3,4.4-15.5,9.2-20.5,16.2c-0.2,1.2-0.3,2.4-0.1,3.5C39.8,212.9,54.4,206.6,67.2,199.1z"/>
		<path class="st0" d="M21.8,79.6c1.5,0.6,3,1.2,4.5,1.7c-0.4-0.5-0.7-1-1-1.5c0,0-0.1-0.1-0.1-0.2C24,79.5,22.8,79.4,21.8,79.6z"/>
		<path class="st0" d="M78,68.9c0.3-0.3,0.7-0.6,1.1-0.9c0.1-0.1,0.2-0.1,0.3-0.2c-4.6-6.4-10.6-11.6-15.7-17.7
			c-4.9-5.9-9.7-11.9-14.8-17.7c-0.3,0.3-0.7,0.6-1,1c-0.1,0.1-0.2,0.3-0.3,0.4c4.9,5.6,8.7,11.9,13.4,17.7
			C66.3,57.7,72.4,63,78,68.9z"/>
		<path class="st0" d="M80.8,66.9c0.2-0.1,0.4-0.3,0.7-0.4c-3-4-6-8.7-8.2-13.7c-6.8-7.7-14.6-14.6-20.9-22.7
			c-0.7,0.4-1.4,0.8-2.1,1.2c5.6,6.6,10.7,13.7,16.6,20C71.6,56.4,76.7,61.3,80.8,66.9z"/>
		<path class="st0" d="M76.9,70C71.3,64.1,65,58.9,60,52.6c-4.5-5.7-8.4-11.9-13.2-17.4c-0.3,0.4-0.5,0.8-0.7,1.3
			c7.5,13.5,19.3,23.8,29.7,35C76.1,70.9,76.5,70.4,76.9,70z"/>
		<path class="st0" d="M69.2,38c-0.1,0-0.1,0-0.2-0.1c-1.6-1.4-2.8-3.2-4-4.9c-1-1.4-2.2-3.5-3.7-4.5c-1.2-0.1-2.4-0.1-3.7,0
			c3.2,5,7.6,9.1,12,13C69.5,40.4,69.3,39.2,69.2,38z"/>
		<path class="st0" d="M70.2,44.1C65,39.5,59.6,34.8,56,28.9c-0.7,0.2-1.4,0.4-2.1,0.6c5.4,6.9,11.8,12.8,17.7,19.2
			C71,47.2,70.6,45.7,70.2,44.1z"/>
		<path class="st0" d="M74.1,74.3c0.2-0.5,0.4-1,0.7-1.5C64.6,61.6,52.9,51.4,45.2,38.2c-0.3,0.7-0.5,1.4-0.7,2.2
			c6,8.6,11.8,17.5,19.6,24.6C68,67.5,71.8,70.5,74.1,74.3z"/>
		<path class="st0" d="M16.1,82c4.9,1.9,10.1,3.2,15.2,4.6c-1.1-0.9-2.1-1.9-3.1-3c-3.1-1-6.1-2.2-9.1-3.3C18,80.7,17,81.3,16.1,82z
			"/>
		<path class="st0" d="M67.7,208.1c-6.3,4.2-12.9,8.3-18.7,13.2c-4.6,3.8-9,8-14.4,10.7c1,0.7,2.1,1.2,3.3,1.5l0,0
			c8.5-9.7,19.6-17.6,30.6-24.2C68.2,208.9,67.9,208.6,67.7,208.1z"/>
		<path class="st0" d="M47,55.9c0.1,0.1,0.2,0.3,0.3,0.5c1.2,0.5,2.4,1,3.6,1.5c-2.8-3.5-5-7.5-7.2-11.4
			C43.7,50.1,44.7,53.6,47,55.9z"/>
		<path class="st0" d="M58.7,61.9c-5.5-6-10.1-12.7-14.7-19.4c-0.1,0.4-0.1,0.8-0.2,1.2c3.3,5.7,6.2,11.7,11,16.2
			C56.1,60.5,57.4,61.2,58.7,61.9z"/>
		<path class="st0" d="M22.5,103.3c2.3-0.3,4.7-0.4,7.1-0.3c-6.6-2.5-13.4-4.4-19.7-7.7c0,0.6,0.1,1.2,0.2,1.7
			C13.8,100,17.9,102.1,22.5,103.3z"/>
		<path class="st0" d="M62.5,226.9c-0.9,0.6-1.9,1.2-2.8,1.9c-1.1,0.7-3.6,2-5,3.5c3-0.8,6.1-1.9,7.1-2.9
			C62,228.5,62.2,227.7,62.5,226.9z"/>
		<path class="st0" d="M204.9,219.4c2.8,4.5,5,9.4,6.6,13.7c1.1,2.7,2.1,5.6,2.7,8.6c1.5,1,3.3,1.9,5.2,2.6
			c-4-6.2-6.8-13.3-10.4-19.8c-3.6-6.6-6.7-13.4-9.5-20.4c0,0.8-0.1,1.6-0.4,2.4c0,0.1,0.1,0.1,0.1,0.2c1.5,4.3,4,8.1,5.5,12.4
			C204.9,219.1,204.9,219.3,204.9,219.4z"/>
		<path class="st0" d="M131.6,265.5c0.4-0.9,0.8-1.8,1.2-2.8c-0.4-1.1-0.8-2.2-1.1-3.3C131.7,261.4,131.7,263.4,131.6,265.5z"/>
		<path class="st0" d="M107,261.4c0,2.3,0.4,5.1,1.3,7.7c1-4.2,1.5-8.4,2.4-12.6C109.5,258.2,108.3,259.8,107,261.4z"/>
		<path class="st0" d="M130.5,254.1c-0.5-3.1-0.7-6.2-0.8-9.4c-0.2,0.1-0.3,0.1-0.5,0.1c-0.7,5.3-0.3,10.5-0.6,15.8
			c-0.2,3.5-0.7,7-0.7,10.5c0.6-0.8,1.2-1.6,1.7-2.4v-0.1C130.5,263.8,129.8,259,130.5,254.1z"/>
		<path class="st0" d="M69.6,210.6c-10.7,6.4-21.5,14-29.9,23.4c1.1,0.2,2.2,0.2,3.3,0.2l0.1-0.1c8.7-5.9,17.4-11.9,25-19.1
			c0.8-1.3,1.7-2.4,2.5-3.4C70.3,211.2,69.9,210.9,69.6,210.6z"/>
		<path class="st0" d="M48.1,233.8c0.9-0.2,2.5-0.5,4.3-0.9c0.8-1.5,2.6-2.7,3.8-3.7c2.3-1.7,4.9-3.1,7.1-4.9
			c0.6-1.6,1.3-3.3,2.1-4.8c-6.1,5.3-12.8,10-19.6,14.6C46.7,234,47.4,233.9,48.1,233.8z"/>
		<path class="st0" d="M113.1,252.7c-1.6,6.2-2.1,12.6-3.8,18.8c0.6,1.2,1.3,2.2,2.1,3.1c0.5-8.2,1.8-16.4,3.3-24.5
			C114.2,251,113.7,251.8,113.1,252.7z"/>
		<path class="st0" d="M123.4,245.5c-1.8,5.3-1.2,10.9-1.9,16.4c-0.6,5.1-1.7,10.1-2.2,15.2c0.3-0.1,0.6-0.1,0.9-0.2
			c0.7-0.2,1.4-0.6,2.1-0.9c1.1-10.1,1.4-20.3,2.3-30.4C124.2,245.5,123.8,245.5,123.4,245.5z"/>
		<path class="st0" d="M127.6,245.3c-0.5,0.1-1,0.2-1.5,0.2c-0.8,9.8-1.1,19.6-2.2,29.4c0.9-0.6,1.7-1.3,2.4-2
			c-0.4-5,0.7-10,0.7-14.9C127.1,253.7,127.1,249.5,127.6,245.3z"/>
		<path class="st0" d="M118.2,243.8c-0.3,0.7-0.7,1.4-1.1,2.2c-1.8,10-3.6,20-4.1,30.1c0.3,0.2,0.6,0.4,0.9,0.5
			c1.8-10.8,4.3-21.5,5.1-32.4C118.7,244,118.4,243.9,118.2,243.8z"/>
		<path class="st0" d="M121.8,245.2c-0.5-0.1-0.9-0.2-1.4-0.4c-0.9,10.9-3.4,21.5-5.1,32.3c0.7,0.2,1.5,0.3,2.4,0.2
			c0.6-6,2.2-11.9,2.5-18C120.4,254.6,120.3,249.7,121.8,245.2z"/>
		<path class="st0" d="M68.5,146c8.5-0.2,17.1-0.8,25.4,0.7c0.2-0.8,0.5-1.5,1-2.3c-4.5-0.5-8.9-1.7-13.5-1.7
			c-4.6-0.1-9.2,0.1-13.8,0.2c-6.9,0.1-15-0.4-21.3,3c-0.5,1.1-0.8,2.3-1,3.6C52.7,147.2,60.7,146.3,68.5,146z"/>
		<path class="st0" d="M51.8,161.9c7.9,0.2,15.6-2,23.4-3.1c6.6-0.9,13.2-0.6,19.6-2.5c0.3-0.5,0.6-1,0.9-1.5
			c-0.4-0.4-0.7-0.7-0.9-1.2c-8.3,0.3-16.4,2.5-24.7,3.3c-7.6,0.8-15.1,0.8-22.5,2.5c1,1.1,2.2,1.9,3.7,2.6
			C51.5,162,51.6,161.9,51.8,161.9z"/>
		<path class="st0" d="M174.6,82.7c-0.1,0.3-0.3,0.5-0.5,0.6c-4.4,5.7-7.2,12.5-9.6,19.2c0.3,0.2,0.7,0.5,1,0.8c0-0.1,0-0.3,0.1-0.5
			c3.7-8.3,7.8-16.6,13-24.1c-0.8,0.5-1.4,1.1-2,1.6C175.9,81.1,175.3,81.9,174.6,82.7z"/>
		<path class="st0" d="M101.9,203.4c3.9-6,8.8-11.3,12-17.7c-0.4-0.2-0.9-0.4-1.3-0.6c-7.9,9.2-14.8,19.2-21.1,29.5c0,0,0,0-0.1,0.1
			c-0.1,1.7,0,3.6,0.4,5.3C95,214.3,98.4,208.8,101.9,203.4z"/>
		<path class="st0" d="M66.7,150.6c9-0.7,17.9-2.5,26.9-0.8c0-0.5,0-1,0-1.4c-8.6-1.6-17.7-1.1-26.4-0.6c-7.5,0.4-15,1.2-22.1,3.7
			c0,0.6,0,1.3,0.1,1.9C52,150.5,59.5,151.2,66.7,150.6z"/>
		<path class="st0" d="M94.1,158.2c-6.5,1.6-13.1,1.4-19.7,2.4c-6.1,1-12.3,2.4-18.5,2.8c11.7,2,29.8-3,37.9-3.9
			C93.9,159.1,94,158.6,94.1,158.2z"/>
		<path class="st0" d="M146.5,222c0.5,1.7,1.1,3.2,1.8,4.7c-0.4-12.7-1.1-25.3-2.6-37.9c-0.6,0.5-1.3,0.9-2,1.2
			c0.6,8.5-0.2,21.5,2.8,31.8C146.4,221.9,146.5,222,146.5,222z"/>
		<path class="st0" d="M105.2,222.1c4.4-12.6,10.3-24.5,16.7-36.1c-0.7,0.2-1.5,0.4-2.3,0.4c-1.3,3.2-3.6,5.8-5.4,8.9
			c-1.9,3.3-3.6,6.7-5.6,9.9c-4.2,6.8-8.6,13.6-12.2,20.8c0.1,0,0.3,0.1,0.4,0.1C100.1,226.6,103,224.3,105.2,222.1z"/>
		<path class="st0" d="M95,225.3c3.4-6.8,7.5-13.3,11.5-19.8c2-3.2,3.7-6.6,5.7-9.9c1.8-3.1,4.3-5.9,5.7-9.2c-0.9,0-1.7-0.1-2.5-0.3
			c-3,6.2-7.6,11.2-11.4,16.9c-4.1,6.2-8,12.5-11.6,19C93,223.4,93.8,224.6,95,225.3z"/>
		<path class="st0" d="M126,185.3c-0.3-0.2-0.6-0.5-0.8-0.8c-0.3,0.2-0.6,0.3-0.9,0.5c0,0,0,0,0,0.1c-6.1,11-11.8,22.1-16.2,33.9
			c8-9.3,14.4-21.5,17.7-33.1C125.7,185.7,125.8,185.5,126,185.3z"/>
		<path class="st0" d="M122.6,63.9c1.9,12,1.3,24.6,6.3,35.9c0.3,0,0.7,0,1,0c-1.9-9.4-1.6-19.1-3.2-28.5
			C125.6,68.6,124.2,66.1,122.6,63.9z"/>
		<path class="st0" d="M112.4,59.2c2.4,7.2,2.2,14.8,3.7,22.2c1.5,7.3,4.8,14,7.4,21c0.3-0.4,0.7-0.7,1.1-1
			c-8.5-12.5-6-28.5-9.1-42.7C114.4,58.5,113.3,58.7,112.4,59.2z"/>
		<path class="st0" d="M47.5,143.6c5.9-2.4,12.9-2.1,19.1-2.2c4.9-0.1,9.9-0.4,14.8-0.2c5,0.1,9.7,1.4,14.6,1.8
			c0.1-0.1,0.2-0.2,0.3-0.3c-0.3-0.7-0.6-1.3-0.7-2c-13.8-2.5-27.8-3.5-41.8-2.5C51.2,139.5,49,141.3,47.5,143.6z"/>
		<path class="st0" d="M153.8,233.8c-1.8-7-1.9-14.3-2.6-21.5c-0.9-8.8-1.2-17.4-1-26.2c-0.5-0.4-1-0.8-1.5-1.4
			c-0.3,1-0.8,2-1.5,2.8c1.7,14,2.4,28.1,2.8,42.3C151,231.3,152.3,232.7,153.8,233.8z"/>
		<path class="st0" d="M117.2,59.1c2.8,13.8,0.5,29.3,8.7,41.4c0.5-0.2,0.9-0.4,1.4-0.5c-5.2-12.2-4.2-25.7-6.8-38.5
			C119.4,60.3,118.3,59.5,117.2,59.1z"/>
		<path class="st0" d="M58.2,136.3c12.4-0.5,24.9,0.5,37.1,2.7c0-0.9,0.1-1.7,0.4-2.6C86.8,134.1,70,132.5,58.2,136.3z"/>
		<path class="st0" d="M105.2,76.8c1.9,9.4,6.3,17.9,11.3,25.9c0.7-0.1,1.4-0.2,2.1-0.2c-2.7-6.2-6.2-12.1-8.2-18.5
			c-1.9-6-2.6-12.3-3.5-18.5C105.3,69,104.5,73.4,105.2,76.8z"/>
		<path class="st0" d="M108.2,63.2L108.2,63.2c1.2,7.3,1.7,14.8,4.3,21.7c2.3,6.1,5.5,11.9,8,18c0.6,0.2,1.2,0.5,1.8,0.9
			c-2.7-7.8-6.7-15.1-7.9-23.3c-1-6.8-1.2-13.8-3.3-20.4C109.9,60.8,109,61.9,108.2,63.2z"/>
		<path class="st0" d="M46.7,158.1c7.8-1.9,15.6-1.8,23.5-2.7c8-0.9,15.9-2.8,23.9-3.2c-0.1-0.2-0.2-0.5-0.2-0.7
			c-9.2-1.8-18,0.3-27.2,0.8c-7.1,0.4-14.7-0.2-21.3,2.7C45.7,156.1,46.1,157.2,46.7,158.1z"/>
		<path class="st0" d="M171.4,17.2c-1.8,6.1-3.3,12.4-4.8,18.6c-1.4,5.8-2.2,11.8-3.9,17.6c0.7-0.3,1.4-0.6,2.2-0.7
			c2-6.9,4.2-13.9,5.4-21c0.4-2.6,1-5.9,1.2-9.3c-0.1-0.4-0.1-0.8,0.1-1.2C171.6,19.8,171.6,18.5,171.4,17.2z"/>
		<path class="st0" d="M169.3,11.1c-0.5-0.7-1.1-1.3-1.7-1.8c-3,7.6-2.6,15.9-4.4,23.7c-1.9,8.2-3.6,16.7-5.9,24.8
			c1.1-1.3,2.2-2.4,3.5-3.3c2-6.3,2.8-12.8,4.4-19.2c1.8-7.1,3.4-14.3,5.6-21.4C170.4,12.9,169.9,11.9,169.3,11.1z"/>
		<path class="st0" d="M163.2,7.7c-2.1,9-4.6,17.9-5.9,27.1c-0.9,6.8-2,13.5-3.8,20.1c0.7,1.3,1.3,2.8,1.8,4.3
			c1.4-4.6,2.4-9.3,3.4-14c1-4.6,2.5-9.2,3.3-13.9c1.3-7.7,1.4-15.7,4.3-22.9C165.3,7.9,164.3,7.7,163.2,7.7z"/>
		<path class="st0" d="M143.1,47.3c0.7,0.1,1.3,0.2,1.9,0.4c1.1-10.7,2.1-21.4,4.9-31.8c-2.1,2.5-3.7,5.2-4.4,7.2
			C143.1,31,142.7,39.1,143.1,47.3z"/>
		<path class="st0" d="M150.2,50.6c0.8,0.7,1.5,1.5,2.1,2.4c1.8-7.1,2.6-14.2,3.8-21.5c1.3-8,3.5-15.8,5.4-23.7
			c-0.8,0.2-1.6,0.4-2.5,0.8c-4.4,4.9-4.9,12.9-6,19.1C151.8,35.3,151.1,42.9,150.2,50.6z"/>
		<path class="st0" d="M148.8,49.4c0.9-8,1.8-16,3.1-24c0.8-4.8,1.5-10.5,4-14.9c-1.2,0.8-2.3,1.8-3.4,2.8
			c-3.5,11.3-4.6,23.1-5.8,34.9C147.4,48.5,148.1,48.9,148.8,49.4z"/>
		<path class="st0" d="M218.2,85.7c8.3-7,16.7-14,24.6-21.5c-9.1,1.6-19.2,13.1-25.3,18.4C217.9,83.6,218.1,84.6,218.2,85.7z"/>
		<path class="st0" d="M171.2,229.7c-3.5-5.9-5.2-12.7-7.4-19.2c-2.7-8-4.4-16.1-6.6-24.2c-0.6,0.2-1.2,0.5-1.9,0.6
			c1.7,16.7,4.7,33.1,8.8,49.4C167.2,235.3,169.7,232.9,171.2,229.7z"/>
		<path class="st0" d="M172.7,223.7c0.5-7.4-0.8-14.5-4.1-21.1c-4.4-5-7.5-11.2-9-17.6c-0.3,0.2-0.6,0.4-0.9,0.6
			c2.1,7.8,3.7,15.7,6.3,23.4c2.1,6.3,3.7,13,6.9,18.9C172.4,226.5,172.7,225.2,172.7,223.7z"/>
		<path class="st0" d="M234.3,78.4c-5.6,5-11.6,9.7-17.6,14.3c-0.5,1.2-1.1,2.3-1.7,3.3c0.8-0.1,1.6-0.1,2.4-0.1
			c10.8-10.4,24-17.9,34.7-28.3c0.1-0.1,0.2-0.1,0.3-0.2c-0.5-0.5-0.9-0.9-1.4-1.3C244.7,69.1,239.5,73.8,234.3,78.4z"/>
		<path class="st0" d="M222.2,96.9c5-5.1,11.1-8.8,16.9-13c5.4-3.9,10.5-8.3,16.2-11.9c-0.3-0.8-0.7-1.6-1.2-2.4
			c-0.2-0.3-0.5-0.7-0.7-1c0,0.1-0.1,0.1-0.1,0.2c-10.4,10.1-23.2,17.4-33.7,27.3C220.4,96.3,221.3,96.6,222.2,96.9z"/>
		<path class="st0" d="M217.7,89.9c5.9-4.6,11.7-9.3,17.3-14.2c4.5-4,9.1-7.9,14.5-10.6c-1.3-0.7-2.7-1.1-4.2-1.2
			c-8.6,8.4-18,16.1-27.2,23.8C218,88.5,217.9,89.3,217.7,89.9z"/>
		<path class="st0" d="M228.4,101.1c7.6-6.8,16.7-11.4,25-17.4c1-1.6,1.8-3.3,2.2-5c-10.3,5.8-19.8,13-28.6,20.9
			C227.5,100.2,228,100.7,228.4,101.1z"/>
		<path class="st0" d="M223.7,97.5c0.3,0.2,0.6,0.3,0.9,0.5c0.4,0.2,0.7,0.5,1.1,0.7c9.3-8.3,19.3-16,30.2-22
			c0.1-1.1,0.1-2.1-0.2-3.1c-5.5,3.5-10.5,7.9-15.9,11.6C234.3,89.2,228.5,92.8,223.7,97.5z"/>
		<path class="st0" d="M155.9,235.2c2.3,1.2,4.6,1.6,6.7,1.4c-4.1-16.3-7.1-32.8-8.8-49.5c-0.7,0-1.4,0-2.1-0.2
			c-0.1,8.6,0.2,17,1,25.5C153.5,220,153.6,227.7,155.9,235.2L155.9,235.2z"/>
		<path class="st0" d="M269.7,178.9c-3.8-0.2-7.7-2.2-11.5-1.6c-0.3,0-0.5,0-0.7-0.2c-2.6,0.5-5.3,0.8-8,0.9
			c7.2,1,14.5,1.8,21.5,3.9C270.7,180.8,270.3,179.8,269.7,178.9z"/>
		<path class="st0" d="M264.2,175.1c-0.6,0.3-1.3,0.5-2,0.8c2,0.4,4.1,1,6.1,1.3C267.2,176.1,265.9,175.4,264.2,175.1z"/>
		<g>
			<path class="st0" d="M271.3,190.8c0.2-1,0.3-2.1,0.3-3.2c-7.8-1-15.5-3.8-23.3-5.7c-5.7-1.4-11.5-2.3-17.4-1.5
				c-0.3,0.4-0.6,0.9-1,1.3c5.7,1.6,11.5,2.7,17.3,3.9C255.4,187.2,263.4,188.6,271.3,190.8z"/>
			<path class="st0" d="M271.7,186.1c0-0.8-0.1-1.6-0.2-2.4c-7.3-2.3-14.8-3.1-22.4-4.2c-2.1-0.3-4.2-0.6-6.2-1
				c-0.3-0.1-0.4-0.2-0.5-0.4c-3.7-0.1-7.1-0.2-9.8-0.3c-0.1,0.3-0.3,0.6-0.5,0.9c5.7-0.5,11.3,0.4,16.8,1.8
				C256.4,182.4,263.9,185.1,271.7,186.1z"/>
			<path class="st0" d="M247.6,191.2c-0.6-0.2-1.2-0.3-1.7-0.5c-7.1-2.1-14.1-4.6-21.5-4.9c-1.2,0.5-2.6,0.7-4.1,0.8
				c0.1,0.1,0.2,0.3,0.2,0.4c4.8,1.2,9.7,1.7,14.6,2.7c3.5,0.8,6.9,1.8,10.2,2.9c0.3,0.1,0.7,0.2,1,0.3c5.1,1.6,12.9,3.5,16.1,8.4
				c1.9-0.7,3.6-1.7,5-3C261.5,194.7,254.2,193.1,247.6,191.2z"/>
			<path class="st0" d="M246.9,187.1c-6.1-1.2-12.1-2.4-18.1-4.1c-0.5,0.5-1.1,1-1.7,1.4c6.6,0.7,12.9,2.9,19.2,4.8
				c0.9,0.3,1.8,0.5,2.7,0.8c6.6,1.9,13.7,3.5,19.6,7.1c1.1-1.3,1.9-2.8,2.4-4.6C263.1,190.2,255,188.7,246.9,187.1z"/>
			<path class="st0" d="M244.9,194.1c-0.6-0.2-1.1-0.3-1.6-0.5c-4.3-1.3-8.7-2.2-13.1-3c4.8,1.7,9.5,4.2,13.8,6.4c0,0,0,0,0.1,0
				c3,1.5,6.4,3.3,9.3,5.7c2.6,0,5.2-0.2,7.6-0.9C257.7,197.4,250.2,195.6,244.9,194.1z"/>
		</g>
		<g>
			<path class="st0" d="M219.3,224.2c-4.3-6.7-7.5-14.1-12.6-20.3c-0.7,0-1.5-0.1-2.2-0.2c7.6,14.1,13,29.9,24.2,41.7
				c0.5-0.1,1-0.2,1.5-0.4c1.3-0.5,2.5-1.2,3.5-2.3c0,0,0,0,0.1-0.1c-0.8-0.7-1.5-1.4-2.2-2.2C226.9,235.5,223,229.9,219.3,224.2z"
				/>
			<path class="st0" d="M202.5,203.3c-0.6-0.1-1.2-0.3-1.8-0.5c3.2,8,6.8,15.8,11,23.2c3.6,6.2,6,13,10,18.9c1.7,0.4,3.3,0.7,5,0.6
				C215.7,233.5,210.4,217.5,202.5,203.3z"/>
			<path class="st0" d="M237.2,234.5c0.2-2.2-0.1-4.5-0.7-6.7c-0.3-0.2-0.7-0.5-1-0.7c-4.6-3.4-8.5-7.6-12.3-12
				c-3.2-3.7-6.8-7.4-9.1-11.8c-0.4,0.1-0.8,0.2-1.2,0.3c6.8,9.6,12.6,20.2,21.2,28.2C235,232.7,236.1,233.6,237.2,234.5z"/>
			<path class="st0" d="M236.9,236.2c-1.2-0.9-2.3-1.8-3.4-2.8c-9.2-8.3-15.2-19.5-22.5-29.6c-0.7,0.1-1.5,0.2-2.2,0.2
				c4.3,5.7,7.3,12.3,11.2,18.4c3.7,5.7,7.4,11.3,12,16.2c0.9,0.9,1.8,1.8,2.7,2.7C235.8,239.8,236.5,238,236.9,236.2z"/>
		</g>
	</g>
	<g>
		<path class="st2" d="M8.6,135.7c-14.5,8.8-8,27.7,6.4,32.8c7.2-7,18-11.1,27.3-12.8c-0.3-1.6-0.3-3.4-0.1-5.5
			c0.2-1.8,0.7-3.5,1.3-5C35.2,144.6,18.5,142.1,8.6,135.7z"/>
		<path class="st2" d="M189,256.1c-1-0.7-2-1.5-2.9-2.2c-6.3-5-12.1-10.8-14.9-18.3c-2.3,2.5-5.4,4.3-8.7,4.5
			c0.5,7.7-0.1,18.9-4.4,26.5c2.7,7.9,14.4,22.1,22.9,13.4c3.4-3.4,5.1-8.2,6.2-12.8C187.4,266.4,188.7,257.2,189,256.1z"/>
		<path class="st2" d="M108.3,223.8c-2.6,2.6-5.6,4.7-9,5.5c-2,0.4-3.6,0.2-5-0.5c-3.4,5.8-7.4,11.1-12.7,15.2
			c0.1,0.3,0.2,0.7,0.1,1.1c-2.9,8.9,0.7,30.9,14.8,21.4c8.2-5.5,14.6-15.8,19.1-24.4C110.6,237.7,107.8,230.4,108.3,223.8z"/>
		<path class="st2" d="M175.1,56.3c2.7-8.7,6.6-18.2,14.2-23.5c0.4-0.3,0.9-0.6,1.3-0.9c0.3-3.9-0.3-8.7-3.1-11.5
			c-3.8-3.7-9.5-3.1-12.4,0.9c0,10.7-4.5,23.7-6.9,31.2C171,52.9,173.4,54.2,175.1,56.3z"/>
		<path class="st2" d="M196.8,77c-0.1,0.1-0.1,0.1-0.2,0.1c0.3,0.6,0.5,1.3,0.6,1.9c5.7-3.8,13.7-4.4,18.6,0.9
			c4-3.6,10.1-9.7,16.6-14.1c-0.1-0.4-0.1-0.8,0.2-1.3c10-13-6.8-30.4-19.6-19.8c-0.8,3.5-2,6.9-2.9,9.4
			C207.2,62.2,203.7,71.4,196.8,77z"/>
		<path class="st2" d="M105.9,23.3c5.4,9.9,7.8,23.6,9,31.9c0.8,0,1.7,0.2,2.6,0.5c3.6,1.3,6.2,4,8.2,7.3
			c1.2-7.1,6.1-14.5,13.3-15.6c0.3,0,0.6-0.1,0.9-0.1c-0.5-8.8-0.1-18.3,3.3-26.6c-0.2-0.3-0.3-0.7-0.2-1.1c1.7-9.5-8.6-22-19-19.1
			c-10,2.9-16.8,12.3-18,22.5C106,23.1,106,23.2,105.9,23.3z"/>
		<path class="st2" d="M275.8,92.2c-0.3-0.5-0.7-1-1.2-1.5c-4.7-5.1-14.5-6.7-20.1-2.6c-0.2,0.2-0.5,0.3-0.7,0.3
			c-5.9,8-16,14.8-22.7,18.7c0.4,3.6-1.1,7.4-3.4,11c9.6-3,19.8-4.6,29.7-5.8c2.7-0.4,5.9-0.6,9.1-0.3c0.9-0.6,1.8-1.2,2.7-2
			C274.3,105.6,279.7,98.2,275.8,92.2z"/>
		<path class="st2" d="M267.5,115.4c-0.2,0-0.3-0.1-0.5-0.1c-0.6,0.3-1.1,0.2-1.5-0.1c-0.1,0-0.1,0-0.2,0
			c-13.1-0.5-28.6,2.9-40.8,7.4c-0.1,0-0.2,0.1-0.4,0.1c-1.8,1.9-3.7,3.6-5.6,4.9c0.6,0.2,1.1,0.4,1.7,0.7c5,2.2,9.9,6.7,11.5,12.1
			c9.1-0.6,19.2,0.6,27.3,4.8c0.2,0.1,0.4,0.2,0.6,0.3c0.1,0,0.1,0.1,0.2,0.1c6-2.5,14.2-5.6,17.1-11.7
			C280.8,125.2,276,116.9,267.5,115.4z"/>
		<circle class="st2" cx="140.9" cy="146.2" r="53.2"/>
	</g>
</g>
</svg>
