<?xml version="1.0" encoding="utf-8"?>
<!-- Generator: Adobe Illustrator 19.2.1, SVG Export Plug-In . SVG Version: 6.00 Build 0)  -->
<svg version="1.1" id="Layer_1" xmlns="http://www.w3.org/2000/svg" xmlns:xlink="http://www.w3.org/1999/xlink" x="0px" y="0px"
	 viewBox="0 0 278.2 282.8" style="enable-background:new 0 0 278.2 282.8;" xml:space="preserve">
<style type="text/css">
	.st0{fill:#ED7123;}
	.st1{fill:#FD78DE;}
	.st2{fill:#FC4FD4;}
	.st3{fill:#FF48D6;}
	.st4{fill:#FC39CE;}
</style>
<g>
	<path class="st0" d="M196.6,209.6c1.2,1,2.4,2.2,3.5,3.5c-0.8-1.6-1.6-3.3-2.3-5C197.4,208.7,197,209.2,196.6,209.6z"/>
	<g>
		<path class="st1" d="M136.4,51.5c-5.5,3.3-8.7,9.8-8.1,16.2c0,0.3,0,0.6-0.2,0.8c1,2.4,1.8,4.9,2.4,7.1c2.5,8.4,4.5,17.4,4.9,26.2
			c0.6,0.5,1.2,1,1.7,1.6c0.1,0.1,0.1,0.2,0.2,0.3c0.2-0.1,0.4-0.3,0.6-0.4c0.1,0,0.1,0,0.2-0.1c0-0.1,0-0.2,0-0.4
			c1-3.9,4.1-5.7,7.4-5.8c0.8-10,2-19.9,5.6-29.4c0.4-1.1,1-2.4,1.7-3.8C151.2,56.4,145.9,45.7,136.4,51.5z"/>
		<path class="st1" d="M177.6,112.9c1.1,1.4,1.7,3.2,1.7,5.2c0.3,0.1,0.6,0.3,0.8,0.4c3.4-4,8-7.2,12-10.6c4.2-3.5,8.7-7.2,13.6-9.5
			c1.4-0.7,2.8-1.2,4.3-1.7c0,0,0-0.1,0.1-0.1c2.5-3.2,6-9.1,3.7-13.3c-3.6-6.7-12.8-4.6-17.4-0.2c-0.9,4.4-3.8,9.1-5.6,12
			C187.1,101.5,182.6,107.4,177.6,112.9z"/>
		<path class="st1" d="M212.7,99.3c-6.9,1.7-13,6.5-18.3,11c-3.9,3.3-8.4,6.4-11.8,10.3c1.1,1.3,1.7,2.9,1.6,4.7
			c0.2,0.2,0.5,0.3,0.7,0.5c0.2,0.1,0.5,0.2,0.7,0.4c0.7,0.6,1.2,1.2,1.6,1.8c8.2-2,18-3.5,26.7-1.7c0,0,0,0,0,0
			c5.5-3.2,16.4-12.6,13.4-20.3C225.2,100.5,218.3,97.9,212.7,99.3z"/>
		<path class="st1" d="M101.7,168.7c0,0,0.1,0,0.1-0.1c0-0.1-0.1-0.2-0.1-0.3c-3.3,0.4-6.4-1-7.8-4.3c-0.2-0.5-0.3-1-0.4-1.5
			c-6.9,0.7-19.8,3.8-31.1,3.9c-0.1,0.2-0.2,0.4-0.4,0.6c-4.5,3.9-9.7,13.1-5.7,19c4.1,6,14.2,3.3,19.9,0.6
			C83.8,179.6,93.7,174.5,101.7,168.7z"/>
		<path class="st1" d="M213.5,183.8c-8-7.2-21-13.9-31.5-15.9c0,0,0,0-0.1,0c0,0-0.1,0.1-0.1,0.1c-0.6,0.6-1.4,1.1-2.2,1.5
			c-0.3,1.4-0.8,2.8-1.5,4.1c5.3,4.6,10.2,10.1,14.3,15.8c1.6,2.3,4,5.5,5.4,8.8c4.2,2.5,10.3,3.6,15,2
			C221.3,197.2,218.8,188.7,213.5,183.8z"/>
		<path class="st1" d="M69.8,206.7c4.7,6.8,14,2.4,19.6-0.8c3.5-9.6,11.6-18.3,18.5-25.1c-1-1.9-1.3-4.3-0.8-7
			c-0.6-0.1-1.2-0.3-1.8-0.5c-0.9-0.4-1.7-1-2.3-1.8c-7.7,5.6-16.7,10.1-23.8,16.6c-0.1,0.3-0.3,0.7-0.7,0.9
			c-0.1,0.1-0.3,0.1-0.5,0.2c-1,1-2,2-2.9,3C72.6,195.3,66.8,202.2,69.8,206.7z"/>
		<path class="st1" d="M124.2,242.2c9.6-0.8,17.4-10.7,18.7-19.7c0-0.2,0.1-0.3,0.2-0.5c-2.7-10.3-2.4-22.7-3-31.2
			c-2.9,0.2-5.8-1.1-7.2-4.2c-0.2,0.1-0.5,0.2-0.8,0.3c-1.2,0.4-2.6,0.3-3.8-0.1c-2.4,8.5-6.5,16.6-11.1,24
			c-1.3,2.2-2.8,4.7-4.5,7.1c0,0.3,0,0.5-0.2,0.8C108.3,226.3,113.7,243.1,124.2,242.2z"/>
		<path class="st1" d="M156,64.8c-5.2,10.1-6.5,21.5-7.4,32.7c2.8,0.9,5.3,2.9,6,6c1.8-2.1,4.2-2.8,6.5-2.3
			c2.4-6.8,5.5-15.1,10.5-21.1c2-6.2,5.1-13.7,1.8-19.7C168.4,51.1,159.6,57.9,156,64.8z"/>
		<path class="st1" d="M101.7,130.1c-2.7-0.8-4.3-3.8-3.5-6.8c0.4-1.4,1.1-2.9,2-4.2c-7.2-5.1-13.5-11.7-21.3-16
			c-0.1,0-0.1-0.1-0.2-0.1c-2-1.1-4.1-2-6.4-2.7c-9.3-2.8-15.3,2.9-15.6,12.1c-0.2,8.2,4,13.8,10.3,18.5c10.7-1.2,22.4,0.4,29.9,2.5
			C98.3,132.1,99.9,130.9,101.7,130.1z"/>
		<path class="st1" d="M101.2,73.6c-4.1-4.9-11.4-7.1-17.1-5.2c-0.2,0.1-0.4,0.2-0.6,0.2c-3.2,1.2-5.8,3.8-6.9,7.9
			c-2.5,9,2.2,16,4.4,24.3c7.8,4.5,14,10.8,21.4,16c0.9-0.7,2-1.3,3.1-1.6c0.5-0.1,1,0,1.3,0.3c0.3,0,0.6,0,0.9,0.2
			c0.4,0.2,0.7,0.5,1,0.7c-2.2-3.7-0.8-8.4,2.3-11.3c0.1-0.2,0.3-0.4,0.5-0.6c0.5-0.3,0.9-0.6,1.4-0.9
			C107.4,94.7,101.8,84.4,101.2,73.6C101.3,73.6,101.2,73.6,101.2,73.6z"/>
		<path class="st1" d="M222.2,157.4c-10.7,4.9-27.5,2.2-37.7,3.4c0.1,1.5-0.1,3-0.7,4.3c8.5,1.8,18,6.5,25.2,11.3
			c2.6,1.8,5.8,4,8.3,6.7c0,0,0,0,0,0c14.6,2.9,18.7-21.8,5.1-25.5C222.4,157.5,222.3,157.4,222.2,157.4z"/>
		<path class="st1" d="M195.1,200.4c-3.5-9.2-11.3-17.7-18.8-24.2c-1.8,2-4.3,3.2-7.3,2.8c0,0-0.1,0-0.1,0c-0.1,0-0.1,0-0.2,0
			c-0.8,0-1.7,0.1-2.5-0.2c-0.7,0.4-1.5,0.7-2.4,0.8c0,0.2-0.1,0.4-0.2,0.6c-0.5,0.9-1.2,1.7-2,2.6c0.1,0.2,0.3,0.4,0.3,0.7
			c1.1,5.3,6.1,19.7,19.7,24.9C187.8,210.6,198.5,209.3,195.1,200.4z"/>
	</g>
	<g>
		<path class="st2" d="M158.9,239.7c-7.2-1.5-11.5-6.2-14.1-12.4c-2.2,6.1-6.7,12.6-12.4,15.9c0,5.6,0.3,11.5,2.2,16.8
			c0.2,0.5,0.4,1,0.6,1.5c0.2,0.2,0.4,0.5,0.4,0.8c2.9,5.8,9.1,13.3,15.3,7.3C158.6,262.2,159.7,249.9,158.9,239.7z"/>
		<g>
			<path class="st2" d="M62.9,131.6c-5.3-5-9.3-12.2-9.5-19.3c-13.2-6.9-45.4-12.8-49.3,8c-3.2,17.1,29.4,21.2,40.5,21.7
				C48.3,136.3,55.1,133.1,62.9,131.6z"/>
			<path class="st2" d="M55.6,190.2c-0.6-0.5-1.1-1.1-1.6-1.8c-4.6-6.8-1.3-16.3,4-22c-7.1-0.5-12.9-2.5-15.3-7.8
				c-13.1,2.4-29,8.9-32.6,23.1C6.6,196,17,209.4,31.7,209.5C37.6,200.8,46.2,194.5,55.6,190.2z"/>
			<path class="st2" d="M25.5,74.7c2.1,4.1,5.2,7.7,8.7,10.7c7.2,6.1,16.5,8.6,24,14.3c0.6-0.6,1.2-1.2,2-1.8
				c4.8-3.8,11.9-1.2,16.8,1c-1.9-6.1-4.8-13.3-4.5-19.7c-0.1-0.1-0.2-0.3-0.2-0.4C70,71.4,60.7,66.5,54.2,63.2
				c-5.6-2.9-13.3-7.1-19.9-6.3C26.1,57.8,21.6,67.3,25.5,74.7z"/>
			<path class="st2" d="M209.7,253.7c4.2-8.2-0.7-19.2-4.9-26.5c-3.2-5.5-6-12-11.1-15.9c-4.6,1.8-11,0.9-14.7-0.7
				c-1.9-0.8-3.6-1.9-5.2-3.1c2.4,7.4,2.8,15.6,0.2,22.8c-0.2,0.6-0.5,1.2-0.8,1.8c1.7,6.6,6.1,12,11.3,16.4
				c1.3,1.1,3.2,2.7,5.3,4.2l0.1,0c0.4,0.1,0.8,0.4,1,0.7C197.1,258.2,205.5,261.9,209.7,253.7z"/>
			<path class="st2" d="M87.9,212.2c0.1-0.7,0.2-1.4,0.4-2c-4.6,2.3-10.6,4.5-15.3,2.9c-3.9,4.3-6.4,10.1-7.8,15.6
				c-1,4-3.4,15.5,3.2,16.7c9.6,1.8,18.9-11.8,23-18.9C88.3,222.8,87.4,216.2,87.9,212.2z"/>
			<path class="st2" d="M84,65.2c5.9-1.7,12.5-0.2,17.3,3.9c0.6-5,4.7-11.7,10.1-13.6c-1.3-9.3-2.8-19.7-7.3-27.9
				c-3.1-5.7-8.8-14.3-16.4-13.8C77.2,14.5,71,27.8,72.1,37.1C73.2,47.4,77.7,57.1,84,65.2z"/>
			<path class="st2" d="M184.9,41.5c-3.7,5.7-6.1,12-8,18.5c0,0.1-0.1,0.2-0.1,0.2c1.7,5.4,1,10.4-0.5,15.6c0.6-0.4,1.3-0.9,1.9-1.2
				c4.5-2.4,11.9-3.8,16-0.1c7.6-6.2,13.6-19.5,15.2-30.3c-0.1-0.4-0.1-0.8,0.2-1.1c0.2-1.4,0.3-2.7,0.3-3.9
				C210.2,21.5,189.6,34.2,184.9,41.5z"/>
			<path class="st2" d="M268,157c-2.7-3.9-6.3-6.8-10.4-8.9c-7.8-4-17.3-5.2-25.9-4.8c0.1,1.7-0.2,3.5-0.9,5.2
				c-1.1,2.9-2.9,5.1-5.2,6.8c7.3,3.4,9.4,12,7.4,19.3c5.5,0.2,11.2,0.9,16.7,0.6c1.8-0.1,3.5-0.3,5.3-0.7
				C262,173,274.4,165.9,268,157z"/>
			<path class="st2" d="M256,214.4c-0.3-5.8-4.9-9.7-9.6-12.4c-1.1-0.7-2.4-1.4-3.6-2.1c-6.4-3.6-14.2-7.6-21.1-8
				c0.2,3.8-1.1,6.6-3.2,8.5c5.9,5.1,13.8,12,18.4,19.9c0.9,1.5,1.6,3.1,2.2,4.7C245.2,228.2,256.3,221.4,256,214.4z"/>
		</g>
	</g>
	<g>
		<path class="st3" d="M180.4,91.6c-3.6,6-6.7,12.3-10.6,18.1c0.3,0.4,0.7,0.7,0.9,1.2c0,0,0,0,0,0c0.6-0.2,1.2-0.2,1.8-0.3
			c3-5.8,6.2-11.5,9.6-17c3.3-5.4,7.8-9.9,10.7-15.6c-0.5-0.9-1.3-1.6-2.3-2C187.8,81.6,183.6,86.3,180.4,91.6z"/>
		<path class="st3" d="M175.5,92c-2.8,4.9-5,10.2-7.9,15c0.1,0.3,0.2,0.6,0.2,0.9c0,0.2,0,0.3,0,0.5c0.3,0.1,0.5,0.2,0.7,0.3
			c3.9-5.8,6.8-12.1,10.5-18c3.2-5.1,7.2-9.7,9.9-15.1c-0.9-0.1-1.9-0.1-3,0C182.7,81.2,178.7,86.4,175.5,92z"/>
		<path class="st3" d="M193.4,80.3c-3.1,5.4-7.5,9.9-10.5,15.2c-2.9,5.1-5.9,10.1-8.6,15.3c0.3,0.1,0.6,0.2,0.8,0.3
			c6.9-7.6,16.3-18.3,18.1-28.7C193.4,81.5,193.4,80.9,193.4,80.3z"/>
		<path class="st3" d="M210.1,129.2c-7.3-0.7-14.8,0.1-22,1.9c0,0.6-0.1,1.3-0.2,1.9C195.4,132.2,202.9,131.4,210.1,129.2z"/>
		<path class="st3" d="M213.8,129.7c0,0-0.1,0-0.1,0c-8.4,3.1-17.5,4.1-26.4,4.9c-0.1,0.1-0.2,0.3-0.3,0.4c-0.2,0.3-0.3,0.5-0.5,0.8
			c-0.2,0.2-0.4,0.5-0.5,0.7c0,0.1,0,0.3,0,0.4c0,0.3-0.1,0.5-0.1,0.8c12.1-2.5,24.4-3.9,36.8-3.7
			C220.1,131.8,216.9,130.3,213.8,129.7z"/>
		<path class="st3" d="M183.5,157.1c0.1,0.2,0.2,0.4,0.3,0.6c3.5-0.5,7.1-0.5,10.6-0.5c-3.1-0.7-6.3-1.2-9.5-1.2
			C184.5,156.4,184,156.7,183.5,157.1z"/>
		<path class="st3" d="M229.8,103.8c5.4-3.2,14.6-9.4,20.5-16.4c-7.3,4.8-14.9,9-21.3,14.9C229.2,102.8,229.5,103.3,229.8,103.8z"/>
		<path class="st3" d="M204.4,152.2c5.6,0.7,11.2,1.3,16.9,2c0,0,0,0,0.1,0c1.4-0.7,2.6-1.5,3.7-2.5c0.6-0.6,1.1-1.1,1.5-1.7
			c-5.6,0.3-11.1-0.9-16.7-1.1c-7.1-0.3-14.5-0.1-21.6,0.2c-0.1,0.7-0.2,1.3-0.4,2C193.1,152.2,198.9,151.5,204.4,152.2z"/>
		<path class="st3" d="M200.2,157.1c0.3,0,0.6,0,0.9,0c4.9-0.2,11.4-0.1,16.9-1.7c-5-0.6-10.1-1.1-15.1-1.8
			c-5.2-0.6-10.6,0-15.7-1.1c-0.3,0.6-0.6,1.3-1,1.8C191,154.6,195.7,155.7,200.2,157.1z"/>
		<path class="st3" d="M188.3,147.5c7.1-0.3,14.5-0.7,21.6-0.2c5.9,0.4,11.8,1.7,17.7,1.1c0.3-0.6,0.6-1.3,0.7-1.9
			c-13.2-2.2-26.8-1.7-40,0C188.3,146.7,188.3,147.1,188.3,147.5z"/>
		<path class="st3" d="M185.4,139.3c0,0,0,0.1,0,0.1c0.7,0.7,1.2,1.6,1.7,2.5c13.3-3.6,27.2,0.2,40.7-1.6c-0.7-1.7-1.8-3.4-3.3-4.8
			c-13.1-0.3-26.1,1.1-38.9,3.8C185.5,139.4,185.5,139.3,185.4,139.3z"/>
		<path class="st3" d="M188,144.8c13.4-1.7,27.1-2.2,40.5,0c0.1-1,0-2-0.3-2.9c-13.5,1.9-27.3-1.9-40.5,1.6
			C187.8,143.9,187.9,144.3,188,144.8z"/>
		<path class="st3" d="M215.1,202.6c2.4,4.5,6.2,8.2,9.4,12.1c3.2,3.8,6.6,7.3,10.5,10.3c-4-9.5-11.7-15.9-19.3-22.6
			C215.5,202.4,215.3,202.5,215.1,202.6z"/>
		<path class="st3" d="M166.5,103.6c-0.1,0.3-0.4,0.4-0.6,0.4c0.4,0.4,0.7,0.8,0.9,1.3c2.9-5,5-10.4,8.1-15.3
			c2.9-4.7,6.1-9.1,9-13.8c-0.9,0.2-1.7,0.5-2.6,0.9C175.2,85.1,170.6,94.3,166.5,103.6z"/>
		<path class="st3" d="M59.1,192.1c-7.2,3.1-14.3,7.2-19.7,12.9c6.9-5,14.8-8.7,22.6-12.3C60.9,192.6,60,192.4,59.1,192.1z"/>
		<path class="st3" d="M128.8,78.7c0.6,7.1,0.9,14.2,2.3,21.2c0.3,0.1,0.6,0.1,1,0.2C131.8,93.7,130.8,85.9,128.8,78.7z"/>
		<path class="st3" d="M91.4,210.9c5.9-9.4,12.2-18.4,19.4-26.8c-0.3-0.2-0.6-0.4-0.9-0.7C102.4,190.8,93.6,200.2,91.4,210.9
			C91.4,210.8,91.4,210.9,91.4,210.9z"/>
		<path class="st3" d="M68.7,35.7c0-0.8,0-1.7,0.1-2.5c-0.1-0.1-0.2-0.2-0.3-0.3c-1.2-1.8-2.8-3-4.7-3.8c0.4,0.6,0.8,1.2,1.2,1.7
			C66.2,32.4,67.3,34.2,68.7,35.7z"/>
		<path class="st3" d="M15.5,104.6C15.5,104.6,15.5,104.6,15.5,104.6c1-0.3,2.1-0.6,3.1-0.9c-2.9-1-5.7-2.5-8.2-4.3
			C11.4,101.6,13.1,103.4,15.5,104.6z"/>
		<path class="st3" d="M34.1,103.2c7,0.8,13.9,3,19.4,5.7c0-0.3,0.1-0.6,0.2-0.8c-0.1,0-0.3,0-0.4-0.1c-7.1-3.3-14.9-4.8-22-8
			c-7-3.2-14-6.6-21.5-8.6c0,0,0,0,0,0c-0.1,0.7-0.3,1.4-0.3,2C17.3,97.6,26,99.6,34.1,103.2z"/>
		<path class="st3" d="M10.2,89.8C10.2,89.8,10.2,89.8,10.2,89.8c7.7,2.1,14.8,5.6,22,8.8c7.2,3.2,14.9,4.7,22,8
			c0.2-0.7,0.5-1.5,0.8-2.2c-8-4.7-16.5-8.6-25.4-11.3c-3.7-1.1-7.5-2.4-11.2-3.5c-2.4-0.7-4.9-1.5-6.8-3.2
			C11,87.5,10.5,88.6,10.2,89.8z"/>
		<path class="st3" d="M12.5,85.1C12.5,85.1,12.6,85.1,12.5,85.1c2.7,2.6,7.2,3.3,10.6,4.4c4.1,1.3,8.2,2.4,12.3,3.9
			c7,2.6,13.8,5.9,20.3,9.7c0.2-0.3,0.4-0.6,0.6-0.9C49.4,97,41.4,94,34.5,89.3c-6.7-2.2-13.7-3.6-20.2-6.2
			C13.6,83.7,13,84.3,12.5,85.1z"/>
		<path class="st3" d="M66.5,206.6c-0.2-0.4-0.3-0.9-0.4-1.3c-6.5,3.6-12.8,7.5-18.8,11.9c-3.5,2.5-6.9,5.2-10.1,8
			c-1.4,1.3-2.9,2.5-4.2,3.9c-0.2,0.2-0.6,0.6-0.9,1c0.2,0.3,0.5,0.5,0.7,0.8l0,0c6.3-3,11-8.1,16.5-12.3
			C54.8,214.3,60.7,210.4,66.5,206.6z"/>
		<path class="st3" d="M38.3,222.2c2.7-2.2,5.4-4.4,8.3-6.4c6.2-4.5,12.7-8.5,19.4-12.3c0-0.8,0.2-1.6,0.4-2.5
			c-12.7,7.3-27.1,13.7-35.8,26c0.2,0.6,0.4,1.2,0.8,1.8c1-0.9,1.9-2.2,2.7-2.9C35.4,224.7,36.8,223.4,38.3,222.2z"/>
		<path class="st3" d="M70.9,192.5c0.2-0.3,0.4-0.5,0.6-0.8c-1.9,0.5-3.9,0.9-5.9,1c-10.9,5.1-22,9.8-30.9,18.1
			c-1.4,2.1-2.6,4.5-3.5,6.9c4.5-4.9,10.2-8.3,15.7-12C54.5,200.7,63.6,198.1,70.9,192.5z"/>
		<path class="st3" d="M66.8,199c0.1-0.1,0.3-0.1,0.4-0.1c0.4-1,1-2,1.5-3c-5.7,3.5-12.1,5.8-17.9,9.3c-7.3,4.4-15.5,9.2-20.5,16.2
			c-0.2,1.2-0.3,2.4-0.1,3.5C39.3,212.8,53.9,206.5,66.8,199z"/>
		<path class="st3" d="M21.3,79.5c1.5,0.6,3,1.2,4.5,1.7c-0.4-0.5-0.7-1-1-1.5c0,0-0.1-0.1-0.1-0.2C23.5,79.4,22.4,79.3,21.3,79.5z"
			/>
		<path class="st3" d="M77.6,68.8c0.3-0.3,0.7-0.6,1.1-0.9c0.1-0.1,0.2-0.1,0.3-0.2C74.4,61.2,68.4,56,63.3,50
			c-4.9-5.9-9.7-11.9-14.8-17.7c-0.3,0.3-0.7,0.6-1,1c-0.1,0.1-0.2,0.3-0.3,0.4c4.9,5.6,8.7,11.9,13.4,17.7
			C65.8,57.6,72,62.9,77.6,68.8z"/>
		<path class="st3" d="M80.3,66.8c0.2-0.1,0.4-0.3,0.7-0.4c-3-4-6-8.7-8.2-13.7C66,45.1,58.2,38.2,51.9,30.1
			c-0.7,0.4-1.4,0.8-2.1,1.2c5.7,6.5,10.8,13.6,16.7,19.9C71.2,56.3,76.2,61.1,80.3,66.8z"/>
		<path class="st3" d="M76.4,69.9C70.8,64,64.5,58.8,59.5,52.4C55,46.7,51.1,40.5,46.3,35c-0.3,0.4-0.5,0.8-0.7,1.3
			c7.5,13.5,19.3,23.8,29.7,35C75.6,70.8,76,70.3,76.4,69.9z"/>
		<path class="st3" d="M68.8,37.9c-0.1,0-0.1,0-0.2-0.1c-1.6-1.4-2.8-3.2-4-4.9c-1-1.4-2.2-3.5-3.7-4.5c-1.2-0.1-2.4-0.1-3.7,0
			c3.2,5,7.6,9.1,12,13C69,40.3,68.9,39.1,68.8,37.9z"/>
		<path class="st3" d="M69.7,44c-5.2-4.6-10.6-9.3-14.2-15.3c-0.7,0.2-1.4,0.4-2.1,0.6c5.4,6.9,11.8,12.8,17.7,19.2
			C70.6,47.1,70.1,45.5,69.7,44z"/>
		<path class="st3" d="M73.7,74.2c0.2-0.5,0.4-1,0.7-1.5C64.1,61.5,52.5,51.3,44.8,38.1c-0.3,0.7-0.5,1.4-0.7,2.2
			c6,8.6,11.8,17.5,19.6,24.6C67.6,67.4,71.3,70.4,73.7,74.2z"/>
		<path class="st3" d="M15.6,81.9c4.9,1.9,10.1,3.2,15.2,4.6c-1.1-0.9-2.1-1.9-3.1-3c-3.1-1-6.1-2.2-9.1-3.3
			C17.5,80.6,16.5,81.2,15.6,81.9z"/>
		<path class="st3" d="M67.2,208c-6.3,4.2-12.9,8.3-18.7,13.2c-4.6,3.8-9,8-14.4,10.7c1,0.7,2.1,1.2,3.3,1.5c0,0,0,0,0,0
			c8.5-9.7,19.6-17.6,30.6-24.2C67.8,208.8,67.5,208.4,67.2,208z"/>
		<path class="st3" d="M46.5,55.8c0.1,0.1,0.2,0.3,0.3,0.5c1.2,0.5,2.4,1,3.6,1.5c-2.8-3.5-5-7.5-7.2-11.4
			C43.2,50,44.2,53.5,46.5,55.8z"/>
		<path class="st3" d="M58.2,61.8c-5.5-6-10.1-12.7-14.7-19.4c-0.1,0.4-0.1,0.8-0.2,1.2c3.3,5.7,6.2,11.7,11,16.2
			C55.6,60.4,56.9,61.1,58.2,61.8z"/>
		<path class="st3" d="M22.1,103.2c2.3-0.3,4.7-0.4,7.1-0.3c-6.6-2.5-13.4-4.4-19.7-7.7c0,0.6,0.1,1.2,0.2,1.7
			C13.3,99.8,17.5,102,22.1,103.2z"/>
		<path class="st3" d="M62,226.8c-0.9,0.6-1.9,1.2-2.8,1.9c-1.1,0.7-3.6,2-5,3.5c3-0.8,6.1-1.9,7.1-2.9
			C61.6,228.4,61.8,227.6,62,226.8z"/>
		<path class="st3" d="M204.4,219.3c2.8,4.5,5,9.4,6.6,13.7c1.1,2.7,2.1,5.6,2.7,8.6c1.5,1,3.3,1.9,5.2,2.6
			c-4-6.2-6.8-13.3-10.4-19.8c-3.6-6.6-6.7-13.4-9.5-20.4c0,0.8-0.1,1.6-0.4,2.4c0,0.1,0.1,0.1,0.1,0.2c1.5,4.3,4,8.1,5.5,12.4
			C204.4,219,204.4,219.1,204.4,219.3z"/>
		<path class="st3" d="M131.1,265.3c0.4-0.9,0.8-1.8,1.2-2.8c-0.4-1.1-0.8-2.2-1.1-3.3C131.2,261.3,131.2,263.3,131.1,265.3z"/>
		<path class="st3" d="M106.5,261.3c0,2.3,0.4,5.1,1.3,7.7c1-4.2,1.5-8.4,2.4-12.6C109,258.1,107.8,259.7,106.5,261.3z"/>
		<path class="st3" d="M130.1,254c-0.5-3.1-0.7-6.2-0.8-9.4c-0.2,0.1-0.3,0.1-0.5,0.1c-0.7,5.3-0.3,10.5-0.6,15.8
			c-0.2,3.5-0.7,7-0.7,10.5c0.6-0.8,1.2-1.6,1.7-2.4c0,0,0-0.1,0-0.1C130,263.7,129.3,258.9,130.1,254z"/>
		<path class="st3" d="M69.1,210.5c-10.7,6.5-21.5,14.1-29.9,23.4c1.1,0.2,2.2,0.2,3.3,0.2c0,0,0.1-0.1,0.1-0.1
			c8.7-5.9,17.4-11.9,25-19.1c0.8-1.3,1.7-2.4,2.5-3.4C69.8,211.1,69.5,210.8,69.1,210.5z"/>
		<path class="st3" d="M47.6,233.6c0.9-0.2,2.5-0.5,4.3-0.9c0.8-1.5,2.6-2.7,3.8-3.7c2.3-1.7,4.9-3.1,7.1-4.9
			c0.6-1.6,1.3-3.3,2.1-4.8c-6.1,5.3-12.8,10-19.6,14.6C46.2,233.9,46.9,233.8,47.6,233.6z"/>
		<path class="st3" d="M112.6,252.6c-1.6,6.2-2.1,12.6-3.8,18.8c0.6,1.2,1.3,2.2,2.1,3.1c0.5-8.2,1.8-16.4,3.3-24.5
			C113.7,250.9,113.2,251.7,112.6,252.6z"/>
		<path class="st3" d="M122.9,245.3c-1.8,5.3-1.2,10.9-1.9,16.4c-0.6,5.1-1.7,10.1-2.2,15.2c0.3-0.1,0.6-0.1,0.9-0.2
			c0.7-0.2,1.4-0.6,2.1-0.9c1.1-10.1,1.4-20.3,2.3-30.4C123.7,245.4,123.3,245.4,122.9,245.3z"/>
		<path class="st3" d="M127.2,245.2c-0.5,0.1-1,0.2-1.5,0.2c-0.8,9.8-1.1,19.6-2.2,29.4c0.9-0.6,1.7-1.3,2.4-2
			c-0.4-5,0.7-10,0.7-14.9C126.7,253.6,126.7,249.4,127.2,245.2z"/>
		<path class="st3" d="M117.7,243.6c-0.3,0.7-0.7,1.4-1.1,2.2c-1.8,10-3.6,20-4.1,30.1c0.3,0.2,0.6,0.4,0.9,0.5
			c1.8-10.8,4.3-21.5,5.1-32.4C118.2,243.9,118,243.8,117.7,243.6z"/>
		<path class="st3" d="M121.3,245.1c-0.5-0.1-0.9-0.2-1.4-0.4c-0.9,10.9-3.4,21.5-5.1,32.3c0.7,0.2,1.5,0.3,2.4,0.2
			c0.6-6,2.2-11.9,2.5-18C119.9,254.5,119.8,249.6,121.3,245.1z"/>
		<path class="st3" d="M68,145.9c8.5-0.2,17.1-0.8,25.4,0.7c0.2-0.8,0.5-1.5,1-2.3c-4.5-0.5-8.9-1.7-13.5-1.7
			c-4.6-0.1-9.2,0.1-13.8,0.2c-6.9,0.1-15-0.4-21.3,3c-0.5,1.1-0.8,2.3-1,3.6C52.3,147.1,60.2,146.1,68,145.9z"/>
		<path class="st3" d="M51.4,161.8c7.9,0.2,15.6-2,23.4-3.1c6.6-0.9,13.2-0.6,19.6-2.5c0.3-0.5,0.6-1,0.9-1.5
			c-0.4-0.4-0.7-0.7-0.9-1.2c-8.3,0.3-16.4,2.5-24.7,3.3c-7.6,0.8-15.1,0.8-22.5,2.5c1,1.1,2.2,1.9,3.7,2.6
			C51,161.9,51.2,161.8,51.4,161.8z"/>
		<path class="st3" d="M174.2,82.6c-0.1,0.3-0.3,0.5-0.5,0.6c-4.4,5.7-7.2,12.5-9.6,19.2c0.3,0.2,0.7,0.5,1,0.8c0-0.1,0-0.3,0.1-0.5
			c3.7-8.3,7.8-16.6,13-24.1c-0.8,0.5-1.4,1.1-2,1.6C175.4,81,174.8,81.8,174.2,82.6z"/>
		<path class="st3" d="M101.5,203.3c3.9-6,8.8-11.3,12-17.7c-0.4-0.2-0.9-0.4-1.3-0.6c-7.9,9.2-14.8,19.2-21.1,29.5c0,0,0,0-0.1,0.1
			c-0.1,1.7,0,3.6,0.4,5.3C94.5,214.2,97.9,208.7,101.5,203.3z"/>
		<path class="st3" d="M66.3,150.5c9-0.7,17.9-2.5,26.9-0.8c0-0.5,0-1,0-1.4c-8.6-1.6-17.7-1.1-26.4-0.6c-7.5,0.4-15,1.2-22.1,3.7
			c0,0.6,0,1.3,0.1,1.9C51.5,150.4,59.1,151,66.3,150.5z"/>
		<path class="st3" d="M93.7,158.1c-6.5,1.6-13.1,1.4-19.7,2.4c-6.1,1-12.3,2.4-18.5,2.8c11.7,2,29.8-3,37.9-3.9
			C93.4,159,93.5,158.5,93.7,158.1z"/>
		<path class="st3" d="M146,221.9c0.5,1.7,1.1,3.2,1.8,4.7c-0.4-12.7-1.1-25.3-2.6-37.9c-0.6,0.5-1.3,0.9-2,1.2
			c0.6,8.5-0.2,21.5,2.8,31.8C146,221.8,146,221.9,146,221.9z"/>
		<path class="st3" d="M104.7,222c4.4-12.6,10.3-24.5,16.7-36.1c-0.7,0.2-1.5,0.4-2.3,0.4c-1.3,3.2-3.6,5.8-5.4,8.9
			c-1.9,3.3-3.6,6.7-5.6,9.9c-4.2,6.8-8.6,13.6-12.2,20.8c0.1,0,0.3,0.1,0.4,0.1C99.6,226.5,102.6,224.2,104.7,222z"/>
		<path class="st3" d="M94.6,225.2c3.4-6.8,7.5-13.3,11.5-19.8c2-3.2,3.7-6.6,5.7-9.9c1.8-3.1,4.3-5.9,5.7-9.2
			c-0.9,0-1.7-0.1-2.5-0.3c-3,6.2-7.6,11.2-11.4,16.9c-4.1,6.2-8,12.5-11.6,19C92.5,223.3,93.4,224.5,94.6,225.2z"/>
		<path class="st3" d="M125.5,185.2c-0.3-0.2-0.6-0.5-0.8-0.8c-0.3,0.2-0.6,0.3-0.9,0.5c0,0,0,0,0,0.1c-6.1,11-11.8,22.1-16.2,33.9
			c8-9.3,14.4-21.5,17.7-33.1C125.3,185.6,125.4,185.4,125.5,185.2z"/>
		<path class="st3" d="M122.2,63.8c1.9,12,1.3,24.6,6.3,35.9c0.3,0,0.7,0,1,0c-1.9-9.4-1.6-19.1-3.2-28.5
			C125.1,68.5,123.8,66,122.2,63.8z"/>
		<path class="st3" d="M111.9,59c2.4,7.2,2.2,14.8,3.7,22.2c1.5,7.3,4.8,14,7.4,21c0.3-0.4,0.7-0.7,1.1-1c-8.5-12.5-6-28.5-9.1-42.7
			C113.9,58.4,112.9,58.6,111.9,59z"/>
		<path class="st3" d="M47,143.5c5.9-2.4,12.9-2.1,19.1-2.2c4.9-0.1,9.9-0.4,14.8-0.2c5,0.1,9.7,1.4,14.6,1.8
			c0.1-0.1,0.2-0.2,0.3-0.3c-0.3-0.7-0.6-1.3-0.7-2c-13.8-2.5-27.8-3.5-41.8-2.5C50.7,139.4,48.5,141.2,47,143.5z"/>
		<path class="st3" d="M153.3,233.7c-1.8-7-1.9-14.3-2.6-21.5c-0.9-8.8-1.2-17.4-1-26.2c-0.5-0.4-1-0.8-1.5-1.4
			c-0.3,1-0.8,2-1.5,2.8c1.7,14,2.4,28.1,2.8,42.3C150.6,231.2,151.8,232.6,153.3,233.7z"/>
		<path class="st3" d="M116.8,59c2.8,13.8,0.5,29.3,8.7,41.4c0.5-0.2,0.9-0.4,1.4-0.5c-5.2-12.2-4.2-25.7-6.8-38.5
			C119,60.2,117.9,59.4,116.8,59z"/>
		<path class="st3" d="M57.8,136.2c12.4-0.5,24.9,0.5,37.1,2.7c0-0.9,0.1-1.7,0.4-2.6C86.3,134,69.5,132.4,57.8,136.2z"/>
		<path class="st3" d="M104.7,76.7c1.9,9.4,6.3,17.9,11.3,25.9c0.7-0.1,1.4-0.2,2.1-0.2c-2.7-6.2-6.2-12.1-8.2-18.5
			c-1.9-6-2.6-12.3-3.5-18.5C104.8,68.9,104.1,73.3,104.7,76.7z"/>
		<path class="st3" d="M107.7,63.1C107.7,63.1,107.7,63.1,107.7,63.1c1.2,7.3,1.7,14.8,4.3,21.7c2.3,6.1,5.5,11.9,8,18
			c0.6,0.2,1.2,0.5,1.8,0.9c-2.7-7.8-6.7-15.1-7.9-23.3c-1-6.8-1.2-13.8-3.3-20.4C109.5,60.7,108.5,61.8,107.7,63.1z"/>
		<path class="st3" d="M46.2,158c7.8-1.9,15.6-1.8,23.5-2.7c8-0.9,15.9-2.8,23.9-3.2c-0.1-0.2-0.2-0.5-0.2-0.7
			c-9.2-1.8-18,0.3-27.2,0.8c-7.1,0.4-14.7-0.2-21.3,2.7C45.2,156,45.6,157.1,46.2,158z"/>
		<path class="st3" d="M171,17.1c-1.8,6.1-3.3,12.4-4.8,18.6c-1.4,5.8-2.2,11.8-3.9,17.6c0.7-0.3,1.4-0.6,2.2-0.7
			c2-6.9,4.2-13.9,5.4-21c0.4-2.6,1-5.9,1.2-9.3c-0.1-0.4-0.1-0.8,0.1-1.2C171.2,19.7,171.1,18.4,171,17.1z"/>
		<path class="st3" d="M168.8,11c-0.5-0.7-1.1-1.3-1.7-1.8c-3,7.6-2.6,15.9-4.4,23.7c-1.9,8.2-3.6,16.7-5.9,24.8
			c1.1-1.3,2.2-2.4,3.5-3.3c2-6.3,2.8-12.8,4.4-19.2c1.8-7.1,3.4-14.3,5.6-21.4C169.9,12.8,169.4,11.8,168.8,11z"/>
		<path class="st3" d="M162.7,7.6c-2.1,9-4.6,17.9-5.9,27.1c-0.9,6.8-2,13.5-3.8,20.1c0.7,1.3,1.3,2.8,1.8,4.3
			c1.4-4.6,2.4-9.3,3.4-14c1-4.6,2.5-9.2,3.3-13.9c1.3-7.7,1.4-15.7,4.3-22.9C164.8,7.8,163.8,7.6,162.7,7.6z"/>
		<path class="st3" d="M142.7,47.2c0.7,0.1,1.3,0.2,1.9,0.4c1.1-10.7,2.1-21.4,4.9-31.8c-2.1,2.5-3.7,5.2-4.4,7.2
			C142.7,30.9,142.2,39,142.7,47.2z"/>
		<path class="st3" d="M149.8,50.5c0.8,0.7,1.5,1.5,2.1,2.4c1.8-7.1,2.6-14.2,3.8-21.5c1.3-8,3.5-15.8,5.4-23.7
			c-0.8,0.2-1.6,0.4-2.5,0.8c-4.4,4.9-4.9,12.9-6,19.1C151.3,35.2,150.7,42.8,149.8,50.5z"/>
		<path class="st3" d="M148.3,49.3c0.9-8,1.8-16,3.1-24c0.8-4.8,1.5-10.5,4-14.9c-1.2,0.8-2.3,1.8-3.4,2.8
			c-3.5,11.3-4.6,23.1-5.8,34.9C146.9,48.4,147.6,48.8,148.3,49.3z"/>
		<path class="st3" d="M217.7,85.6c8.3-7,16.7-14,24.6-21.5c-9.1,1.6-19.2,13.1-25.3,18.4C217.5,83.5,217.7,84.5,217.7,85.6z"/>
		<path class="st3" d="M170.8,229.6c-3.5-5.9-5.2-12.7-7.4-19.2c-2.7-8-4.4-16.1-6.6-24.2c-0.6,0.2-1.2,0.5-1.9,0.6
			c1.7,16.7,4.7,33.1,8.8,49.4C166.7,235.2,169.2,232.8,170.8,229.6z"/>
		<path class="st3" d="M172.3,223.6c0.5-7.4-0.8-14.5-4.1-21.1c-4.4-5-7.5-11.2-9-17.6c-0.3,0.2-0.6,0.4-0.9,0.6
			c2.1,7.8,3.7,15.7,6.3,23.4c2.1,6.3,3.7,13,6.9,18.9C171.9,226.4,172.2,225.1,172.3,223.6z"/>
		<path class="st3" d="M233.9,78.3c-5.6,5-11.6,9.7-17.6,14.3c-0.5,1.2-1.1,2.3-1.7,3.3c0.8-0.1,1.6-0.1,2.4-0.1
			c10.8-10.4,24-17.9,34.7-28.3c0.1-0.1,0.2-0.1,0.3-0.2c-0.5-0.5-0.9-0.9-1.4-1.3C244.2,68.9,239,73.7,233.9,78.3z"/>
		<path class="st3" d="M221.7,96.8c5-5.1,11.1-8.8,16.9-13c5.4-3.9,10.5-8.3,16.2-11.9c-0.3-0.8-0.7-1.6-1.2-2.4
			c-0.2-0.3-0.5-0.7-0.7-1c0,0.1-0.1,0.1-0.1,0.2c-10.4,10.1-23.2,17.4-33.7,27.3C220,96.2,220.9,96.4,221.7,96.8z"/>
		<path class="st3" d="M217.2,89.8c5.9-4.6,11.7-9.3,17.3-14.2c4.5-4,9.1-7.9,14.5-10.6c-1.3-0.7-2.7-1.1-4.2-1.2
			c-8.6,8.4-18,16.1-27.2,23.8C217.6,88.4,217.4,89.1,217.2,89.8z"/>
		<path class="st3" d="M227.9,101c7.6-6.8,16.7-11.4,25-17.4c1-1.6,1.8-3.3,2.2-5c-10.3,5.8-19.8,13-28.6,20.9
			C227,100.1,227.5,100.5,227.9,101z"/>
		<path class="st3" d="M223.3,97.4c0.3,0.2,0.6,0.3,0.9,0.5c0.4,0.2,0.7,0.5,1.1,0.7c9.3-8.3,19.3-16,30.2-22
			c0.1-1.1,0.1-2.1-0.2-3.1c-5.5,3.5-10.5,7.9-15.9,11.6C233.9,89.1,228.1,92.6,223.3,97.4z"/>
		<path class="st3" d="M155.5,235.1c2.3,1.2,4.6,1.6,6.7,1.4c-4.1-16.3-7.1-32.8-8.8-49.5c-0.7,0-1.4,0-2.1-0.2
			c-0.1,8.6,0.2,17,1,25.5C153,219.9,153.1,227.6,155.5,235.1C155.4,235.1,155.4,235.1,155.5,235.1z"/>
		<path class="st3" d="M269.2,178.8c-3.8-0.2-7.7-2.2-11.5-1.6c-0.3,0-0.5,0-0.7-0.2c-2.6,0.5-5.3,0.8-8,0.9
			c7.2,1,14.5,1.8,21.5,3.9C270.2,180.7,269.8,179.7,269.2,178.8z"/>
		<path class="st3" d="M263.7,175c-0.6,0.3-1.3,0.5-2,0.8c2,0.4,4.1,1,6.1,1.3C266.8,176,265.4,175.3,263.7,175z"/>
		<g>
			<path class="st3" d="M270.9,190.7c0.2-1,0.3-2.1,0.3-3.2c-7.8-1-15.5-3.8-23.3-5.7c-5.7-1.4-11.5-2.3-17.4-1.5
				c-0.3,0.4-0.6,0.9-1,1.3c5.7,1.6,11.5,2.7,17.3,3.9C254.9,187,263,188.5,270.9,190.7z"/>
			<path class="st3" d="M271.2,186c0-0.8-0.1-1.6-0.2-2.4c-7.3-2.3-14.8-3.1-22.4-4.2c-2.1-0.3-4.2-0.6-6.2-1
				c-0.3-0.1-0.4-0.2-0.5-0.4c-3.7-0.1-7.1-0.2-9.8-0.3c-0.1,0.3-0.3,0.6-0.5,0.9c5.7-0.5,11.3,0.4,16.8,1.8
				C255.9,182.3,263.5,185,271.2,186z"/>
			<path class="st3" d="M247.1,191.1c-0.6-0.2-1.2-0.3-1.7-0.5c-7.1-2.1-14.1-4.6-21.5-4.9c-1.2,0.5-2.6,0.7-4.1,0.8
				c0.1,0.1,0.2,0.3,0.2,0.4c4.8,1.2,9.7,1.7,14.6,2.7c3.5,0.8,6.9,1.8,10.2,2.9c0.3,0.1,0.7,0.2,1,0.3c5.1,1.6,12.9,3.5,16.1,8.4
				c1.9-0.7,3.6-1.7,5-3C261,194.6,253.8,193,247.1,191.1z"/>
			<path class="st3" d="M246.4,187c-6.1-1.2-12.1-2.4-18.1-4.1c-0.5,0.5-1.1,1-1.7,1.4c6.6,0.7,12.9,2.9,19.2,4.8
				c0.9,0.3,1.8,0.5,2.7,0.8c6.6,1.9,13.7,3.5,19.6,7.1c1.1-1.3,1.9-2.8,2.4-4.6C262.6,190.1,254.5,188.6,246.4,187z"/>
			<path class="st3" d="M244.4,194c-0.6-0.2-1.1-0.3-1.6-0.5c-4.3-1.3-8.7-2.2-13.1-3c4.8,1.7,9.5,4.2,13.8,6.4c0,0,0,0,0.1,0
				c3,1.5,6.4,3.3,9.3,5.7c2.6,0,5.2-0.2,7.6-0.9C257.3,197.3,249.7,195.5,244.4,194z"/>
		</g>
		<g>
			<path class="st3" d="M218.9,224.1c-4.3-6.7-7.5-14.1-12.6-20.3c-0.7,0-1.5-0.1-2.2-0.2c7.6,14.1,13,29.9,24.2,41.7
				c0.5-0.1,1-0.2,1.5-0.4c1.3-0.5,2.5-1.2,3.5-2.3c0,0,0,0,0.1-0.1c-0.8-0.7-1.5-1.4-2.2-2.2C226.4,235.4,222.5,229.8,218.9,224.1z
				"/>
			<path class="st3" d="M202.1,203.2c-0.6-0.1-1.2-0.3-1.8-0.5c3.2,8,6.8,15.8,11,23.2c3.6,6.2,6,13,10,18.9c1.7,0.4,3.3,0.7,5,0.6
				C215.2,233.4,209.9,217.4,202.1,203.2z"/>
			<path class="st3" d="M236.7,234.3c0.2-2.2-0.1-4.5-0.7-6.7c-0.3-0.2-0.7-0.5-1-0.7c-4.6-3.4-8.5-7.6-12.3-12
				c-3.2-3.7-6.8-7.4-9.1-11.8c-0.4,0.1-0.8,0.2-1.2,0.3c6.8,9.6,12.6,20.2,21.2,28.2C234.6,232.6,235.6,233.5,236.7,234.3z"/>
			<path class="st3" d="M236.4,236.1c-1.2-0.9-2.3-1.8-3.4-2.8c-9.2-8.3-15.2-19.5-22.5-29.6c-0.7,0.1-1.5,0.2-2.2,0.2
				c4.3,5.7,7.3,12.3,11.2,18.4c3.7,5.7,7.4,11.3,12,16.2c0.9,0.9,1.8,1.8,2.7,2.7C235.3,239.7,236.1,237.9,236.4,236.1z"/>
		</g>
	</g>
	<g>
		<path class="st4" d="M8.1,135.6c-14.5,8.8-8,27.7,6.4,32.8c7.2-7,18-11.1,27.3-12.8c-0.3-1.6-0.3-3.4-0.1-5.5
			c0.2-1.8,0.7-3.5,1.3-5C34.7,144.5,18,142,8.1,135.6z"/>
		<path class="st4" d="M188.6,256c-1-0.7-2-1.5-2.9-2.2c-6.3-5-12.1-10.8-14.9-18.3c-2.3,2.5-5.4,4.3-8.7,4.5
			c0.5,7.7-0.1,18.9-4.4,26.5c2.7,7.9,14.4,22.1,22.9,13.4c3.4-3.4,5.1-8.2,6.2-12.8C187,266.3,188.3,257.1,188.6,256z"/>
		<path class="st4" d="M107.8,223.7c-2.6,2.6-5.6,4.7-9,5.5c-2,0.4-3.6,0.2-5-0.5c-3.4,5.8-7.4,11.1-12.7,15.2
			c0.1,0.3,0.2,0.7,0.1,1.1c-2.9,8.9,0.7,30.9,14.8,21.4c8.2-5.5,14.6-15.8,19.1-24.4C110.1,237.6,107.3,230.3,107.8,223.7z"/>
		<path class="st4" d="M174.7,56.2c2.7-8.7,6.6-18.2,14.2-23.5c0.4-0.3,0.9-0.6,1.3-0.9c0.3-3.9-0.3-8.7-3.1-11.5
			c-3.8-3.7-9.5-3.1-12.4,0.9c0,10.7-4.5,23.7-6.9,31.2C170.6,52.8,173,54,174.7,56.2z"/>
		<path class="st4" d="M196.3,76.9c-0.1,0.1-0.1,0.1-0.2,0.1c0.3,0.6,0.5,1.3,0.6,1.9c5.7-3.8,13.7-4.4,18.6,0.9
			c4-3.6,10.1-9.7,16.6-14.1c-0.1-0.4-0.1-0.8,0.2-1.3c10-13-6.8-30.4-19.6-19.8c-0.8,3.5-2,6.9-2.9,9.4
			C206.8,62.1,203.2,71.3,196.3,76.9z"/>
		<path class="st4" d="M105.5,23.2c5.4,9.9,7.8,23.6,9,31.9c0.8,0,1.7,0.2,2.6,0.5c3.6,1.3,6.2,4,8.2,7.3
			c1.2-7.1,6.1-14.5,13.3-15.6c0.3,0,0.6-0.1,0.9-0.1c-0.5-8.8-0.1-18.3,3.3-26.6c-0.2-0.3-0.3-0.7-0.2-1.1c1.7-9.5-8.6-22-19-19.1
			c-10,2.9-16.8,12.3-18,22.5C105.5,23,105.5,23.1,105.5,23.2z"/>
		<path class="st4" d="M275.3,92c-0.3-0.5-0.7-1-1.2-1.5c-4.7-5.1-14.5-6.7-20.1-2.6c-0.2,0.2-0.5,0.3-0.7,0.3
			c-5.9,8-16,14.8-22.7,18.7c0.4,3.6-1.1,7.4-3.4,11c9.6-3,19.8-4.6,29.7-5.8c2.7-0.4,5.9-0.6,9.1-0.3c0.9-0.6,1.8-1.2,2.7-2
			C273.9,105.5,279.2,98.1,275.3,92z"/>
		<path class="st4" d="M267.1,115.3c-0.2,0-0.3-0.1-0.5-0.1c-0.6,0.3-1.1,0.2-1.5-0.1c-0.1,0-0.1,0-0.2,0
			c-13.1-0.5-28.6,2.9-40.8,7.4c-0.1,0-0.2,0.1-0.4,0.1c-1.8,1.9-3.7,3.6-5.6,4.9c0.6,0.2,1.1,0.4,1.7,0.7c5,2.2,9.9,6.7,11.5,12.1
			c9.1-0.6,19.2,0.6,27.3,4.8c0.2,0.1,0.4,0.2,0.6,0.3c0.1,0,0.1,0.1,0.2,0.1c6-2.5,14.2-5.6,17.1-11.7
			C280.4,125.1,275.6,116.8,267.1,115.3z"/>
		<circle class="st4" cx="140.5" cy="146.1" r="53.2"/>
	</g>
</g>
</svg>
