<?xml version="1.0" encoding="utf-8"?>
<!-- Generator: Adobe Illustrator 19.2.1, SVG Export Plug-In . SVG Version: 6.00 Build 0)  -->
<svg version="1.1" id="Layer_1" xmlns="http://www.w3.org/2000/svg" xmlns:xlink="http://www.w3.org/1999/xlink" x="0px" y="0px"
	 viewBox="0 0 278.2 282.8" style="enable-background:new 0 0 278.2 282.8;" xml:space="preserve">
<style type="text/css">
	.st0{fill:#ED7123;}
	.st1{fill:#AE4FAE;}
	.st2{fill:#A646A6;}
	.st3{fill:#A141A1;}
</style>
<g>
	<path class="st0" d="M196.3,209.6c1.2,1,2.4,2.2,3.5,3.5c-0.8-1.6-1.6-3.3-2.3-5C197.2,208.7,196.8,209.2,196.3,209.6z"/>
	<g>
		<path class="st1" d="M136.1,51.5c-5.5,3.3-8.7,9.8-8.1,16.2c0,0.3,0,0.6-0.2,0.8c1,2.4,1.8,4.9,2.4,7.1c2.5,8.4,4.5,17.4,4.9,26.2
			c0.6,0.5,1.2,1,1.7,1.6c0.1,0.1,0.1,0.2,0.2,0.3c0.2-0.1,0.4-0.3,0.6-0.4c0.1,0,0.1,0,0.2-0.1c0-0.1,0-0.2,0-0.4
			c1-3.9,4.1-5.7,7.4-5.8c0.8-10,2-19.9,5.6-29.4c0.4-1.1,1-2.4,1.7-3.8C151,56.4,145.7,45.7,136.1,51.5z"/>
		<path class="st1" d="M177.4,112.9c1.1,1.4,1.7,3.2,1.7,5.2c0.3,0.1,0.6,0.3,0.8,0.4c3.4-4,8-7.2,12-10.6c4.2-3.5,8.7-7.2,13.6-9.5
			c1.4-0.7,2.8-1.2,4.3-1.7c0,0,0-0.1,0.1-0.1c2.5-3.2,6-9.1,3.7-13.3c-3.6-6.7-12.8-4.6-17.4-0.2c-0.9,4.4-3.8,9.1-5.6,12
			C186.8,101.5,182.4,107.4,177.4,112.9z"/>
		<path class="st1" d="M212.5,99.3c-6.9,1.7-13,6.5-18.3,11c-3.9,3.3-8.4,6.4-11.8,10.3c1.1,1.3,1.7,2.9,1.6,4.7
			c0.2,0.2,0.5,0.3,0.7,0.5c0.2,0.1,0.5,0.2,0.7,0.4c0.7,0.6,1.2,1.2,1.6,1.8c8.2-2,18-3.5,26.7-1.7c0,0,0,0,0,0
			c5.5-3.2,16.4-12.6,13.4-20.3C225,100.5,218,97.9,212.5,99.3z"/>
		<path class="st1" d="M101.4,168.7c0,0,0.1,0,0.1-0.1c0-0.1-0.1-0.2-0.1-0.3c-3.3,0.4-6.4-1-7.8-4.3c-0.2-0.5-0.3-1-0.4-1.5
			c-6.9,0.7-19.8,3.8-31.1,3.9c-0.1,0.2-0.2,0.4-0.4,0.6c-4.5,3.9-9.7,13.1-5.7,19c4.1,6,14.2,3.3,19.9,0.6
			C83.5,179.6,93.5,174.5,101.4,168.7z"/>
		<path class="st1" d="M213.2,183.8c-8-7.2-21-13.9-31.5-15.9c0,0,0,0-0.1,0c0,0-0.1,0.1-0.1,0.1c-0.6,0.6-1.4,1.1-2.2,1.5
			c-0.3,1.4-0.8,2.8-1.5,4.1c5.3,4.6,10.2,10.1,14.3,15.8c1.6,2.3,4,5.5,5.4,8.8c4.2,2.5,10.3,3.6,15,2
			C221,197.2,218.6,188.7,213.2,183.8z"/>
		<path class="st1" d="M69.6,206.7c4.7,6.8,14,2.4,19.6-0.8c3.5-9.6,11.6-18.3,18.5-25.1c-1-1.9-1.3-4.3-0.8-7
			c-0.6-0.1-1.2-0.3-1.8-0.5c-0.9-0.4-1.7-1-2.3-1.8c-7.7,5.6-16.7,10.1-23.8,16.6c-0.1,0.3-0.3,0.7-0.7,0.9
			c-0.1,0.1-0.3,0.1-0.5,0.2c-1,1-2,2-2.9,3C72.4,195.3,66.5,202.2,69.6,206.7z"/>
		<path class="st1" d="M124,242.2c9.6-0.8,17.4-10.7,18.7-19.7c0-0.2,0.1-0.3,0.2-0.5c-2.7-10.3-2.4-22.7-3-31.2
			c-2.9,0.2-5.8-1.1-7.2-4.2c-0.2,0.1-0.5,0.2-0.8,0.3c-1.2,0.4-2.6,0.3-3.8-0.1c-2.4,8.5-6.5,16.6-11.1,24
			c-1.3,2.2-2.8,4.7-4.5,7.1c0,0.3,0,0.5-0.2,0.8C108.1,226.3,113.5,243.1,124,242.2z"/>
		<path class="st1" d="M155.8,64.8c-5.2,10.1-6.5,21.5-7.4,32.7c2.8,0.9,5.3,2.9,6,6c1.8-2.1,4.2-2.8,6.5-2.3
			c2.4-6.8,5.5-15.1,10.5-21.1c2-6.2,5.1-13.7,1.8-19.7C168.2,51.1,159.4,57.9,155.8,64.8z"/>
		<path class="st1" d="M101.5,130.1c-2.7-0.8-4.3-3.8-3.5-6.8c0.4-1.4,1.1-2.9,2-4.2c-7.2-5.1-13.5-11.7-21.3-16
			c-0.1,0-0.1-0.1-0.2-0.1c-2-1.1-4.1-2-6.4-2.7c-9.3-2.8-15.3,2.9-15.6,12.1c-0.2,8.2,4,13.8,10.3,18.5c10.7-1.2,22.4,0.4,29.9,2.5
			C98,132.1,99.7,130.9,101.5,130.1z"/>
		<path class="st1" d="M101,73.6c-4.1-4.9-11.4-7.1-17.1-5.2c-0.2,0.1-0.4,0.2-0.6,0.2c-3.2,1.2-5.8,3.8-6.9,7.9
			c-2.5,9,2.2,16,4.4,24.3c7.8,4.5,14,10.8,21.4,16c0.9-0.7,2-1.3,3.1-1.6c0.5-0.1,1,0,1.3,0.3c0.3,0,0.6,0,0.9,0.2
			c0.4,0.2,0.7,0.5,1,0.7c-2.2-3.7-0.8-8.4,2.3-11.3c0.1-0.2,0.3-0.4,0.5-0.6c0.5-0.3,0.9-0.6,1.4-0.9
			C107.2,94.7,101.6,84.4,101,73.6C101,73.6,101,73.6,101,73.6z"/>
		<path class="st1" d="M222,157.4c-10.7,4.9-27.5,2.2-37.7,3.4c0.1,1.5-0.1,3-0.7,4.3c8.5,1.8,18,6.5,25.2,11.3
			c2.6,1.8,5.8,4,8.3,6.7c0,0,0,0,0,0c14.6,2.9,18.7-21.8,5.1-25.5C222.1,157.5,222.1,157.4,222,157.4z"/>
		<path class="st1" d="M194.8,200.4c-3.5-9.2-11.3-17.7-18.8-24.2c-1.8,2-4.3,3.2-7.3,2.8c0,0-0.1,0-0.1,0c-0.1,0-0.1,0-0.2,0
			c-0.8,0-1.7,0.1-2.5-0.2c-0.7,0.4-1.5,0.7-2.4,0.8c0,0.2-0.1,0.4-0.2,0.6c-0.5,0.9-1.2,1.7-2,2.6c0.1,0.2,0.3,0.4,0.3,0.7
			c1.1,5.3,6.1,19.7,19.7,24.9C187.6,210.6,198.2,209.3,194.8,200.4z"/>
	</g>
	<g>
		<path class="st2" d="M158.7,239.7c-7.2-1.5-11.5-6.2-14.1-12.4c-2.2,6.1-6.7,12.6-12.4,15.9c0,5.6,0.3,11.5,2.2,16.8
			c0.2,0.5,0.4,1,0.6,1.5c0.2,0.2,0.4,0.5,0.4,0.8c2.9,5.8,9.1,13.3,15.3,7.3C158.4,262.2,159.5,249.9,158.7,239.7z"/>
		<g>
			<path class="st2" d="M62.7,131.6c-5.3-5-9.3-12.2-9.5-19.3c-13.2-6.9-45.4-12.8-49.3,8c-3.2,17.1,29.4,21.2,40.5,21.7
				C48.1,136.3,54.9,133.1,62.7,131.6z"/>
			<path class="st2" d="M55.4,190.2c-0.6-0.5-1.1-1.1-1.6-1.8c-4.6-6.8-1.3-16.3,4-22c-7.1-0.5-12.9-2.5-15.3-7.8
				c-13.1,2.4-29,8.9-32.6,23.1c-3.7,14.3,6.8,27.7,21.5,27.8C37.3,200.8,46,194.5,55.4,190.2z"/>
			<path class="st2" d="M25.3,74.7c2.1,4.1,5.2,7.7,8.7,10.7c7.2,6.1,16.5,8.6,24,14.3c0.6-0.6,1.2-1.2,2-1.8
				c4.8-3.8,11.9-1.2,16.8,1c-1.9-6.1-4.8-13.3-4.5-19.7c-0.1-0.1-0.2-0.3-0.2-0.4C69.8,71.4,60.5,66.5,54,63.2
				c-5.6-2.9-13.3-7.1-19.9-6.3C25.8,57.8,21.4,67.3,25.3,74.7z"/>
			<path class="st2" d="M209.5,253.7c4.2-8.2-0.7-19.2-4.9-26.5c-3.2-5.5-6-12-11.1-15.9c-4.6,1.8-11,0.9-14.7-0.7
				c-1.9-0.8-3.6-1.9-5.2-3.1c2.4,7.4,2.8,15.6,0.2,22.8c-0.2,0.6-0.5,1.2-0.8,1.8c1.7,6.6,6.1,12,11.3,16.4
				c1.3,1.1,3.2,2.7,5.3,4.2l0.1,0c0.4,0.1,0.8,0.4,1,0.7C196.9,258.2,205.3,261.9,209.5,253.7z"/>
			<path class="st2" d="M87.7,212.2c0.1-0.7,0.2-1.4,0.4-2c-4.6,2.3-10.6,4.5-15.3,2.9c-3.9,4.3-6.4,10.1-7.8,15.6
				c-1,4-3.4,15.5,3.2,16.7c9.6,1.8,18.9-11.8,23-18.9C88.1,222.8,87.2,216.2,87.7,212.2z"/>
			<path class="st2" d="M83.8,65.2c5.9-1.7,12.5-0.2,17.3,3.9c0.6-5,4.7-11.7,10.1-13.6c-1.3-9.3-2.8-19.7-7.3-27.9
				c-3.1-5.7-8.8-14.3-16.4-13.8c-10.6,0.7-16.7,13.9-15.7,23.3C73,47.4,77.5,57.1,83.8,65.2z"/>
			<path class="st2" d="M184.7,41.5c-3.7,5.7-6.1,12-8,18.5c0,0.1-0.1,0.2-0.1,0.2c1.7,5.4,1,10.4-0.5,15.6c0.6-0.4,1.3-0.9,1.9-1.2
				c4.5-2.4,11.9-3.8,16-0.1c7.6-6.2,13.6-19.5,15.2-30.3c-0.1-0.4-0.1-0.8,0.2-1.1c0.2-1.4,0.3-2.7,0.3-3.9
				C209.9,21.5,189.4,34.2,184.7,41.5z"/>
			<path class="st2" d="M267.8,157c-2.7-3.9-6.3-6.8-10.4-8.9c-7.8-4-17.3-5.2-25.9-4.8c0.1,1.7-0.2,3.5-0.9,5.2
				c-1.1,2.9-2.9,5.1-5.2,6.8c7.3,3.4,9.4,12,7.4,19.3c5.5,0.2,11.2,0.9,16.7,0.6c1.8-0.1,3.5-0.3,5.3-0.7
				C261.8,173,274.1,165.9,267.8,157z"/>
			<path class="st2" d="M255.7,214.4c-0.3-5.8-4.9-9.7-9.6-12.4c-1.1-0.7-2.4-1.4-3.6-2.1c-6.4-3.6-14.2-7.6-21.1-8
				c0.2,3.8-1.1,6.6-3.2,8.5c5.9,5.1,13.8,12,18.4,19.9c0.9,1.5,1.6,3.1,2.2,4.7C244.9,228.2,256.1,221.4,255.7,214.4z"/>
		</g>
	</g>
	<g>
		<path class="st2" d="M180.2,91.6c-3.6,6-6.7,12.3-10.6,18.1c0.3,0.4,0.7,0.7,0.9,1.2c0,0,0,0,0,0c0.6-0.2,1.2-0.2,1.8-0.3
			c3-5.8,6.2-11.5,9.6-17c3.3-5.4,7.8-9.9,10.7-15.6c-0.5-0.9-1.3-1.6-2.3-2C187.6,81.6,183.4,86.3,180.2,91.6z"/>
		<path class="st2" d="M175.3,92c-2.8,4.9-5,10.2-7.9,15c0.1,0.3,0.2,0.6,0.2,0.9c0,0.2,0,0.3,0,0.5c0.3,0.1,0.5,0.2,0.7,0.3
			c3.9-5.8,6.8-12.1,10.5-18c3.2-5.1,7.2-9.7,9.9-15.1c-0.9-0.1-1.9-0.1-3,0C182.4,81.2,178.5,86.4,175.3,92z"/>
		<path class="st2" d="M193.2,80.3c-3.1,5.4-7.5,9.9-10.5,15.2c-2.9,5.1-5.9,10.1-8.6,15.3c0.3,0.1,0.6,0.2,0.8,0.3
			c6.9-7.6,16.3-18.3,18.1-28.7C193.2,81.5,193.2,80.9,193.2,80.3z"/>
		<path class="st2" d="M209.9,129.2c-7.3-0.7-14.8,0.1-22,1.9c0,0.6-0.1,1.3-0.2,1.9C195.1,132.2,202.7,131.4,209.9,129.2z"/>
		<path class="st2" d="M213.6,129.7c0,0-0.1,0-0.1,0c-8.4,3.1-17.5,4.1-26.4,4.9c-0.1,0.1-0.2,0.3-0.3,0.4c-0.2,0.3-0.3,0.5-0.5,0.8
			c-0.2,0.2-0.4,0.5-0.5,0.7c0,0.1,0,0.3,0,0.4c0,0.3-0.1,0.5-0.1,0.8c12.1-2.5,24.4-3.9,36.8-3.7
			C219.8,131.8,216.7,130.3,213.6,129.7z"/>
		<path class="st2" d="M183.3,157.1c0.1,0.2,0.2,0.4,0.3,0.6c3.5-0.5,7.1-0.5,10.6-0.5c-3.1-0.7-6.3-1.2-9.5-1.2
			C184.3,156.4,183.8,156.7,183.3,157.1z"/>
		<path class="st2" d="M229.5,103.8c5.4-3.2,14.6-9.4,20.5-16.4c-7.3,4.8-14.9,9-21.3,14.9C229,102.8,229.3,103.3,229.5,103.8z"/>
		<path class="st2" d="M204.2,152.2c5.6,0.7,11.2,1.3,16.9,2c0,0,0,0,0.1,0c1.4-0.7,2.6-1.5,3.7-2.5c0.6-0.6,1.1-1.1,1.5-1.7
			c-5.6,0.3-11.1-0.9-16.7-1.1c-7.1-0.3-14.5-0.1-21.6,0.2c-0.1,0.7-0.2,1.3-0.4,2C192.9,152.2,198.7,151.5,204.2,152.2z"/>
		<path class="st2" d="M200,157.1c0.3,0,0.6,0,0.9,0c4.9-0.2,11.4-0.1,16.9-1.7c-5-0.6-10.1-1.1-15.1-1.8c-5.2-0.6-10.6,0-15.7-1.1
			c-0.3,0.6-0.6,1.3-1,1.8C190.8,154.6,195.5,155.7,200,157.1z"/>
		<path class="st2" d="M188,147.5c7.1-0.3,14.5-0.7,21.6-0.2c5.9,0.4,11.8,1.7,17.7,1.1c0.3-0.6,0.6-1.3,0.7-1.9
			c-13.2-2.2-26.8-1.7-40,0C188,146.7,188,147.1,188,147.5z"/>
		<path class="st2" d="M185.2,139.3c0,0,0,0.1,0,0.1c0.7,0.7,1.2,1.6,1.7,2.5c13.3-3.6,27.2,0.2,40.7-1.6c-0.7-1.7-1.8-3.4-3.3-4.8
			c-13.1-0.3-26.1,1.1-38.9,3.8C185.3,139.4,185.3,139.3,185.2,139.3z"/>
		<path class="st2" d="M187.8,144.8c13.4-1.7,27.1-2.2,40.5,0c0.1-1,0-2-0.3-2.9c-13.5,1.9-27.3-1.9-40.5,1.6
			C187.6,143.9,187.7,144.3,187.8,144.8z"/>
		<path class="st2" d="M214.9,202.6c2.4,4.5,6.2,8.2,9.4,12.1c3.2,3.8,6.6,7.3,10.5,10.3c-4-9.5-11.7-15.9-19.3-22.6
			C215.3,202.4,215.1,202.5,214.9,202.6z"/>
		<path class="st2" d="M166.3,103.6c-0.1,0.3-0.4,0.4-0.6,0.4c0.4,0.4,0.7,0.8,0.9,1.3c2.9-5,5-10.4,8.1-15.3
			c2.9-4.7,6.1-9.1,9-13.8c-0.9,0.2-1.7,0.5-2.6,0.9C175,85.1,170.4,94.3,166.3,103.6z"/>
		<path class="st2" d="M58.8,192.1c-7.2,3.1-14.3,7.2-19.7,12.9c6.9-5,14.8-8.7,22.6-12.3C60.7,192.6,59.8,192.4,58.8,192.1z"/>
		<path class="st2" d="M128.6,78.7c0.6,7.1,0.9,14.2,2.3,21.2c0.3,0.1,0.6,0.1,1,0.2C131.6,93.7,130.6,85.9,128.6,78.7z"/>
		<path class="st2" d="M91.2,210.9c5.9-9.4,12.2-18.4,19.4-26.8c-0.3-0.2-0.6-0.4-0.9-0.7C102.1,190.8,93.4,200.2,91.2,210.9
			C91.2,210.8,91.2,210.9,91.2,210.9z"/>
		<path class="st2" d="M68.5,35.7c0-0.8,0-1.7,0.1-2.5c-0.1-0.1-0.2-0.2-0.3-0.3c-1.2-1.8-2.8-3-4.7-3.8c0.4,0.6,0.8,1.2,1.2,1.7
			C66,32.4,67.1,34.2,68.5,35.7z"/>
		<path class="st2" d="M15.3,104.6C15.3,104.6,15.3,104.6,15.3,104.6c1-0.3,2.1-0.6,3.1-0.9c-2.9-1-5.7-2.5-8.2-4.3
			C11.2,101.6,12.8,103.4,15.3,104.6z"/>
		<path class="st2" d="M33.9,103.2c7,0.8,13.9,3,19.4,5.7c0-0.3,0.1-0.6,0.2-0.8c-0.1,0-0.3,0-0.4-0.1c-7.1-3.3-14.9-4.8-22-8
			c-7-3.2-14-6.6-21.5-8.6c0,0,0,0,0,0c-0.1,0.7-0.3,1.4-0.3,2C17.1,97.6,25.8,99.6,33.9,103.2z"/>
		<path class="st2" d="M9.9,89.8C10,89.8,10,89.8,9.9,89.8c7.7,2.1,14.8,5.6,22,8.8c7.2,3.2,14.9,4.7,22,8c0.2-0.7,0.5-1.5,0.8-2.2
			c-8-4.7-16.5-8.6-25.4-11.3c-3.7-1.1-7.5-2.4-11.2-3.5c-2.4-0.7-4.9-1.5-6.8-3.2C10.8,87.5,10.3,88.6,9.9,89.8z"/>
		<path class="st2" d="M12.3,85.1C12.3,85.1,12.3,85.1,12.3,85.1c2.7,2.6,7.2,3.3,10.6,4.4c4.1,1.3,8.2,2.4,12.3,3.9
			c7,2.6,13.8,5.9,20.3,9.7c0.2-0.3,0.4-0.6,0.6-0.9C49.2,97,41.1,94,34.2,89.3c-6.7-2.2-13.7-3.6-20.2-6.2
			C13.4,83.7,12.8,84.3,12.3,85.1z"/>
		<path class="st2" d="M66.3,206.6c-0.2-0.4-0.3-0.9-0.4-1.3c-6.5,3.6-12.8,7.5-18.8,11.9c-3.5,2.5-6.9,5.2-10.1,8
			c-1.4,1.3-2.9,2.5-4.2,3.9c-0.2,0.2-0.6,0.6-0.9,1c0.2,0.3,0.5,0.5,0.7,0.8l0,0c6.3-3,11-8.1,16.5-12.3
			C54.6,214.3,60.5,210.4,66.3,206.6z"/>
		<path class="st2" d="M38.1,222.2c2.7-2.2,5.4-4.4,8.3-6.4c6.2-4.5,12.7-8.5,19.4-12.3c0-0.8,0.2-1.6,0.4-2.5
			c-12.7,7.3-27.1,13.7-35.8,26c0.2,0.6,0.4,1.2,0.8,1.8c1-0.9,1.9-2.2,2.7-2.9C35.2,224.7,36.6,223.4,38.1,222.2z"/>
		<path class="st2" d="M70.7,192.5c0.2-0.3,0.4-0.5,0.6-0.8c-1.9,0.5-3.9,0.9-5.9,1c-10.9,5.1-22,9.8-30.9,18.1
			c-1.4,2.1-2.6,4.5-3.5,6.9c4.5-4.9,10.2-8.3,15.7-12C54.3,200.7,63.3,198.1,70.7,192.5z"/>
		<path class="st2" d="M66.6,199c0.1-0.1,0.3-0.1,0.4-0.1c0.4-1,1-2,1.5-3c-5.7,3.5-12.1,5.8-17.9,9.3c-7.3,4.4-15.5,9.2-20.5,16.2
			c-0.2,1.2-0.3,2.4-0.1,3.5C39.1,212.8,53.7,206.5,66.6,199z"/>
		<path class="st2" d="M21.1,79.5c1.5,0.6,3,1.2,4.5,1.7c-0.4-0.5-0.7-1-1-1.5c0,0-0.1-0.1-0.1-0.2C23.3,79.4,22.2,79.3,21.1,79.5z"
			/>
		<path class="st2" d="M77.3,68.8c0.3-0.3,0.7-0.6,1.1-0.9c0.1-0.1,0.2-0.1,0.3-0.2C74.1,61.2,68.1,56,63.1,50
			c-4.9-5.9-9.7-11.9-14.8-17.7c-0.3,0.3-0.7,0.6-1,1c-0.1,0.1-0.2,0.3-0.3,0.4c4.9,5.6,8.7,11.9,13.4,17.7
			C65.6,57.6,71.8,62.9,77.3,68.8z"/>
		<path class="st2" d="M80.1,66.8c0.2-0.1,0.4-0.3,0.7-0.4c-3-4-6-8.7-8.2-13.7C65.8,45.1,58,38.2,51.7,30.1
			c-0.7,0.4-1.4,0.8-2.1,1.2c5.7,6.5,10.8,13.6,16.7,19.9C71,56.3,76,61.1,80.1,66.8z"/>
		<path class="st2" d="M76.2,69.9C70.6,64,64.3,58.8,59.3,52.4c-4.5-5.7-8.4-11.9-13.2-17.4c-0.3,0.4-0.5,0.8-0.7,1.3
			C52.9,49.8,64.7,60,75,71.3C75.4,70.8,75.8,70.3,76.2,69.9z"/>
		<path class="st2" d="M68.6,37.9c-0.1,0-0.1,0-0.2-0.1c-1.6-1.4-2.8-3.2-4-4.9c-1-1.4-2.2-3.5-3.7-4.5c-1.2-0.1-2.4-0.1-3.7,0
			c3.2,5,7.6,9.1,12,13C68.8,40.3,68.6,39.1,68.6,37.9z"/>
		<path class="st2" d="M69.5,44c-5.2-4.6-10.6-9.3-14.2-15.3c-0.7,0.2-1.4,0.4-2.1,0.6c5.4,6.9,11.8,12.8,17.7,19.2
			C70.3,47.1,69.9,45.5,69.5,44z"/>
		<path class="st2" d="M73.4,74.2c0.2-0.5,0.4-1,0.7-1.5C63.9,61.5,52.2,51.3,44.5,38.1c-0.3,0.7-0.5,1.4-0.7,2.2
			c6,8.6,11.8,17.5,19.6,24.6C67.4,67.4,71.1,70.4,73.4,74.2z"/>
		<path class="st2" d="M15.4,81.9c4.9,1.9,10.1,3.2,15.2,4.6c-1.1-0.9-2.1-1.9-3.1-3c-3.1-1-6.1-2.2-9.1-3.3
			C17.3,80.6,16.3,81.2,15.4,81.9z"/>
		<path class="st2" d="M67,208c-6.3,4.2-12.9,8.3-18.7,13.2c-4.6,3.8-9,8-14.4,10.7c1,0.7,2.1,1.2,3.3,1.5c0,0,0,0,0,0
			c8.5-9.7,19.6-17.6,30.6-24.2C67.5,208.8,67.2,208.4,67,208z"/>
		<path class="st2" d="M46.3,55.8c0.1,0.1,0.2,0.3,0.3,0.5c1.2,0.5,2.4,1,3.6,1.5c-2.8-3.5-5-7.5-7.2-11.4C43,50,44,53.5,46.3,55.8z
			"/>
		<path class="st2" d="M58,61.8c-5.5-6-10.1-12.7-14.7-19.4c-0.1,0.4-0.1,0.8-0.2,1.2c3.3,5.7,6.2,11.7,11,16.2
			C55.4,60.4,56.7,61.1,58,61.8z"/>
		<path class="st2" d="M21.8,103.2c2.3-0.3,4.7-0.4,7.1-0.3c-6.6-2.5-13.4-4.4-19.7-7.7c0,0.6,0.1,1.2,0.2,1.7
			C13.1,99.8,17.2,102,21.8,103.2z"/>
		<path class="st2" d="M61.8,226.8c-0.9,0.6-1.9,1.2-2.8,1.9c-1.1,0.7-3.6,2-5,3.5c3-0.8,6.1-1.9,7.1-2.9
			C61.3,228.4,61.6,227.6,61.8,226.8z"/>
		<path class="st2" d="M204.2,219.3c2.8,4.5,5,9.4,6.6,13.7c1.1,2.7,2.1,5.6,2.7,8.6c1.5,1,3.3,1.9,5.2,2.6
			c-4-6.2-6.8-13.3-10.4-19.8c-3.6-6.6-6.7-13.4-9.5-20.4c0,0.8-0.1,1.6-0.4,2.4c0,0.1,0.1,0.1,0.1,0.2c1.5,4.3,4,8.1,5.5,12.4
			C204.2,219,204.2,219.1,204.2,219.3z"/>
		<path class="st2" d="M130.9,265.3c0.4-0.9,0.8-1.8,1.2-2.8c-0.4-1.1-0.8-2.2-1.1-3.3C131,261.3,131,263.3,130.9,265.3z"/>
		<path class="st2" d="M106.3,261.3c0,2.3,0.4,5.1,1.3,7.7c1-4.2,1.5-8.4,2.4-12.6C108.8,258.1,107.6,259.7,106.3,261.3z"/>
		<path class="st2" d="M129.8,254c-0.5-3.1-0.7-6.2-0.8-9.4c-0.2,0.1-0.3,0.1-0.5,0.1c-0.7,5.3-0.3,10.5-0.6,15.8
			c-0.2,3.5-0.7,7-0.7,10.5c0.6-0.8,1.2-1.6,1.7-2.4c0,0,0-0.1,0-0.1C129.8,263.7,129.1,258.9,129.8,254z"/>
		<path class="st2" d="M68.9,210.5c-10.7,6.5-21.5,14.1-29.9,23.4c1.1,0.2,2.2,0.2,3.3,0.2c0,0,0.1-0.1,0.1-0.1
			c8.7-5.9,17.4-11.9,25-19.1c0.8-1.3,1.7-2.4,2.5-3.4C69.6,211.1,69.3,210.8,68.9,210.5z"/>
		<path class="st2" d="M47.4,233.6c0.9-0.2,2.5-0.5,4.3-0.9c0.8-1.5,2.6-2.7,3.8-3.7c2.3-1.7,4.9-3.1,7.1-4.9
			c0.6-1.6,1.3-3.3,2.1-4.8c-6.1,5.3-12.8,10-19.6,14.6C46,233.9,46.7,233.8,47.4,233.6z"/>
		<path class="st2" d="M112.4,252.6c-1.6,6.2-2.1,12.6-3.8,18.8c0.6,1.2,1.3,2.2,2.1,3.1c0.5-8.2,1.8-16.4,3.3-24.5
			C113.5,250.9,113,251.7,112.4,252.6z"/>
		<path class="st2" d="M122.7,245.3c-1.8,5.3-1.2,10.9-1.9,16.4c-0.6,5.1-1.7,10.1-2.2,15.2c0.3-0.1,0.6-0.1,0.9-0.2
			c0.7-0.2,1.4-0.6,2.1-0.9c1.1-10.1,1.4-20.3,2.3-30.4C123.5,245.4,123.1,245.4,122.7,245.3z"/>
		<path class="st2" d="M126.9,245.2c-0.5,0.1-1,0.2-1.5,0.2c-0.8,9.8-1.1,19.6-2.2,29.4c0.9-0.6,1.7-1.3,2.4-2
			c-0.4-5,0.7-10,0.7-14.9C126.5,253.6,126.4,249.4,126.9,245.2z"/>
		<path class="st2" d="M117.5,243.6c-0.3,0.7-0.7,1.4-1.1,2.2c-1.8,10-3.6,20-4.1,30.1c0.3,0.2,0.6,0.4,0.9,0.5
			c1.8-10.8,4.3-21.5,5.1-32.4C118,243.9,117.7,243.8,117.5,243.6z"/>
		<path class="st2" d="M121.1,245.1c-0.5-0.1-0.9-0.2-1.4-0.4c-0.9,10.9-3.4,21.5-5.1,32.3c0.7,0.2,1.5,0.3,2.4,0.2
			c0.6-6,2.2-11.9,2.5-18C119.7,254.5,119.6,249.6,121.1,245.1z"/>
		<path class="st2" d="M67.8,145.9c8.5-0.2,17.1-0.8,25.4,0.7c0.2-0.8,0.5-1.5,1-2.3c-4.5-0.5-8.9-1.7-13.5-1.7
			c-4.6-0.1-9.2,0.1-13.8,0.2c-6.9,0.1-15-0.4-21.3,3c-0.5,1.1-0.8,2.3-1,3.6C52,147.1,60,146.1,67.8,145.9z"/>
		<path class="st2" d="M51.1,161.8c7.9,0.2,15.6-2,23.4-3.1c6.6-0.9,13.2-0.6,19.6-2.5c0.3-0.5,0.6-1,0.9-1.5
			c-0.4-0.4-0.7-0.7-0.9-1.2c-8.3,0.3-16.4,2.5-24.7,3.3c-7.6,0.8-15.1,0.8-22.5,2.5c1,1.1,2.2,1.9,3.7,2.6
			C50.8,161.9,51,161.8,51.1,161.8z"/>
		<path class="st2" d="M174,82.6c-0.1,0.3-0.3,0.5-0.5,0.6c-4.4,5.7-7.2,12.5-9.6,19.2c0.3,0.2,0.7,0.5,1,0.8c0-0.1,0-0.3,0.1-0.5
			c3.7-8.3,7.8-16.6,13-24.1c-0.8,0.5-1.4,1.1-2,1.6C175.2,81,174.6,81.8,174,82.6z"/>
		<path class="st2" d="M101.2,203.3c3.9-6,8.8-11.3,12-17.7c-0.4-0.2-0.9-0.4-1.3-0.6c-7.9,9.2-14.8,19.2-21.1,29.5c0,0,0,0-0.1,0.1
			c-0.1,1.7,0,3.6,0.4,5.3C94.3,214.2,97.7,208.7,101.2,203.3z"/>
		<path class="st2" d="M66,150.5c9-0.7,17.9-2.5,26.9-0.8c0-0.5,0-1,0-1.4c-8.6-1.6-17.7-1.1-26.4-0.6c-7.5,0.4-15,1.2-22.1,3.7
			c0,0.6,0,1.3,0.1,1.9C51.3,150.4,58.8,151,66,150.5z"/>
		<path class="st2" d="M93.4,158.1c-6.5,1.6-13.1,1.4-19.7,2.4c-6.1,1-12.3,2.4-18.5,2.8c11.7,2,29.8-3,37.9-3.9
			C93.2,159,93.3,158.5,93.4,158.1z"/>
		<path class="st2" d="M145.8,221.9c0.5,1.7,1.1,3.2,1.8,4.7c-0.4-12.7-1.1-25.3-2.6-37.9c-0.6,0.5-1.3,0.9-2,1.2
			c0.6,8.5-0.2,21.5,2.8,31.8C145.8,221.8,145.8,221.9,145.8,221.9z"/>
		<path class="st2" d="M104.5,222c4.4-12.6,10.3-24.5,16.7-36.1c-0.7,0.2-1.5,0.4-2.3,0.4c-1.3,3.2-3.6,5.8-5.4,8.9
			c-1.9,3.3-3.6,6.7-5.6,9.9c-4.2,6.8-8.6,13.6-12.2,20.8c0.1,0,0.3,0.1,0.4,0.1C99.4,226.5,102.3,224.2,104.5,222z"/>
		<path class="st2" d="M94.3,225.2c3.4-6.8,7.5-13.3,11.5-19.8c2-3.2,3.7-6.6,5.7-9.9c1.8-3.1,4.3-5.9,5.7-9.2
			c-0.9,0-1.7-0.1-2.5-0.3c-3,6.2-7.6,11.2-11.4,16.9c-4.1,6.2-8,12.5-11.6,19C92.3,223.3,93.1,224.5,94.3,225.2z"/>
		<path class="st2" d="M125.3,185.2c-0.3-0.2-0.6-0.5-0.8-0.8c-0.3,0.2-0.6,0.3-0.9,0.5c0,0,0,0,0,0.1c-6.1,11-11.8,22.1-16.2,33.9
			c8-9.3,14.4-21.5,17.7-33.1C125.1,185.6,125.2,185.4,125.3,185.2z"/>
		<path class="st2" d="M121.9,63.8c1.9,12,1.3,24.6,6.3,35.9c0.3,0,0.7,0,1,0c-1.9-9.4-1.6-19.1-3.2-28.5
			C124.9,68.5,123.5,66,121.9,63.8z"/>
		<path class="st2" d="M111.7,59c2.4,7.2,2.2,14.8,3.7,22.2c1.5,7.3,4.8,14,7.4,21c0.3-0.4,0.7-0.7,1.1-1c-8.5-12.5-6-28.5-9.1-42.7
			C113.7,58.4,112.7,58.6,111.7,59z"/>
		<path class="st2" d="M46.8,143.5c5.9-2.4,12.9-2.1,19.1-2.2c4.9-0.1,9.9-0.4,14.8-0.2c5,0.1,9.7,1.4,14.6,1.8
			c0.1-0.1,0.2-0.2,0.3-0.3c-0.3-0.7-0.6-1.3-0.7-2c-13.8-2.5-27.8-3.5-41.8-2.5C50.5,139.4,48.3,141.2,46.8,143.5z"/>
		<path class="st2" d="M153.1,233.7c-1.8-7-1.9-14.3-2.6-21.5c-0.9-8.8-1.2-17.4-1-26.2c-0.5-0.4-1-0.8-1.5-1.4
			c-0.3,1-0.8,2-1.5,2.8c1.7,14,2.4,28.1,2.8,42.3C150.3,231.2,151.6,232.6,153.1,233.7z"/>
		<path class="st2" d="M116.5,59c2.8,13.8,0.5,29.3,8.7,41.4c0.5-0.2,0.9-0.4,1.4-0.5c-5.2-12.2-4.2-25.7-6.8-38.5
			C118.8,60.2,117.6,59.4,116.5,59z"/>
		<path class="st2" d="M57.5,136.2c12.4-0.5,24.9,0.5,37.1,2.7c0-0.9,0.1-1.7,0.4-2.6C86.1,134,69.3,132.4,57.5,136.2z"/>
		<path class="st2" d="M104.5,76.7c1.9,9.4,6.3,17.9,11.3,25.9c0.7-0.1,1.4-0.2,2.1-0.2c-2.7-6.2-6.2-12.1-8.2-18.5
			c-1.9-6-2.6-12.3-3.5-18.5C104.6,68.9,103.8,73.3,104.5,76.7z"/>
		<path class="st2" d="M107.5,63.1C107.5,63.1,107.5,63.1,107.5,63.1c1.2,7.3,1.7,14.8,4.3,21.7c2.3,6.1,5.5,11.9,8,18
			c0.6,0.2,1.2,0.5,1.8,0.9c-2.7-7.8-6.7-15.1-7.9-23.3c-1-6.8-1.2-13.8-3.3-20.4C109.2,60.7,108.3,61.8,107.5,63.1z"/>
		<path class="st2" d="M46,158c7.8-1.9,15.6-1.8,23.5-2.7c8-0.9,15.9-2.8,23.9-3.2c-0.1-0.2-0.2-0.5-0.2-0.7
			c-9.2-1.8-18,0.3-27.2,0.8c-7.1,0.4-14.7-0.2-21.3,2.7C45,156,45.4,157.1,46,158z"/>
		<path class="st2" d="M170.7,17.1c-1.8,6.1-3.3,12.4-4.8,18.6c-1.4,5.8-2.2,11.8-3.9,17.6c0.7-0.3,1.4-0.6,2.2-0.7
			c2-6.9,4.2-13.9,5.4-21c0.4-2.6,1-5.9,1.2-9.3c-0.1-0.4-0.1-0.8,0.1-1.2C170.9,19.7,170.9,18.4,170.7,17.1z"/>
		<path class="st2" d="M168.6,11c-0.5-0.7-1.1-1.3-1.7-1.8c-3,7.6-2.6,15.9-4.4,23.7c-1.9,8.2-3.6,16.7-5.9,24.8
			c1.1-1.3,2.2-2.4,3.5-3.3c2-6.3,2.8-12.8,4.4-19.2c1.8-7.1,3.4-14.3,5.6-21.4C169.7,12.8,169.2,11.8,168.6,11z"/>
		<path class="st2" d="M162.5,7.6c-2.1,9-4.6,17.9-5.9,27.1c-0.9,6.8-2,13.5-3.8,20.1c0.7,1.3,1.3,2.8,1.8,4.3
			c1.4-4.6,2.4-9.3,3.4-14c1-4.6,2.5-9.2,3.3-13.9c1.3-7.7,1.4-15.7,4.3-22.9C164.6,7.8,163.6,7.6,162.5,7.6z"/>
		<path class="st2" d="M142.5,47.2c0.7,0.1,1.3,0.2,1.9,0.4c1.1-10.7,2.1-21.4,4.9-31.8c-2.1,2.5-3.7,5.2-4.4,7.2
			C142.5,30.9,142,39,142.5,47.2z"/>
		<path class="st2" d="M149.5,50.5c0.8,0.7,1.5,1.5,2.1,2.4c1.8-7.1,2.6-14.2,3.8-21.5c1.3-8,3.5-15.8,5.4-23.7
			c-0.8,0.2-1.6,0.4-2.5,0.8c-4.4,4.9-4.9,12.9-6,19.1C151.1,35.2,150.4,42.8,149.5,50.5z"/>
		<path class="st2" d="M148.1,49.3c0.9-8,1.8-16,3.1-24c0.8-4.8,1.5-10.5,4-14.9c-1.2,0.8-2.3,1.8-3.4,2.8
			c-3.5,11.3-4.6,23.1-5.8,34.9C146.7,48.4,147.4,48.8,148.1,49.3z"/>
		<path class="st2" d="M217.5,85.6c8.3-7,16.7-14,24.6-21.5c-9.1,1.6-19.2,13.1-25.3,18.4C217.3,83.5,217.5,84.5,217.5,85.6z"/>
		<path class="st2" d="M170.5,229.6c-3.5-5.9-5.2-12.7-7.4-19.2c-2.7-8-4.4-16.1-6.6-24.2c-0.6,0.2-1.2,0.5-1.9,0.6
			c1.7,16.7,4.7,33.1,8.8,49.4C166.5,235.2,169,232.8,170.5,229.6z"/>
		<path class="st2" d="M172.1,223.6c0.5-7.4-0.8-14.5-4.1-21.1c-4.4-5-7.5-11.2-9-17.6c-0.3,0.2-0.6,0.4-0.9,0.6
			c2.1,7.8,3.7,15.7,6.3,23.4c2.1,6.3,3.7,13,6.9,18.9C171.7,226.4,172,225.1,172.1,223.6z"/>
		<path class="st2" d="M233.6,78.3c-5.6,5-11.6,9.7-17.6,14.3c-0.5,1.2-1.1,2.3-1.7,3.3c0.8-0.1,1.6-0.1,2.4-0.1
			c10.8-10.4,24-17.9,34.7-28.3c0.1-0.1,0.2-0.1,0.3-0.2c-0.5-0.5-0.9-0.9-1.4-1.3C244,68.9,238.8,73.7,233.6,78.3z"/>
		<path class="st2" d="M221.5,96.8c5-5.1,11.1-8.8,16.9-13c5.4-3.9,10.5-8.3,16.2-11.9c-0.3-0.8-0.7-1.6-1.2-2.4
			c-0.2-0.3-0.5-0.7-0.7-1c0,0.1-0.1,0.1-0.1,0.2c-10.4,10.1-23.2,17.4-33.7,27.3C219.8,96.2,220.6,96.4,221.5,96.8z"/>
		<path class="st2" d="M217,89.8c5.9-4.6,11.7-9.3,17.3-14.2c4.5-4,9.1-7.9,14.5-10.6c-1.3-0.7-2.7-1.1-4.2-1.2
			c-8.6,8.4-18,16.1-27.2,23.8C217.3,88.4,217.2,89.1,217,89.8z"/>
		<path class="st2" d="M227.7,101c7.6-6.8,16.7-11.4,25-17.4c1-1.6,1.8-3.3,2.2-5c-10.3,5.8-19.8,13-28.6,20.9
			C226.8,100.1,227.3,100.5,227.7,101z"/>
		<path class="st2" d="M223.1,97.4c0.3,0.2,0.6,0.3,0.9,0.5c0.4,0.2,0.7,0.5,1.1,0.7c9.3-8.3,19.3-16,30.2-22
			c0.1-1.1,0.1-2.1-0.2-3.1c-5.5,3.5-10.5,7.9-15.9,11.6C233.7,89.1,227.9,92.6,223.1,97.4z"/>
		<path class="st2" d="M155.2,235.1c2.3,1.2,4.6,1.6,6.7,1.4c-4.1-16.3-7.1-32.8-8.8-49.5c-0.7,0-1.4,0-2.1-0.2
			c-0.1,8.6,0.2,17,1,25.5C152.8,219.9,152.9,227.6,155.2,235.1C155.2,235.1,155.2,235.1,155.2,235.1z"/>
		<path class="st2" d="M269,178.8c-3.8-0.2-7.7-2.2-11.5-1.6c-0.3,0-0.5,0-0.7-0.2c-2.6,0.5-5.3,0.8-8,0.9c7.2,1,14.5,1.8,21.5,3.9
			C270,180.7,269.6,179.7,269,178.8z"/>
		<path class="st2" d="M263.5,175c-0.6,0.3-1.3,0.5-2,0.8c2,0.4,4.1,1,6.1,1.3C266.5,176,265.2,175.3,263.5,175z"/>
		<g>
			<path class="st2" d="M270.7,190.7c0.2-1,0.3-2.1,0.3-3.2c-7.8-1-15.5-3.8-23.3-5.7c-5.7-1.4-11.5-2.3-17.4-1.5
				c-0.3,0.4-0.6,0.9-1,1.3c5.7,1.6,11.5,2.7,17.3,3.9C254.7,187,262.8,188.5,270.7,190.7z"/>
			<path class="st2" d="M271,186c0-0.8-0.1-1.6-0.2-2.4c-7.3-2.3-14.8-3.1-22.4-4.2c-2.1-0.3-4.2-0.6-6.2-1
				c-0.3-0.1-0.4-0.2-0.5-0.4c-3.7-0.1-7.1-0.2-9.8-0.3c-0.1,0.3-0.3,0.6-0.5,0.9c5.7-0.5,11.3,0.4,16.8,1.8
				C255.7,182.3,263.2,185,271,186z"/>
			<path class="st2" d="M246.9,191.1c-0.6-0.2-1.2-0.3-1.7-0.5c-7.1-2.1-14.1-4.6-21.5-4.9c-1.2,0.5-2.6,0.7-4.1,0.8
				c0.1,0.1,0.2,0.3,0.2,0.4c4.8,1.2,9.7,1.7,14.6,2.7c3.5,0.8,6.9,1.8,10.2,2.9c0.3,0.1,0.7,0.2,1,0.3c5.1,1.6,12.9,3.5,16.1,8.4
				c1.9-0.7,3.6-1.7,5-3C260.8,194.6,253.5,193,246.9,191.1z"/>
			<path class="st2" d="M246.2,187c-6.1-1.2-12.1-2.4-18.1-4.1c-0.5,0.5-1.1,1-1.7,1.4c6.6,0.7,12.9,2.9,19.2,4.8
				c0.9,0.3,1.8,0.5,2.7,0.8c6.6,1.9,13.7,3.5,19.6,7.1c1.1-1.3,1.9-2.8,2.4-4.6C262.4,190.1,254.3,188.6,246.2,187z"/>
			<path class="st2" d="M244.2,194c-0.6-0.2-1.1-0.3-1.6-0.5c-4.3-1.3-8.7-2.2-13.1-3c4.8,1.7,9.5,4.2,13.8,6.4c0,0,0,0,0.1,0
				c3,1.5,6.4,3.3,9.3,5.7c2.6,0,5.2-0.2,7.6-0.9C257,197.3,249.5,195.5,244.2,194z"/>
		</g>
		<g>
			<path class="st2" d="M218.6,224.1c-4.3-6.7-7.5-14.1-12.6-20.3c-0.7,0-1.5-0.1-2.2-0.2c7.6,14.1,13,29.9,24.2,41.7
				c0.5-0.1,1-0.2,1.5-0.4c1.3-0.5,2.5-1.2,3.5-2.3c0,0,0,0,0.1-0.1c-0.8-0.7-1.5-1.4-2.2-2.2C226.2,235.4,222.3,229.8,218.6,224.1z
				"/>
			<path class="st2" d="M201.8,203.2c-0.6-0.1-1.2-0.3-1.8-0.5c3.2,8,6.8,15.8,11,23.2c3.6,6.2,6,13,10,18.9c1.7,0.4,3.3,0.7,5,0.6
				C215,233.4,209.7,217.4,201.8,203.2z"/>
			<path class="st2" d="M236.5,234.3c0.2-2.2-0.1-4.5-0.7-6.7c-0.3-0.2-0.7-0.5-1-0.7c-4.6-3.4-8.5-7.6-12.3-12
				c-3.2-3.7-6.8-7.4-9.1-11.8c-0.4,0.1-0.8,0.2-1.2,0.3c6.8,9.6,12.6,20.2,21.2,28.2C234.3,232.6,235.4,233.5,236.5,234.3z"/>
			<path class="st2" d="M236.2,236.1c-1.2-0.9-2.3-1.8-3.4-2.8c-9.2-8.3-15.2-19.5-22.5-29.6c-0.7,0.1-1.5,0.2-2.2,0.2
				c4.3,5.7,7.3,12.3,11.2,18.4c3.7,5.7,7.4,11.3,12,16.2c0.9,0.9,1.8,1.8,2.7,2.7C235.1,239.7,235.8,237.9,236.2,236.1z"/>
		</g>
	</g>
	<g>
		<path class="st3" d="M7.9,135.6c-14.5,8.8-8,27.7,6.4,32.8c7.2-7,18-11.1,27.3-12.8c-0.3-1.6-0.3-3.4-0.1-5.5
			c0.2-1.8,0.7-3.5,1.3-5C34.5,144.5,17.8,142,7.9,135.6z"/>
		<path class="st3" d="M188.3,256c-1-0.7-2-1.5-2.9-2.2c-6.3-5-12.1-10.8-14.9-18.3c-2.3,2.5-5.4,4.3-8.7,4.5
			c0.5,7.7-0.1,18.9-4.4,26.5c2.7,7.9,14.4,22.1,22.9,13.4c3.4-3.4,5.1-8.2,6.2-12.8C186.8,266.3,188,257.1,188.3,256z"/>
		<path class="st3" d="M107.6,223.7c-2.6,2.6-5.6,4.7-9,5.5c-2,0.4-3.6,0.2-5-0.5c-3.4,5.8-7.4,11.1-12.7,15.2
			c0.1,0.3,0.2,0.7,0.1,1.1c-2.9,8.9,0.7,30.9,14.8,21.4c8.2-5.5,14.6-15.8,19.1-24.4C109.9,237.6,107.1,230.3,107.6,223.7z"/>
		<path class="st3" d="M174.5,56.2c2.7-8.7,6.6-18.2,14.2-23.5c0.4-0.3,0.9-0.6,1.3-0.9c0.3-3.9-0.3-8.7-3.1-11.5
			c-3.8-3.7-9.5-3.1-12.4,0.9c0,10.7-4.5,23.7-6.9,31.2C170.3,52.8,172.8,54,174.5,56.2z"/>
		<path class="st3" d="M196.1,76.9c-0.1,0.1-0.1,0.1-0.2,0.1c0.3,0.6,0.5,1.3,0.6,1.9c5.7-3.8,13.7-4.4,18.6,0.9
			c4-3.6,10.1-9.7,16.6-14.1c-0.1-0.4-0.1-0.8,0.2-1.3c10-13-6.8-30.4-19.6-19.8c-0.8,3.5-2,6.9-2.9,9.4
			C206.6,62.1,203,71.3,196.1,76.9z"/>
		<path class="st3" d="M105.2,23.2c5.4,9.9,7.8,23.6,9,31.9c0.8,0,1.7,0.2,2.6,0.5c3.6,1.3,6.2,4,8.2,7.3
			c1.2-7.1,6.1-14.5,13.3-15.6c0.3,0,0.6-0.1,0.9-0.1c-0.5-8.8-0.1-18.3,3.3-26.6c-0.2-0.3-0.3-0.7-0.2-1.1c1.7-9.5-8.6-22-19-19.1
			c-10,2.9-16.8,12.3-18,22.5C105.3,23,105.3,23.1,105.2,23.2z"/>
		<path class="st3" d="M275.1,92c-0.3-0.5-0.7-1-1.2-1.5c-4.7-5.1-14.5-6.7-20.1-2.6c-0.2,0.2-0.5,0.3-0.7,0.3
			c-5.9,8-16,14.8-22.7,18.7c0.4,3.6-1.1,7.4-3.4,11c9.6-3,19.8-4.6,29.7-5.8c2.7-0.4,5.9-0.6,9.1-0.3c0.9-0.6,1.8-1.2,2.7-2
			C273.7,105.5,279,98.1,275.1,92z"/>
		<path class="st3" d="M266.8,115.3c-0.2,0-0.3-0.1-0.5-0.1c-0.6,0.3-1.1,0.2-1.5-0.1c-0.1,0-0.1,0-0.2,0
			c-13.1-0.5-28.6,2.9-40.8,7.4c-0.1,0-0.2,0.1-0.4,0.1c-1.8,1.9-3.7,3.6-5.6,4.9c0.6,0.2,1.1,0.4,1.7,0.7c5,2.2,9.9,6.7,11.5,12.1
			c9.1-0.6,19.2,0.6,27.3,4.8c0.2,0.1,0.4,0.2,0.6,0.3c0.1,0,0.1,0.1,0.2,0.1c6-2.5,14.2-5.6,17.1-11.7
			C280.1,125.1,275.3,116.8,266.8,115.3z"/>
		<circle class="st3" cx="140.2" cy="146.1" r="53.2"/>
	</g>
</g>
</svg>
