<?xml version="1.0" encoding="utf-8"?>
<!-- Generator: Adobe Illustrator 19.2.1, SVG Export Plug-In . SVG Version: 6.00 Build 0)  -->
<svg version="1.1" id="Layer_1" xmlns="http://www.w3.org/2000/svg" xmlns:xlink="http://www.w3.org/1999/xlink" x="0px" y="0px"
	 viewBox="0 0 55 55" style="enable-background:new 0 0 55 55;" xml:space="preserve">
<style type="text/css">
	.st0{opacity:0.57;fill:#FFFFFF;}
	.st1{fill:#FFFFFF;}
</style>
<path class="st0" d="M52.4,32.5c0,0,1.7-31.7-24.8-31S2.5,30.7,2.5,32.5c0,1.7,4.2,25.8,28.6,20.2S52.4,32.5,52.4,32.5z"/>
<path class="st1" d="M34.5,22.6c-0.1,0-0.1,0-0.2,0.1c-0.2-3-0.4-6-0.7-9c-0.1-1.4-2.2-1.4-2.2,0c0.1,3.2,0.2,6.5,0.3,9.7
	c-3.3,0.8-6.5,1.7-9.9,2.3c0.4-3.1,3.3-6.2,2.3-9.2c-0.2-0.6-0.8-1-1.5-0.8c-0.2,0.1-0.4,0.1-0.6,0.3c-0.3,0.2-0.4,0.5-0.3,0.7
	c-0.7,1.6-1.1,3.4-1.9,5c-0.9,1.9-1.5,3.8-1.2,5.9c0.1,0.9,0.7,1.7,1.7,1.7c3.9-0.2,7.9-0.8,11.6-2.1c0,0.3,0,0.7,0,1
	c0.2,4.4-0.2,9.2,0.8,13.6c0.4,1.6,2.5,1,2.7-0.4c0.5-4.3-0.4-8.9-0.7-13.2c0-0.7-0.1-1.4-0.1-2.1c0.4-0.2,0.8-0.4,1.2-0.6
	C37.3,24.5,36.2,22.2,34.5,22.6z"/>
</svg>
