<?xml version="1.0" encoding="utf-8"?>
<!-- Generator: Adobe Illustrator 19.2.1, SVG Export Plug-In . SVG Version: 6.00 Build 0)  -->
<svg version="1.1" id="Layer_1" xmlns="http://www.w3.org/2000/svg" xmlns:xlink="http://www.w3.org/1999/xlink" x="0px" y="0px"
	 viewBox="0 0 55 55" style="enable-background:new 0 0 55 55;" xml:space="preserve">
<style type="text/css">
	.st0{opacity:0.57;fill:#FFFFFF;}
	.st1{fill:#FFFFFF;}
</style>
<g>
	<path class="st0" d="M52.4,32.5c0,0,1.7-31.7-24.8-31S2.5,30.7,2.5,32.5c0,1.7,4.2,25.8,28.6,20.2S52.4,32.5,52.4,32.5z"/>
	<path class="st1" d="M30.5,45.4c-1.5-11.8-2.3-23.6-2-35.5c0.1-2.7-4-2.6-4.1,0c-0.4,6.3-4.1,11.8-4.8,18c-0.2,1.7,2.2,2,3,0.8
		c0.8-1.2,1.4-2.5,1.9-3.9c0.3,7.1,1.1,14.1,2.4,21.1C27.2,47.9,30.8,47.4,30.5,45.4z"/>
</g>
</svg>
