<?xml version="1.0" encoding="utf-8"?>
<!-- Generator: Adobe Illustrator 19.2.1, SVG Export Plug-In . SVG Version: 6.00 Build 0)  -->
<svg version="1.1" id="Layer_1" xmlns="http://www.w3.org/2000/svg" xmlns:xlink="http://www.w3.org/1999/xlink" x="0px" y="0px"
	 viewBox="0 0 55 55" style="enable-background:new 0 0 55 55;" xml:space="preserve">
<style type="text/css">
	.st0{opacity:0.57;fill:#FFFFFF;}
	.st1{fill:#FFFFFF;}
</style>
<path class="st0" d="M52.4,32.9c0,0,1.7-31.7-24.8-31S2.5,31.2,2.5,32.9c0,1.7,4.2,25.8,28.6,20.2S52.4,32.9,52.4,32.9z"/>
<path class="st1" d="M32.6,39.7c-2.3,0.1-4.6,0.3-6.9,0.5c2-4.4,3.8-8.8,5.5-13.3c1.9-4.9,4.5-11.1,2.1-16.2
	c-2.1-4.4-7.6-1.3-9.2,1.6c-2.5,4.4-3.4,11.5-2,16.4c0.4,1.3,2.1,0.9,2.2-0.3c0.4-3.8,0.5-7.4,1.7-11.1c0.3-0.8,0.6-1.6,0.9-2.3
	c0.1-0.2,0.3-0.5,0.4-0.7c0.6-1.5,1.6-1.4,3,0c0.2,1.9-0.3,3.8-0.8,5.6c-2,7.4-5.5,14.7-8.7,21.6c-0.6,1.2,0.1,3.1,1.7,3
	c3.5-0.3,7.1-0.5,10.6-1C35.2,43.2,34.7,39.6,32.6,39.7z"/>
</svg>
