<?xml version="1.0" encoding="utf-8"?>
<!-- Generator: Adobe Illustrator 19.2.1, SVG Export Plug-In . SVG Version: 6.00 Build 0)  -->
<svg version="1.1" id="Layer_1" xmlns="http://www.w3.org/2000/svg" xmlns:xlink="http://www.w3.org/1999/xlink" x="0px" y="0px"
	 viewBox="0 0 55 55" style="enable-background:new 0 0 55 55;" xml:space="preserve">
<style type="text/css">
	.st0{opacity:0.57;fill:#FFFFFF;}
	.st1{fill:#FFFFFF;}
</style>
<g>
	<path class="st0" d="M52.4,32.5c0,0,1.7-31.7-24.8-31S2.5,30.7,2.5,32.5c0,1.7,4.2,25.8,28.6,20.2S52.4,32.5,52.4,32.5z"/>
	<path class="st1" d="M39.1,25.4c-1.3-1.9-3.1-2.9-5.1-3.3c2.3-2.3,3.5-5.2,1-8.3c-4.7-5.6-11.7,0.7-14.9,4.7c-0.5,0.7,0.4,1.7,1,1
		c2.3-2.4,5.2-3.7,8.5-4c2.7,1.6,2.8,3.3,0.2,5c-1,0.8-2.4,1.3-3.6,1.8c-2.2,1-0.5,4.1,1.6,3.7c3.2-0.6,6.6-0.9,8.7,2.2
		c1.9,2.9,0.5,6.4-1.6,8.6c-5,5.1-12.9,2-18.2-0.6c-2.1-1.1-3.9,1.9-1.8,3.2c8.1,5,20,6.2,25.3-3.2C42,32.9,41.1,28.5,39.1,25.4z"/>
</g>
</svg>
