<?xml version="1.0" encoding="utf-8"?>
<!-- Generator: Adobe Illustrator 19.2.1, SVG Export Plug-In . SVG Version: 6.00 Build 0)  -->
<svg version="1.1" id="Isolation_Mode" xmlns="http://www.w3.org/2000/svg" xmlns:xlink="http://www.w3.org/1999/xlink" x="0px"
	 y="0px" viewBox="0 0 42 42" style="enable-background:new 0 0 42 42;" xml:space="preserve">
<style type="text/css">
	.st0{fill:#FFFFFF;}
	.st1{fill:#8E8E8E;}
</style>
<path class="st0" d="M21,2.6C10.9,2.6,2.6,10.9,2.6,21S10.9,39.4,21,39.4S39.4,31.1,39.4,21S31.1,2.6,21,2.6z"/>
<path class="st1" d="M21,1C10,1,1,10,1,21s9,20,20,20s20-9,20-20S32,1,21,1z M36,17.2l-20,15c-0.3,0.2-0.7,0.4-1.1,0.4
	c-0.2,0-0.2,0-0.4-0.1c-0.6-0.1-1-0.5-1.3-1L7.9,22c-0.5-1-0.2-2.1,0.7-2.6c1-0.5,2.1-0.2,2.6,0.7l4.2,7.6L33.7,14
	c0.9-0.6,2.1-0.5,2.6,0.4C37,15.4,36.8,16.6,36,17.2z"/>
</svg>
